<svg xmlns="http://www.w3.org/2000/svg" xmlns:xlink="http://www.w3.org/1999/xlink" contentStyleType="text/css" data-diagram-type="STATE" height="1304px" preserveAspectRatio="none" style="width:1287px;height:1304px;background:#FFFFFF;" version="1.1" viewBox="0 0 1287 1304" width="1287px" zoomAndPan="magnify"><title>**Booking Lifecycle State Diagram**</title><defs/><g><g class="title" data-source-line="9"><text fill="#000000" font-family="sans-serif" font-size="14" font-weight="bold" lengthAdjust="spacing" textLength="257.1885" x="508.3582" y="22.9951">Booking Lifecycle State Diagram</text></g><g id="Draft"><rect fill="#ADD8E6" height="50" rx="12.5" ry="12.5" style="stroke:#00008B;stroke-width:0.5;" width="55.5332" x="757.5" y="158.2969"/><line style="stroke:#00008B;stroke-width:0.5;" x1="757.5" x2="813.0332" y1="184.5938" y2="184.5938"/><text fill="#000000" font-family="sans-serif" font-size="14" lengthAdjust="spacing" textLength="35.5332" x="767.5" y="176.292">Draft</text></g><g id="Confirmed"><rect fill="#ADD8E6" height="50" rx="12.5" ry="12.5" style="stroke:#00008B;stroke-width:0.5;" width="92.9258" x="343" y="351.2969"/><line style="stroke:#00008B;stroke-width:0.5;" x1="343" x2="435.9258" y1="377.5938" y2="377.5938"/><text fill="#000000" font-family="sans-serif" font-size="14" lengthAdjust="spacing" textLength="72.9258" x="353" y="369.292">Confirmed</text></g><g id="Paid"><rect fill="#ADD8E6" height="50" rx="12.5" ry="12.5" style="stroke:#00008B;stroke-width:0.5;" width="50" x="364.5" y="544.2969"/><line style="stroke:#00008B;stroke-width:0.5;" x1="364.5" x2="414.5" y1="570.5938" y2="570.5938"/><text fill="#000000" font-family="sans-serif" font-size="14" lengthAdjust="spacing" textLength="29.7979" x="374.6011" y="562.292">Paid</text></g><g id="Completed"><rect fill="#ADD8E6" height="50" rx="12.5" ry="12.5" style="stroke:#00008B;stroke-width:0.5;" width="96.3574" x="811.5" y="704.2969"/><line style="stroke:#00008B;stroke-width:0.5;" x1="811.5" x2="907.8574" y1="730.5938" y2="730.5938"/><text fill="#000000" font-family="sans-serif" font-size="14" lengthAdjust="spacing" textLength="76.3574" x="821.5" y="722.292">Completed</text></g><g id="Cancelled"><rect fill="#ADD8E6" height="50" rx="12.5" ry="12.5" style="stroke:#00008B;stroke-width:0.5;" width="88.8174" x="182" y="704.2969"/><line style="stroke:#00008B;stroke-width:0.5;" x1="182" x2="270.8174" y1="730.5938" y2="730.5938"/><text fill="#000000" font-family="sans-serif" font-size="14" lengthAdjust="spacing" textLength="68.8174" x="192" y="722.292">Cancelled</text></g><g id="Refunded"><rect fill="#ADD8E6" height="50" rx="12.5" ry="12.5" style="stroke:#00008B;stroke-width:0.5;" width="87.4023" x="70" y="871.7969"/><line style="stroke:#00008B;stroke-width:0.5;" x1="70" x2="157.4023" y1="898.0938" y2="898.0938"/><text fill="#000000" font-family="sans-serif" font-size="14" lengthAdjust="spacing" textLength="67.4023" x="80" y="889.792">Refunded</text></g><ellipse cx="785.5" cy="53.2969" fill="#222222" rx="10" ry="10" style="stroke:#222222;stroke-width:1;"/><ellipse cx="572.5" cy="1067.2969" fill="none" rx="11" ry="11" style="stroke:#222222;stroke-width:1;"/><ellipse cx="572.5" cy="1067.2969" fill="#222222" rx="6" ry="6" style="stroke:#222222;stroke-width:1;"/><g class="entity" data-entity="GMN2" data-source-line="51" data-uid="ent0003" id="entity_GMN2"><path d="M848.5,140.2969 L848.5,179.2969 L813.77,183.2969 L848.5,187.2969 L848.5,225.9609 A0,0 0 0 0 848.5,225.9609 L1030.4956,225.9609 A0,0 0 0 0 1030.4956,225.9609 L1030.4956,150.2969 L1020.4956,140.2969 L848.5,140.2969 A0,0 0 0 0 848.5,140.2969" fill="#FEFFDD" style="stroke:#181818;stroke-width:0.5;"/><path d="M1020.4956,140.2969 L1020.4956,150.2969 L1030.4956,150.2969 L1020.4956,140.2969" fill="#FEFFDD" style="stroke:#181818;stroke-width:0.5;"/><text fill="#000000" font-family="sans-serif" font-size="13" font-weight="bold" lengthAdjust="spacing" textLength="86.9502" x="854.5" y="157.3638">Draft State:</text><text fill="#000000" font-family="sans-serif" font-size="13" lengthAdjust="spacing" textLength="160.9956" x="854.5" y="172.4966">- Date and time selected</text><text fill="#000000" font-family="sans-serif" font-size="13" lengthAdjust="spacing" textLength="126.439" x="854.5" y="187.6294">- Not confirmed yet</text><text fill="#000000" font-family="sans-serif" font-size="13" lengthAdjust="spacing" textLength="156.895" x="854.5" y="202.7622">- Can be modified freely</text><text fill="#000000" font-family="sans-serif" font-size="13" lengthAdjust="spacing" textLength="133.3325" x="854.5" y="217.895">- May be abandoned</text></g><g class="entity" data-entity="GMN5" data-source-line="59" data-uid="ent0006" id="entity_GMN5"><path d="M660.5,318.2969 L660.5,372.2969 L436.12,376.2969 L660.5,380.2969 L660.5,434.2266 A0,0 0 0 0 660.5,434.2266 L888.6177,434.2266 A0,0 0 0 0 888.6177,434.2266 L888.6177,328.2969 L878.6177,318.2969 L660.5,318.2969 A0,0 0 0 0 660.5,318.2969" fill="#FEFFDD" style="stroke:#181818;stroke-width:0.5;"/><path d="M878.6177,318.2969 L878.6177,328.2969 L888.6177,328.2969 L878.6177,318.2969" fill="#FEFFDD" style="stroke:#181818;stroke-width:0.5;"/><text fill="#000000" font-family="sans-serif" font-size="13" font-weight="bold" lengthAdjust="spacing" textLength="125.0234" x="666.5" y="335.3638">Confirmed State:</text><text fill="#000000" font-family="sans-serif" font-size="13" lengthAdjust="spacing" textLength="127.1689" x="666.5" y="350.4966">- Capacity reserved</text><text fill="#000000" font-family="sans-serif" font-size="13" lengthAdjust="spacing" textLength="201.3032" x="666.5" y="365.6294">- Reference number generated</text><text fill="#000000" font-family="sans-serif" font-size="13" lengthAdjust="spacing" textLength="165.3818" x="666.5" y="380.7622">- Confirmation email sent</text><text fill="#000000" font-family="sans-serif" font-size="13" lengthAdjust="spacing" textLength="202.0649" x="666.5" y="395.895">- Can be modified (&gt; 24 hours)</text><text fill="#000000" font-family="sans-serif" font-size="13" lengthAdjust="spacing" textLength="207.1177" x="666.5" y="411.0278">- Can be cancelled (&gt; 48 hours)</text><text fill="#000000" font-family="sans-serif" font-size="13" lengthAdjust="spacing" textLength="194.1304" x="666.5" y="426.1606">- Awaiting payment (optional)</text></g><g class="entity" data-entity="GMN8" data-source-line="69" data-uid="ent0009" id="entity_GMN8"><path d="M639,526.2969 L639,565.2969 L414.69,569.2969 L639,573.2969 L639,611.9609 A0,0 0 0 0 639,611.9609 L945.6128,611.9609 A0,0 0 0 0 945.6128,611.9609 L945.6128,536.2969 L935.6128,526.2969 L639,526.2969 A0,0 0 0 0 639,526.2969" fill="#FEFFDD" style="stroke:#181818;stroke-width:0.5;"/><path d="M935.6128,526.2969 L935.6128,536.2969 L945.6128,536.2969 L935.6128,526.2969" fill="#FEFFDD" style="stroke:#181818;stroke-width:0.5;"/><text fill="#000000" font-family="sans-serif" font-size="13" font-weight="bold" lengthAdjust="spacing" textLength="81.1675" x="645" y="543.3638">Paid State:</text><text fill="#000000" font-family="sans-serif" font-size="13" lengthAdjust="spacing" textLength="137.7314" x="645" y="558.4966">- Payment successful</text><text fill="#000000" font-family="sans-serif" font-size="13" lengthAdjust="spacing" textLength="145.8945" x="645" y="573.6294">- Transaction ID saved</text><text fill="#000000" font-family="sans-serif" font-size="13" lengthAdjust="spacing" textLength="202.0649" x="645" y="588.7622">- Can be modified (&gt; 24 hours)</text><text fill="#000000" font-family="sans-serif" font-size="13" lengthAdjust="spacing" textLength="285.6128" x="645" y="603.895">- Can be cancelled with refund (&gt; 48 hours)</text></g><g class="entity" data-entity="GMN11" data-source-line="77" data-uid="ent0012" id="entity_GMN11"><path d="M192.5,846.2969 L192.5,947.0938 L402.5015,947.0938 L402.5015,856.2969 L392.5015,846.2969 L192.5,846.2969" fill="#FEFFDD" style="stroke:#181818;stroke-width:0.5;"/><path d="M392.5015,846.2969 L392.5015,856.2969 L402.5015,856.2969 L392.5015,846.2969" fill="#FEFFDD" style="stroke:#181818;stroke-width:1;"/><text fill="#000000" font-family="sans-serif" font-size="13" font-weight="bold" lengthAdjust="spacing" textLength="120.231" x="198.5" y="863.3638">Cancelled State:</text><text fill="#000000" font-family="sans-serif" font-size="13" lengthAdjust="spacing" textLength="189.0015" x="198.5" y="878.4966">- Reserved capacity released</text><text fill="#000000" font-family="sans-serif" font-size="13" lengthAdjust="spacing" textLength="161.5669" x="198.5" y="893.6294">- Cancellation email sent</text><text fill="#000000" font-family="sans-serif" font-size="13" lengthAdjust="spacing" textLength="138.563" x="198.5" y="908.7622">- Logged in Audit Log</text><text fill="#000000" font-family="sans-serif" font-size="13" lengthAdjust="spacing" textLength="111.2554" x="198.5" y="923.895">- If paid &#8594; refund</text><text fill="#000000" font-family="sans-serif" font-size="13" lengthAdjust="spacing" textLength="142.0288" x="198.5" y="939.0278">- If not paid &#8594; archive</text></g><g class="entity" data-entity="GMN14" data-source-line="86" data-uid="ent0015" id="entity_GMN14"><path d="M823,853.7969 L823,939.4609 A0,0 0 0 0 823,939.4609 L1064.3652,939.4609 A0,0 0 0 0 1064.3652,939.4609 L1064.3652,863.7969 L1054.3652,853.7969 L926.16,853.7969 L871.71,754.3669 L918.16,853.7969 L823,853.7969 A0,0 0 0 0 823,853.7969" fill="#FEFFDD" style="stroke:#181818;stroke-width:0.5;"/><path d="M1054.3652,853.7969 L1054.3652,863.7969 L1064.3652,863.7969 L1054.3652,853.7969" fill="#FEFFDD" style="stroke:#181818;stroke-width:0.5;"/><text fill="#000000" font-family="sans-serif" font-size="13" font-weight="bold" lengthAdjust="spacing" textLength="128.0386" x="829" y="870.8638">Completed State:</text><text fill="#000000" font-family="sans-serif" font-size="13" lengthAdjust="spacing" textLength="147.5132" x="829" y="885.9966">- Visit date has passed</text><text fill="#000000" font-family="sans-serif" font-size="13" lengthAdjust="spacing" textLength="121.7607" x="829" y="901.1294">- Service delivered</text><text fill="#000000" font-family="sans-serif" font-size="13" lengthAdjust="spacing" textLength="220.3652" x="829" y="916.2622">- Cannot be modified or cancelled</text><text fill="#000000" font-family="sans-serif" font-size="13" lengthAdjust="spacing" textLength="136.0112" x="829" y="931.395">- Ready for archiving</text></g><g class="entity" data-entity="GMN17" data-source-line="94" data-uid="ent0018" id="entity_GMN17"><path d="M6,1024.2969 L6,1109.9609 A0,0 0 0 0 6,1109.9609 L220.521,1109.9609 A0,0 0 0 0 220.521,1109.9609 L220.521,1034.2969 L210.521,1024.2969 L117.5,1024.2969 L113.5,921.9369 L109.5,1024.2969 L6,1024.2969 A0,0 0 0 0 6,1024.2969" fill="#FEFFDD" style="stroke:#181818;stroke-width:0.5;"/><path d="M210.521,1024.2969 L210.521,1034.2969 L220.521,1034.2969 L210.521,1024.2969" fill="#FEFFDD" style="stroke:#181818;stroke-width:0.5;"/><text fill="#000000" font-family="sans-serif" font-size="13" font-weight="bold" lengthAdjust="spacing" textLength="119.5264" x="12" y="1041.3638">Refunded State:</text><text fill="#000000" font-family="sans-serif" font-size="13" lengthAdjust="spacing" textLength="125.7852" x="12" y="1056.4966">- Refund processed</text><text fill="#000000" font-family="sans-serif" font-size="13" lengthAdjust="spacing" textLength="193.521" x="12" y="1071.6294">- Refund transaction ID saved</text><text fill="#000000" font-family="sans-serif" font-size="13" lengthAdjust="spacing" textLength="164.6392" x="12" y="1086.7622">- Refund notification sent</text><text fill="#000000" font-family="sans-serif" font-size="13" lengthAdjust="spacing" textLength="136.0112" x="12" y="1101.895">- Ready for archiving</text></g><!--link *start* to Draft--><g class="link" data-entity-1=".start." data-entity-2="Draft" data-source-line="11" data-uid="lnk3" id="link_.start._Draft"><path d="M785.5,63.5069 C785.5,83.1069 785.5,123.5269 785.5,152.1869" fill="none" id="*start*-to-Draft" style="stroke:#000000;stroke-width:1;"/><polygon fill="#000000" points="785.5,158.1869,789.5,149.1869,785.5,153.1869,781.5,149.1869,785.5,158.1869" style="stroke:#000000;stroke-width:1;"/><text fill="#000000" font-family="sans-serif" font-size="13" lengthAdjust="spacing" textLength="126.7373" x="786.5" y="106.3638">User starts booking</text></g><!--link Draft to Confirmed--><g class="link" data-entity-1="Draft" data-entity-2="Confirmed" data-source-line="20" data-uid="lnk4" id="link_Draft_Confirmed"><path d="M757.34,197.8769 C690.02,230.3469 524.604,310.1299 441.604,350.1699" fill="none" id="Draft-to-Confirmed" style="stroke:#000000;stroke-width:1;"/><polygon fill="#000000" points="436.2,352.7769,446.044,352.4691,440.7034,350.6044,442.5681,345.2637,436.2,352.7769" style="stroke:#000000;stroke-width:1;"/><text fill="#000000" font-family="sans-serif" font-size="13" lengthAdjust="spacing" textLength="102.0386" x="649.3984" y="269.3638">Submit booking</text><text fill="#000000" font-family="sans-serif" font-size="13" lengthAdjust="spacing" textLength="127.8354" x="636.5" y="284.4966">[capacity available]</text></g><!--link Draft to *end*--><g class="link" data-entity-1="Draft" data-entity-2=".end." data-source-line="22" data-uid="lnk6" id="link_Draft_.end."><path d="M808.48,208.6369 C815.19,214.9069 822.79,221.2869 830.5,226.2969 C972.61,318.6269 1181.5,205.8269 1181.5,375.2969 C1181.5,375.2969 1181.5,375.2969 1181.5,897.7969 C1181.5,1026.9669 672.1205,1060.7401 589.5805,1065.3801" fill="none" id="Draft-to-*end*" style="stroke:#000000;stroke-width:1;"/><polygon fill="#000000" points="583.59,1065.7169,592.8003,1069.2054,588.5821,1065.4362,592.3513,1061.218,583.59,1065.7169" style="stroke:#000000;stroke-width:1;"/><text fill="#000000" font-family="sans-serif" font-size="13" lengthAdjust="spacing" textLength="97.4048" x="1182.5" y="662.8638">User abandons</text></g><!--link Confirmed to Paid--><g class="link" data-entity-1="Confirmed" data-entity-2="Paid" data-source-line="24" data-uid="lnk7" id="link_Confirmed_Paid"><path d="M389.5,401.4869 C389.5,438.1269 389.5,501.2969 389.5,538.0069" fill="none" id="Confirmed-to-Paid" style="stroke:#000000;stroke-width:1;"/><polygon fill="#000000" points="389.5,544.0069,393.5,535.0069,389.5,539.0069,385.5,535.0069,389.5,544.0069" style="stroke:#000000;stroke-width:1;"/><text fill="#000000" font-family="sans-serif" font-size="13" lengthAdjust="spacing" textLength="128.9082" x="420.1626" y="477.3638">Payment successful</text><text fill="#000000" font-family="sans-serif" font-size="13" lengthAdjust="spacing" textLength="188.2334" x="390.5" y="492.4966">[payment gateway confirms]</text></g><!--link Confirmed to Confirmed--><g class="link" data-entity-1="Confirmed" data-entity-2="Confirmed" data-source-line="26" data-uid="lnk8" id="link_Confirmed_Confirmed"><path d="M436.4,356.9169 C455.21,355.8169 471,362.2769 471,376.2969 C471,390.3169 461.1998,397.1272 442.3898,396.0272" fill="none" id="Confirmed-to-Confirmed" style="stroke:#000000;stroke-width:1;"/><polygon fill="#000000" points="436.4,395.6769,445.1511,400.1955,441.3915,395.9688,445.6182,392.2091,436.4,395.6769" style="stroke:#000000;stroke-width:1;"/><text fill="#000000" font-family="sans-serif" font-size="13" lengthAdjust="spacing" textLength="99.2266" x="507.1704" y="373.3638">Modify booking</text><text fill="#000000" font-family="sans-serif" font-size="13" lengthAdjust="spacing" textLength="159.5674" x="477" y="388.4966">[&gt; 24 hours before visit]</text></g><!--link Confirmed to Cancelled--><g class="link" data-entity-1="Confirmed" data-entity-2="Cancelled" data-source-line="28" data-uid="lnk9" id="link_Confirmed_Cancelled"><path d="M342.92,395.9369 C293.54,418.5269 218.27,461.7769 185.5,526.2969 C155.44,585.4769 187.582,659.6977 209.152,698.9777" fill="none" id="Confirmed-to-Cancelled" style="stroke:#000000;stroke-width:1;"/><polygon fill="#000000" points="212.04,704.2369,211.2141,694.4227,209.6333,699.8542,204.2018,698.2734,212.04,704.2369" style="stroke:#000000;stroke-width:1;"/><text fill="#000000" font-family="sans-serif" font-size="13" lengthAdjust="spacing" textLength="99.9629" x="216.3022" y="566.3638">Cancel booking</text><text fill="#000000" font-family="sans-serif" font-size="13" lengthAdjust="spacing" textLength="159.5674" x="186.5" y="581.4966">[&gt; 48 hours before visit]</text></g><!--link Confirmed to Cancelled--><g class="link" data-entity-1="Confirmed" data-entity-2="Cancelled" data-source-line="30" data-uid="lnk10" id="link_Confirmed_Cancelled"><path d="M342.76,382.5869 C267.64,393.8969 122.05,427.9969 58.5,526.2969 C37.75,558.3969 40.74,578.4469 58.5,612.2969 C84.27,661.4169 135.8272,691.4125 176.2772,709.1925" fill="none" id="Confirmed-to-Cancelled-1" style="stroke:#000000;stroke-width:1;"/><polygon fill="#000000" points="181.77,711.6069,175.1404,704.3234,177.1927,709.5949,171.9212,711.6472,181.77,711.6069" style="stroke:#000000;stroke-width:1;"/><text fill="#000000" font-family="sans-serif" font-size="13" lengthAdjust="spacing" textLength="94.6753" x="65.5334" y="566.3638">Admin cancels</text><text fill="#000000" font-family="sans-serif" font-size="13" lengthAdjust="spacing" textLength="106.7422" x="59.5" y="581.4966">[policy override]</text></g><!--link Confirmed to Completed--><g class="link" data-entity-1="Confirmed" data-entity-2="Completed" data-source-line="32" data-uid="lnk11" id="link_Confirmed_Completed"><path d="M436.36,387.8169 C570.41,418.1469 946.94,504.8969 963.5,526.2969 C1008.39,584.3269 937.6327,660.6787 893.1227,700.2787" fill="none" id="Confirmed-to-Completed" style="stroke:#000000;stroke-width:1;"/><polygon fill="#000000" points="888.64,704.2669,898.0228,701.2731,892.3756,700.9434,892.7052,695.2961,888.64,704.2669" style="stroke:#000000;stroke-width:1;"/><text fill="#000000" font-family="sans-serif" font-size="13" lengthAdjust="spacing" textLength="111.5791" x="978.5" y="566.3638">Visit date passed</text><text fill="#000000" font-family="sans-serif" font-size="13" lengthAdjust="spacing" textLength="110.0366" x="979.2712" y="581.4966">[visit completed]</text></g><!--link Paid to Paid--><g class="link" data-entity-1="Paid" data-entity-2="Paid" data-source-line="34" data-uid="lnk12" id="link_Paid_Paid"><path d="M414.78,554.4069 C432.27,549.8969 449.5,554.8569 449.5,569.2969 C449.5,583.7369 438.0799,590.195 420.5899,585.685" fill="none" id="Paid-to-Paid" style="stroke:#000000;stroke-width:1;"/><polygon fill="#000000" points="414.78,584.1869,422.4961,590.3074,419.6216,585.4353,424.4937,582.5608,414.78,584.1869" style="stroke:#000000;stroke-width:1;"/><text fill="#000000" font-family="sans-serif" font-size="13" lengthAdjust="spacing" textLength="99.2266" x="485.6704" y="566.3638">Modify booking</text><text fill="#000000" font-family="sans-serif" font-size="13" lengthAdjust="spacing" textLength="159.5674" x="455.5" y="581.4966">[&gt; 24 hours before visit]</text></g><!--link Paid to Cancelled--><g class="link" data-entity-1="Paid" data-entity-2="Cancelled" data-source-line="36" data-uid="lnk13" id="link_Paid_Cancelled"><path d="M364.28,594.2069 C356.22,600.8469 346.92,607.5269 337.5,612.2969 C290.75,635.9469 255.49,600.8069 223.5,642.2969 C210.09,659.6869 211.5357,679.6664 216.5057,698.4564" fill="none" id="Paid-to-Cancelled" style="stroke:#000000;stroke-width:1;"/><polygon fill="#000000" points="218.04,704.2569,219.6056,694.5333,216.7615,699.4231,211.8716,696.5789,218.04,704.2569" style="stroke:#000000;stroke-width:1;"/><text fill="#000000" font-family="sans-serif" font-size="13" lengthAdjust="spacing" textLength="99.9629" x="254.3022" y="655.3638">Cancel booking</text><text fill="#000000" font-family="sans-serif" font-size="13" lengthAdjust="spacing" textLength="159.5674" x="224.5" y="670.4966">[&gt; 48 hours before visit]</text></g><!--link Paid to Cancelled--><g class="link" data-entity-1="Paid" data-entity-2="Cancelled" data-source-line="38" data-uid="lnk14" id="link_Paid_Cancelled"><path d="M396.65,594.6469 C401.78,617.4569 405.19,651.3769 388.5,674.2969 C361.8,710.9669 315.12,722.4974 277.08,726.3174" fill="none" id="Paid-to-Cancelled-1" style="stroke:#000000;stroke-width:1;"/><polygon fill="#000000" points="271.11,726.9169,280.4646,729.9976,276.085,726.4173,279.6653,722.0376,271.11,726.9169" style="stroke:#000000;stroke-width:1;"/><text fill="#000000" font-family="sans-serif" font-size="13" lengthAdjust="spacing" textLength="94.6753" x="407.5334" y="655.3638">Admin cancels</text><text fill="#000000" font-family="sans-serif" font-size="13" lengthAdjust="spacing" textLength="106.7422" x="401.5" y="670.4966">[policy override]</text></g><!--link Paid to Completed--><g class="link" data-entity-1="Paid" data-entity-2="Completed" data-source-line="40" data-uid="lnk15" id="link_Paid_Completed"><path d="M414.77,578.7869 C489.89,604.0469 707.0728,677.055 805.8028,710.245" fill="none" id="Paid-to-Completed" style="stroke:#000000;stroke-width:1;"/><polygon fill="#000000" points="811.49,712.1569,804.2337,705.4976,806.7506,710.5636,801.6846,713.0806,811.49,712.1569" style="stroke:#000000;stroke-width:1;"/><text fill="#000000" font-family="sans-serif" font-size="13" lengthAdjust="spacing" textLength="111.5791" x="695.5" y="655.3638">Visit date passed</text><text fill="#000000" font-family="sans-serif" font-size="13" lengthAdjust="spacing" textLength="110.0366" x="696.2712" y="670.4966">[visit completed]</text></g><!--link Cancelled to Refunded--><g class="link" data-entity-1="Cancelled" data-entity-2="Refunded" data-source-line="42" data-uid="lnk16" id="link_Cancelled_Refunded"><path d="M181.81,743.0269 C160.96,751.3269 137.84,764.4169 124.5,784.2969 C107.16,810.1369 106.5803,841.2679 109.0503,865.4479" fill="none" id="Cancelled-to-Refunded" style="stroke:#000000;stroke-width:1;"/><polygon fill="#000000" points="109.66,871.4169,112.7247,862.057,109.1519,866.4428,104.7661,862.87,109.66,871.4169" style="stroke:#000000;stroke-width:1;"/><text fill="#000000" font-family="sans-serif" font-size="13" lengthAdjust="spacing" textLength="116.9619" x="136.3037" y="797.3638">Refund processed</text><text fill="#000000" font-family="sans-serif" font-size="13" lengthAdjust="spacing" textLength="138.5693" x="125.5" y="812.4966">[payment was made]</text></g><!--link Cancelled to *end*--><g class="link" data-entity-1="Cancelled" data-entity-2=".end." data-source-line="44" data-uid="lnk17" id="link_Cancelled_.end."><path d="M271.33,750.0169 C313.12,769.9569 375.43,803.8569 419.5,846.2969 C458.12,883.4969 455,903.1969 485.5,947.2969 C514.76,989.6069 548.0909,1034.0513 562.6109,1053.2513" fill="none" id="Cancelled-to-*end*" style="stroke:#000000;stroke-width:1;"/><polygon fill="#000000" points="566.23,1058.0369,563.9917,1048.4457,563.2141,1054.0489,557.6109,1053.2712,566.23,1058.0369" style="stroke:#000000;stroke-width:1;"/><text fill="#000000" font-family="sans-serif" font-size="13" lengthAdjust="spacing" textLength="117.3301" x="492.5303" y="893.8638">No refund needed</text><text fill="#000000" font-family="sans-serif" font-size="13" lengthAdjust="spacing" textLength="129.3906" x="486.5" y="908.9966">[no payment made]</text></g><!--link Refunded to *end*--><g class="link" data-entity-1="Refunded" data-entity-2=".end." data-source-line="46" data-uid="lnk18" id="link_Refunded_.end."><path d="M138.62,921.9069 C149.06,930.8969 161.72,940.5469 174.5,947.2969 C317.01,1022.6069 508.1237,1056.1794 555.8537,1063.7294" fill="none" id="Refunded-to-*end*" style="stroke:#000000;stroke-width:1;"/><polygon fill="#000000" points="561.78,1064.6669,553.5155,1059.3098,556.8414,1063.8857,552.2656,1067.2116,561.78,1064.6669" style="stroke:#000000;stroke-width:1;"/><text fill="#000000" font-family="sans-serif" font-size="13" lengthAdjust="spacing" textLength="112.8423" x="280.5" y="990.3638">Booking archived</text></g><!--link Completed to *end*--><g class="link" data-entity-1="Completed" data-entity-2=".end." data-source-line="48" data-uid="lnk19" id="link_Completed_.end."><path d="M812.99,754.3869 C776.52,775.0169 726.29,807.5169 691.5,846.2969 C629.16,915.7969 589.6194,1018.0869 577.8994,1050.8769" fill="none" id="Completed-to-*end*" style="stroke:#000000;stroke-width:1;"/><polygon fill="#000000" points="575.88,1056.5269,582.6758,1049.3982,577.5629,1051.8186,575.1425,1046.7057,575.88,1056.5269" style="stroke:#000000;stroke-width:1;"/><text fill="#000000" font-family="sans-serif" font-size="13" lengthAdjust="spacing" textLength="112.8423" x="692.5" y="901.3638">Booking archived</text></g><!--link Cancelled to GMN11--><g class="link" data-entity-1="Cancelled" data-entity-2="GMN11" data-source-line="77" data-uid="lnk13" id="link_Cancelled_GMN11"><path d="M251.52,754.5469 C259.27,763.2669 267.16,773.6069 272.5,784.2969 C282.03,803.3769 287.96,826.0969 291.64,846.0269" fill="none" id="Cancelled-GMN11" style="stroke:#000000;stroke-width:1;stroke-dasharray:7,7;"/></g><g class="legend" data-source-line="101"><rect fill="#DDDDDD" height="156.6719" rx="7.5" ry="7.5" style="stroke:#000000;stroke-width:1;" width="279.5068" x="982.3979" y="1127.9609"/><text fill="#000000" font-family="sans-serif" font-size="14" font-weight="bold" lengthAdjust="spacing" textLength="94.0078" x="987.3979" y="1145.9561">Transitions:</text><text fill="#000000" font-family="sans-serif" font-size="14" lengthAdjust="spacing" textLength="209.918" x="987.3979" y="1162.2529">&#8226; Black line: normal transition</text><text fill="#000000" font-family="sans-serif" font-size="14" lengthAdjust="spacing" textLength="233.4063" x="987.3979" y="1178.5498">&#8226; [condition]: transition condition</text><text fill="#000000" font-family="sans-serif" font-size="14" lengthAdjust="spacing" textLength="173.9268" x="987.3979" y="1194.8467">&#8226; (text): triggering event</text><text fill="#000000" font-family="sans-serif" font-size="14" lengthAdjust="spacing" textLength="4.4502" x="987.3979" y="1211.1436">&#160;</text><text fill="#000000" font-family="sans-serif" font-size="14" font-weight="bold" lengthAdjust="spacing" textLength="139.9316" x="987.3979" y="1227.4404">Time Constraints:</text><text fill="#000000" font-family="sans-serif" font-size="14" lengthAdjust="spacing" textLength="268.126" x="987.3979" y="1243.7373">&#8226; Modification: &gt; 24 hours before visit</text><text fill="#000000" font-family="sans-serif" font-size="14" lengthAdjust="spacing" textLength="269.5068" x="987.3979" y="1260.0342">&#8226; Cancellation: &gt; 48 hours before visit</text><text fill="#000000" font-family="sans-serif" font-size="14" lengthAdjust="spacing" textLength="209.8906" x="987.3979" y="1276.3311">&#8226; Admin override: at any time</text></g><!--SRC=[dLRDRXCn4BxlKumujP5wGHnG3fNwWr0bG5KBN4eF4-_inghNZcmdOOMGEF40F0AFnfCm_jlTj6bHkMLdvXj_ttXc77SdzGejTk0yUe9l5S0fYhlMchMkpumo5jx9TkbFrPg2pzYQRBAVextBvXDhpJPPJnN3sNJjqVfaUck9D9lUb8nNL5VVgyfBhmXcirDZc4RB1pKaUi6swqZcN6BBr6QpghgPtSBHqJ6SMsmypE6J8nieM-zWaU1LbIIyY34l05sABkOpenjfEwgZQ_WgxakKoHD-Z9XkfSWFcFmrk54BKgguorTnNr73HSpUyb5LIKDGCv1WHTVhHITz4VD5tmXSeP2-1zoWLBXGT3l5XehaEk02TMsqgwenOGW9IZZc4lkEj0Ut5eASQzQAiw-oiMMcM-n19AIxlPzaol6zgMNJJpWUmyjNi3HhoxT0ZR446-caVvYab8QJfDyxILwzVcwIaxgJ6aIqk237A2bwC1koLjQqHqM-EiP-3jcX3bUqGkUePdmyaOkGenWVYpUfuZEq3z3_bBqN_s_58-pPOiU30hwqAiFJJrXP4redealdRBcfEqorte6dplnWm2Qm9geZKXieu0mSJXfnPHcW5Kkv2VCoodagIXkMQCEg0jFaoGTUBcbYuaAPyoO1EEB5nQ4yCk1bH-18aGX37LmVZ2-ZmEVrvAELzV4TGHTQGBAzuOMc-kXwpxF3hZo2d8M2OkPodz6uS0AhiJjtc9sLcRV4Wxt9fBXAP8bB37hTBNZWMz9aiN3EkT1Beu4wNXQiIUzdVZ1sxU4qG0mtU33sPOeusQBqeTRbxWxCAXo5wl1HiN671fsn9tSaFjn6qVpHedOeeeQBSt1On3zVmLRwPUcz7JNts2wCzwQBTpDixdWtGwOTubVvIa2CbwG8tSWpeFRUmZlJjWpa-JrPrpnw_1tj5mqNbGlqv-UlJBYOcU3eoat-1F_XOKgzLUPbX_za4onvTDCsY9vhrYMvksfIV8mT1GKMqzhpqoqcfGermRe7NbwPOtY67sKvl821v33vzsgykswcHlzOXsG_dyOiHRg0eVHFCrJKXe_Ojv5MR4CPKhZ4wS-Ft-al3IYfQSuudZILoCIu77F3MwEEXjlvn0k3ESSTUFhg3qE8v9wmOQveayWc0c4byKGxpY6rdx283r3MDuT7NfySEst64BltfScnwM4fxyWSqFDkxEDkZ9LADVeB]--></g></svg>