<svg xmlns="http://www.w3.org/2000/svg" xmlns:xlink="http://www.w3.org/1999/xlink" contentStyleType="text/css" data-diagram-type="STATE" height="1502px" preserveAspectRatio="none" style="width:1090px;height:1502px;background:#FFFFFF;" version="1.1" viewBox="0 0 1090 1502" width="1090px" zoomAndPan="magnify"><title>**Content Moderation State Diagram**</title><defs/><g><g class="title" data-source-line="9"><text fill="#000000" font-family="sans-serif" font-size="14" font-weight="bold" lengthAdjust="spacing" textLength="277.0605" x="399.5754" y="22.9951">Content Moderation State Diagram</text></g><g id="Draft"><rect fill="#F5DEB3" height="50" rx="12.5" ry="12.5" style="stroke:#A52A2A;stroke-width:0.5;" width="55.5332" x="7" y="165.7969"/><line style="stroke:#A52A2A;stroke-width:0.5;" x1="7" x2="62.5332" y1="192.0938" y2="192.0938"/><text fill="#000000" font-family="sans-serif" font-size="14" lengthAdjust="spacing" textLength="35.5332" x="17" y="183.792">Draft</text></g><g id="Active"><rect fill="#F5DEB3" height="50" rx="12.5" ry="12.5" style="stroke:#A52A2A;stroke-width:0.5;" width="63.5518" x="358" y="366.2969"/><line style="stroke:#A52A2A;stroke-width:0.5;" x1="358" x2="421.5518" y1="392.5938" y2="392.5938"/><text fill="#000000" font-family="sans-serif" font-size="14" lengthAdjust="spacing" textLength="43.5518" x="368" y="384.292">Active</text></g><g id="Inactive"><rect fill="#F5DEB3" height="50" rx="12.5" ry="12.5" style="stroke:#A52A2A;stroke-width:0.5;" width="75.5557" x="316" y="738.7969"/><line style="stroke:#A52A2A;stroke-width:0.5;" x1="316" x2="391.5557" y1="765.0938" y2="765.0938"/><text fill="#000000" font-family="sans-serif" font-size="14" lengthAdjust="spacing" textLength="55.5557" x="326" y="756.792">Inactive</text></g><g id="Review"><rect fill="#F5DEB3" height="50" rx="12.5" ry="12.5" style="stroke:#A52A2A;stroke-width:0.5;" width="117.4053" x="658.5" y="541.2969"/><line style="stroke:#A52A2A;stroke-width:0.5;" x1="658.5" x2="775.9053" y1="567.5938" y2="567.5938"/><text fill="#000000" font-family="sans-serif" font-size="14" lengthAdjust="spacing" textLength="97.4053" x="668.5" y="559.292">Under Review</text></g><g id="Archived"><rect fill="#F5DEB3" height="50" rx="12.5" ry="12.5" style="stroke:#A52A2A;stroke-width:0.5;" width="81.5781" x="235" y="936.2969"/><line style="stroke:#A52A2A;stroke-width:0.5;" x1="235" x2="316.5781" y1="962.5938" y2="962.5938"/><text fill="#000000" font-family="sans-serif" font-size="14" lengthAdjust="spacing" textLength="61.5781" x="245" y="954.292">Archived</text></g><ellipse cx="35" cy="53.2969" fill="#222222" rx="10" ry="10" style="stroke:#222222;stroke-width:1;"/><ellipse cx="178" cy="1136.2969" fill="none" rx="11" ry="11" style="stroke:#222222;stroke-width:1;"/><ellipse cx="178" cy="1136.2969" fill="#222222" rx="6" ry="6" style="stroke:#222222;stroke-width:1;"/><g class="entity" data-entity="GMN2" data-source-line="46" data-uid="ent0003" id="entity_GMN2"><path d="M272,140.2969 L272,186.7969 L63.22,190.7969 L272,194.7969 L272,241.0938 A0,0 0 0 0 272,241.0938 L485.6196,241.0938 A0,0 0 0 0 485.6196,241.0938 L485.6196,150.2969 L475.6196,140.2969 L272,140.2969 A0,0 0 0 0 272,140.2969" fill="#FEFFDD" style="stroke:#181818;stroke-width:0.5;"/><path d="M475.6196,140.2969 L475.6196,150.2969 L485.6196,150.2969 L475.6196,140.2969" fill="#FEFFDD" style="stroke:#181818;stroke-width:0.5;"/><text fill="#000000" font-family="sans-serif" font-size="13" font-weight="bold" lengthAdjust="spacing" textLength="86.9502" x="278" y="157.3638">Draft State:</text><text fill="#000000" font-family="sans-serif" font-size="13" lengthAdjust="spacing" textLength="154.9463" x="278" y="172.4966">- Content being created</text><text fill="#000000" font-family="sans-serif" font-size="13" lengthAdjust="spacing" textLength="133.7261" x="278" y="187.6294">- Not visible to users</text><text fill="#000000" font-family="sans-serif" font-size="13" lengthAdjust="spacing" textLength="141.1846" x="278" y="202.7622">- Can be edited freely</text><text fill="#000000" font-family="sans-serif" font-size="13" lengthAdjust="spacing" textLength="130.5776" x="278" y="217.895">- Auto-save enabled</text><text fill="#000000" font-family="sans-serif" font-size="13" lengthAdjust="spacing" textLength="192.6196" x="278" y="233.0278">- Can be published or deleted</text></g><g class="entity" data-entity="GMN5" data-source-line="55" data-uid="ent0006" id="entity_GMN5"><path d="M643.5,333.2969 L643.5,387.2969 L422.25,391.2969 L643.5,395.2969 L643.5,449.2266 A0,0 0 0 0 643.5,449.2266 L878.0161,449.2266 A0,0 0 0 0 878.0161,449.2266 L878.0161,343.2969 L868.0161,333.2969 L643.5,333.2969 A0,0 0 0 0 643.5,333.2969" fill="#FEFFDD" style="stroke:#181818;stroke-width:0.5;"/><path d="M868.0161,333.2969 L868.0161,343.2969 L878.0161,343.2969 L868.0161,333.2969" fill="#FEFFDD" style="stroke:#181818;stroke-width:0.5;"/><text fill="#000000" font-family="sans-serif" font-size="13" font-weight="bold" lengthAdjust="spacing" textLength="94.834" x="649.5" y="350.3638">Active State:</text><text fill="#000000" font-family="sans-serif" font-size="13" lengthAdjust="spacing" textLength="127.8862" x="649.5" y="365.4966">- Content published</text><text fill="#000000" font-family="sans-serif" font-size="13" lengthAdjust="spacing" textLength="108.0181" x="649.5" y="380.6294">- Visible to users</text><text fill="#000000" font-family="sans-serif" font-size="13" lengthAdjust="spacing" textLength="173.856" x="649.5" y="395.7622">- Appears in search results</text><text fill="#000000" font-family="sans-serif" font-size="13" lengthAdjust="spacing" textLength="99.8296" x="649.5" y="410.895">- Can be edited</text><text fill="#000000" font-family="sans-serif" font-size="13" lengthAdjust="spacing" textLength="213.5161" x="649.5" y="426.0278">- Can be deactivated or archived</text><text fill="#000000" font-family="sans-serif" font-size="13" lengthAdjust="spacing" textLength="195.3936" x="649.5" y="441.1606">- Track views and interactions</text></g><g class="entity" data-entity="GMN8" data-source-line="65" data-uid="ent0009" id="entity_GMN8"><path d="M427,683.2969 L427,759.7969 L392.24,763.7969 L427,767.7969 L427,844.625 A0,0 0 0 0 427,844.625 L647.0435,844.625 A0,0 0 0 0 647.0435,844.625 L647.0435,693.2969 L637.0435,683.2969 L427,683.2969 A0,0 0 0 0 427,683.2969" fill="#FEFFDD" style="stroke:#181818;stroke-width:0.5;"/><path d="M637.0435,683.2969 L637.0435,693.2969 L647.0435,693.2969 L637.0435,683.2969" fill="#FEFFDD" style="stroke:#181818;stroke-width:0.5;"/><text fill="#000000" font-family="sans-serif" font-size="13" font-weight="bold" lengthAdjust="spacing" textLength="107.6372" x="433" y="700.3638">Inactive State:</text><text fill="#000000" font-family="sans-serif" font-size="13" lengthAdjust="spacing" textLength="199.0435" x="433" y="715.4966">- Content temporarily disabled</text><text fill="#000000" font-family="sans-serif" font-size="13" lengthAdjust="spacing" textLength="133.7261" x="433" y="730.6294">- Not visible to users</text><text fill="#000000" font-family="sans-serif" font-size="13" lengthAdjust="spacing" textLength="180.4766" x="433" y="745.7622">- Does not appear in search</text><text fill="#000000" font-family="sans-serif" font-size="13" lengthAdjust="spacing" textLength="109.6494" x="433" y="760.895">- Data preserved</text><text fill="#000000" font-family="sans-serif" font-size="13" lengthAdjust="spacing" textLength="132.793" x="433" y="776.0278">- Can be reactivated</text><text fill="#000000" font-family="sans-serif" font-size="13" lengthAdjust="spacing" textLength="174.7129" x="433" y="791.1606">- Reasons for deactivation:</text><text fill="#000000" font-family="sans-serif" font-size="13" lengthAdjust="spacing" textLength="117.3682" x="441.2646" y="806.2935">&#8226; Linked bookings</text><text fill="#000000" font-family="sans-serif" font-size="13" lengthAdjust="spacing" textLength="127.3721" x="441.2646" y="821.4263">&#8226; Upcoming update</text><text fill="#000000" font-family="sans-serif" font-size="13" lengthAdjust="spacing" textLength="110.9697" x="441.2646" y="836.5591">&#8226; Periodic review</text></g><g class="entity" data-entity="GMN11" data-source-line="78" data-uid="ent0012" id="entity_GMN11"><path d="M894.5,698.2969 L894.5,829.3594 A0,0 0 0 0 894.5,829.3594 L1083.2114,829.3594 A0,0 0 0 0 1083.2114,829.3594 L1083.2114,708.2969 L1073.2114,698.2969 L903.17,698.2969 L750.63,591.4669 L895.17,698.2969 L894.5,698.2969 A0,0 0 0 0 894.5,698.2969" fill="#FEFFDD" style="stroke:#181818;stroke-width:0.5;"/><path d="M1073.2114,698.2969 L1073.2114,708.2969 L1083.2114,708.2969 L1073.2114,698.2969" fill="#FEFFDD" style="stroke:#181818;stroke-width:0.5;"/><text fill="#000000" font-family="sans-serif" font-size="13" font-weight="bold" lengthAdjust="spacing" textLength="150.5601" x="900.5" y="715.3638">Under Review State:</text><text fill="#000000" font-family="sans-serif" font-size="13" lengthAdjust="spacing" textLength="150.1411" x="900.5" y="730.4966">- Content under review</text><text fill="#000000" font-family="sans-serif" font-size="13" lengthAdjust="spacing" textLength="106.2661" x="900.5" y="745.6294">- May be due to:</text><text fill="#000000" font-family="sans-serif" font-size="13" lengthAdjust="spacing" textLength="100.4453" x="908.7646" y="760.7622">&#8226; Quality check</text><text fill="#000000" font-family="sans-serif" font-size="13" lengthAdjust="spacing" textLength="110.1064" x="908.7646" y="775.895">&#8226; User complaint</text><text fill="#000000" font-family="sans-serif" font-size="13" lengthAdjust="spacing" textLength="110.9697" x="908.7646" y="791.0278">&#8226; Periodic review</text><text fill="#000000" font-family="sans-serif" font-size="13" lengthAdjust="spacing" textLength="158.3105" x="900.5" y="806.1606">- Temporarily not visible</text><text fill="#000000" font-family="sans-serif" font-size="13" lengthAdjust="spacing" textLength="167.7114" x="900.5" y="821.2935">- Awaiting admin decision</text></g><g class="entity" data-entity="GMN14" data-source-line="89" data-uid="ent0015" id="entity_GMN14"><path d="M224,1078.2969 L224,1194.2266 L526.4741,1194.2266 L526.4741,1088.2969 L516.4741,1078.2969 L224,1078.2969" fill="#FEFFDD" style="stroke:#181818;stroke-width:0.5;"/><path d="M516.4741,1078.2969 L516.4741,1088.2969 L526.4741,1088.2969 L516.4741,1078.2969" fill="#FEFFDD" style="stroke:#181818;stroke-width:1;"/><text fill="#000000" font-family="sans-serif" font-size="13" font-weight="bold" lengthAdjust="spacing" textLength="113.5913" x="230" y="1095.3638">Archived State:</text><text fill="#000000" font-family="sans-serif" font-size="13" lengthAdjust="spacing" textLength="120.9102" x="230" y="1110.4966">- Content archived</text><text fill="#000000" font-family="sans-serif" font-size="13" lengthAdjust="spacing" textLength="147.0117" x="230" y="1125.6294">- Permanently inactive</text><text fill="#000000" font-family="sans-serif" font-size="13" lengthAdjust="spacing" textLength="184.6025" x="230" y="1140.7622">- Data preserved for records</text><text fill="#000000" font-family="sans-serif" font-size="13" lengthAdjust="spacing" textLength="154.083" x="230" y="1155.895">- Cannot be reactivated</text><text fill="#000000" font-family="sans-serif" font-size="13" lengthAdjust="spacing" textLength="281.4741" x="230" y="1171.0278">- Permanent deletion after retention period</text><text fill="#000000" font-family="sans-serif" font-size="13" lengthAdjust="spacing" textLength="188.938" x="230" y="1186.1606">- Used for historical statistics</text></g><!--link *start* to Draft--><g class="link" data-entity-1=".start." data-entity-2="Draft" data-source-line="11" data-uid="lnk3" id="link_.start._Draft"><path d="M35,63.6069 C35,84.4169 35,129.2369 35,159.6569" fill="none" id="*start*-to-Draft" style="stroke:#000000;stroke-width:1;"/><polygon fill="#000000" points="35,165.6569,39,156.6569,35,160.6569,31,156.6569,35,165.6569" style="stroke:#000000;stroke-width:1;"/><text fill="#000000" font-family="sans-serif" font-size="13" lengthAdjust="spacing" textLength="148.021" x="36" y="106.3638">Admin creates content</text></g><!--link Draft to Active--><g class="link" data-entity-1="Draft" data-entity-2="Active" data-source-line="19" data-uid="lnk4" id="link_Draft_Active"><path d="M63.15,207.5369 C128.26,243.9469 283.6729,330.8489 352.5529,369.3589" fill="none" id="Draft-to-Active" style="stroke:#000000;stroke-width:1;"/><polygon fill="#000000" points="357.79,372.2869,351.8864,364.4035,353.4258,369.8469,347.9824,371.3863,357.79,372.2869" style="stroke:#000000;stroke-width:1;"/><text fill="#000000" font-family="sans-serif" font-size="13" lengthAdjust="spacing" textLength="100.4707" x="263.3928" y="284.3638">Publish content</text><text fill="#000000" font-family="sans-serif" font-size="13" lengthAdjust="spacing" textLength="159.2563" x="234" y="299.4966">[all required fields filled]</text></g><!--link Draft to Draft--><g class="link" data-entity-1="Draft" data-entity-2="Draft" data-source-line="21" data-uid="lnk5" id="link_Draft_Draft"><path d="M63.18,175.5269 C80.97,171.6969 98,176.7869 98,190.7969 C98,204.8069 86.8356,211.1597 69.0456,207.3297" fill="none" id="Draft-to-Draft" style="stroke:#000000;stroke-width:1;"/><polygon fill="#000000" points="63.18,206.0669,71.1365,211.8715,68.068,207.1192,72.8203,204.0507,63.18,206.0669" style="stroke:#000000;stroke-width:1;"/><text fill="#000000" font-family="sans-serif" font-size="13" lengthAdjust="spacing" textLength="67.2788" x="142.7461" y="187.8638">Save draft</text><text fill="#000000" font-family="sans-serif" font-size="13" lengthAdjust="spacing" textLength="144.771" x="104" y="202.9966">[auto-save or manual]</text></g><!--link Draft to Archived--><g class="link" data-entity-1="Draft" data-entity-2="Archived" data-source-line="23" data-uid="lnk6" id="link_Draft_Archived"><path d="M29.13,216.0769 C20.66,253.3269 6,326.9069 6,390.2969 C6,390.2969 6,390.2969 6,764.7969 C6,876.4869 153.6601,929.3503 229.1901,949.3603" fill="none" id="Draft-to-Archived" style="stroke:#000000;stroke-width:1;"/><polygon fill="#000000" points="234.99,950.8969,227.3145,944.7254,230.1567,949.6164,225.2658,952.4586,234.99,950.8969" style="stroke:#000000;stroke-width:1;"/><text fill="#000000" font-family="sans-serif" font-size="13" lengthAdjust="spacing" textLength="84.4746" x="33.9299" y="563.3638">Discard draft</text><text fill="#000000" font-family="sans-serif" font-size="13" lengthAdjust="spacing" textLength="138.3345" x="7" y="578.4966">[delete permanently]</text></g><!--link Active to Active--><g class="link" data-entity-1="Active" data-entity-2="Active" data-source-line="25" data-uid="lnk7" id="link_Active_Active"><path d="M422.06,372.7969 C440.2,369.1869 457,375.3469 457,391.2969 C457,407.2469 446.0846,414.578 427.9446,410.968" fill="none" id="Active-to-Active" style="stroke:#000000;stroke-width:1;"/><polygon fill="#000000" points="422.06,409.7969,430.1062,415.4766,426.9638,410.7728,431.6676,407.6304,422.06,409.7969" style="stroke:#000000;stroke-width:1;"/><text fill="#000000" font-family="sans-serif" font-size="13" lengthAdjust="spacing" textLength="100.9849" x="490.6917" y="388.3638">Update content</text><text fill="#000000" font-family="sans-serif" font-size="13" lengthAdjust="spacing" textLength="156.3682" x="463" y="403.4966">[edit published content]</text></g><!--link Active to Inactive--><g class="link" data-entity-1="Active" data-entity-2="Inactive" data-source-line="27" data-uid="lnk8" id="link_Active_Inactive"><path d="M373.11,416.4469 C354.39,444.8069 325.36,494.0069 314,541.2969 C308.81,562.9069 308.33,569.8069 314,591.2969 C317.91,606.1169 325.91,606.8369 331,621.2969 C344.96,660.9769 350.0597,703.9438 352.2197,732.6438" fill="none" id="Active-to-Inactive" style="stroke:#000000;stroke-width:1;"/><polygon fill="#000000" points="352.67,738.6269,355.9833,729.3521,352.2948,733.641,348.0058,729.9525,352.67,738.6269" style="stroke:#000000;stroke-width:1;"/><text fill="#000000" font-family="sans-serif" font-size="13" lengthAdjust="spacing" textLength="70.5859" x="347.6174" y="563.3638">Deactivate</text><text fill="#000000" font-family="sans-serif" font-size="13" lengthAdjust="spacing" textLength="135.8208" x="315" y="578.4966">[temporary removal]</text></g><!--link Inactive to Active--><g class="link" data-entity-1="Inactive" data-entity-2="Active" data-source-line="33" data-uid="lnk11" id="link_Inactive_Active"><path d="M370.42,738.6169 C396.79,699.1969 446.53,622.3869 455,591.2969 C472.4,527.4769 435.5149,458.818 410.8249,421.568" fill="none" id="Inactive-to-Active" style="stroke:#000000;stroke-width:1;"/><polygon fill="#000000" points="407.51,416.5669,409.1482,426.2785,410.2724,420.7345,415.8164,421.8587,407.51,416.5669" style="stroke:#000000;stroke-width:1;"/><text fill="#000000" font-family="sans-serif" font-size="13" lengthAdjust="spacing" textLength="69.6084" x="479.4937" y="563.3638">Reactivate</text><text fill="#000000" font-family="sans-serif" font-size="13" lengthAdjust="spacing" textLength="108.5957" x="460" y="578.4966">[admin decision]</text></g><!--link Active to Review--><g class="link" data-entity-1="Active" data-entity-2="Review" data-source-line="29" data-uid="lnk9" id="link_Active_Review"><path d="M422.05,413.5269 C447.29,430.5869 483.09,455.5469 513,479.2969 C529.76,492.6069 530.41,500.6869 549,511.2969 C582.92,530.6669 618.921,542.6351 652.341,551.2751" fill="none" id="Active-to-Review" style="stroke:#000000;stroke-width:1;"/><polygon fill="#000000" points="658.15,552.7769,650.4377,546.6515,653.3092,551.5254,648.4353,554.3969,658.15,552.7769" style="stroke:#000000;stroke-width:1;"/><text fill="#000000" font-family="sans-serif" font-size="13" lengthAdjust="spacing" textLength="96.7256" x="593.0942" y="492.3638">Flag for review</text><text fill="#000000" font-family="sans-serif" font-size="13" lengthAdjust="spacing" textLength="182.9141" x="550" y="507.4966">[quality check or complaint]</text></g><!--link Review to Active--><g class="link" data-entity-1="Review" data-entity-2="Active" data-source-line="37" data-uid="lnk13" id="link_Review_Active"><path d="M732.53,541.0769 C742.33,522.4369 750.77,496.9369 737,479.2969 C734.52,476.1169 513.3708,422.2218 427.9008,401.4818" fill="none" id="Review-to-Active" style="stroke:#000000;stroke-width:1;"/><polygon fill="#000000" points="422.07,400.0669,429.8729,406.0764,426.929,401.2459,431.7594,398.302,422.07,400.0669" style="stroke:#000000;stroke-width:1;"/><text fill="#000000" font-family="sans-serif" font-size="13" lengthAdjust="spacing" textLength="54.3867" x="769.5908" y="492.3638">Approve</text><text fill="#000000" font-family="sans-serif" font-size="13" lengthAdjust="spacing" textLength="103.5684" x="745" y="507.4966">[review passed]</text></g><!--link Active to Archived--><g class="link" data-entity-1="Active" data-entity-2="Archived" data-source-line="31" data-uid="lnk10" id="link_Active_Archived"><path d="M357.91,416.4769 C310.9,454.1569 225.29,531.9069 192,621.2969 C149.47,735.5069 222.3755,874.2407 257.0155,930.7807" fill="none" id="Active-to-Archived" style="stroke:#000000;stroke-width:1;"/><polygon fill="#000000" points="260.15,935.8969,258.859,926.133,257.5379,931.6334,252.0375,930.3123,260.15,935.8969" style="stroke:#000000;stroke-width:1;"/><text fill="#000000" font-family="sans-serif" font-size="13" lengthAdjust="spacing" textLength="102.832" x="206.5586" y="634.3638">Archive content</text><text fill="#000000" font-family="sans-serif" font-size="13" lengthAdjust="spacing" textLength="129.9492" x="193" y="649.4966">[no longer relevant]</text></g><!--link Inactive to Archived--><g class="link" data-entity-1="Inactive" data-entity-2="Archived" data-source-line="35" data-uid="lnk12" id="link_Inactive_Archived"><path d="M344.28,789.1569 C329.25,826.8269 302.773,893.1839 287.823,930.6639" fill="none" id="Inactive-to-Archived" style="stroke:#000000;stroke-width:1;"/><polygon fill="#000000" points="285.6,936.2369,292.6498,929.3593,287.4525,931.5927,285.2191,926.3954,285.6,936.2369" style="stroke:#000000;stroke-width:1;"/><text fill="#000000" font-family="sans-serif" font-size="13" lengthAdjust="spacing" textLength="104.4253" x="319.1563" y="887.3638">Archive inactive</text><text fill="#000000" font-family="sans-serif" font-size="13" lengthAdjust="spacing" textLength="124.7378" x="309" y="902.4966">[no longer needed]</text></g><!--link Review to Inactive--><g class="link" data-entity-1="Review" data-entity-2="Inactive" data-source-line="39" data-uid="lnk14" id="link_Review_Inactive"><path d="M658.15,579.8169 C624.73,588.4569 582.92,601.9269 549,621.2969 C530.41,631.9069 531.73,642.9369 513,653.2969 C471.27,676.3669 448.8,655.5869 410,683.2969 C390.22,697.4269 377.8116,715.5324 368.2616,733.2924" fill="none" id="Review-to-Inactive" style="stroke:#000000;stroke-width:1;"/><polygon fill="#000000" points="365.42,738.5769,373.2053,732.5446,367.788,734.1732,366.1594,728.7558,365.42,738.5769" style="stroke:#000000;stroke-width:1;"/><text fill="#000000" font-family="sans-serif" font-size="13" lengthAdjust="spacing" textLength="40.8853" x="600.0544" y="634.3638">Reject</text><text fill="#000000" font-family="sans-serif" font-size="13" lengthAdjust="spacing" textLength="140.9941" x="550" y="649.4966">[needs modifications]</text></g><!--link Review to Archived--><g class="link" data-entity-1="Review" data-entity-2="Archived" data-source-line="41" data-uid="lnk15" id="link_Review_Archived"><path d="M720.11,591.6169 C725.44,644.6969 730.17,771.9469 665,844.2969 C573.49,945.8769 403.2796,960.0464 323.2996,960.9864" fill="none" id="Review-to-Archived" style="stroke:#000000;stroke-width:1;"/><polygon fill="#000000" points="317.3,961.0569,326.3464,964.9508,322.2997,960.9981,326.2524,956.9514,317.3,961.0569" style="stroke:#000000;stroke-width:1;"/><text fill="#000000" font-family="sans-serif" font-size="13" lengthAdjust="spacing" textLength="140.5752" x="722" y="760.8638">Remove permanently</text><text fill="#000000" font-family="sans-serif" font-size="13" lengthAdjust="spacing" textLength="113.9404" x="735.3174" y="775.9966">[violates policies]</text></g><!--link Archived to *end*--><g class="link" data-entity-1="Archived" data-entity-2=".end." data-source-line="43" data-uid="lnk17" id="link_Archived_.end."><path d="M234.89,981.6169 C220.74,990.2769 206.16,1001.8469 197,1016.2969 C174.83,1051.2869 175.1834,1097.3507 176.6634,1119.1407" fill="none" id="Archived-to-*end*" style="stroke:#000000;stroke-width:1;"/><polygon fill="#000000" points="177.07,1125.1269,180.4509,1115.8765,176.7312,1120.1384,172.4693,1116.4186,177.07,1125.1269" style="stroke:#000000;stroke-width:1;"/><text fill="#000000" font-family="sans-serif" font-size="13" lengthAdjust="spacing" textLength="91.5776" x="227.4023" y="1029.3638">Purge content</text><text fill="#000000" font-family="sans-serif" font-size="13" lengthAdjust="spacing" textLength="150.3823" x="198" y="1044.4966">[after retention period]</text></g><!--link Archived to GMN14--><g class="link" data-entity-1="Archived" data-entity-2="GMN14" data-source-line="89" data-uid="lnk16" id="link_Archived_GMN14"><path d="M317.1,982.7069 C330.5,991.3169 344.18,1002.5569 353,1016.2969 C364.7,1034.5069 370.54,1057.3269 373.35,1078.0969" fill="none" id="Archived-GMN14" style="stroke:#000000;stroke-width:1;stroke-dasharray:7,7;"/></g><g class="legend" data-source-line="98"><rect fill="#DDDDDD" height="270.75" rx="7.5" ry="7.5" style="stroke:#000000;stroke-width:1;" width="324.6787" x="739.5327" y="1212.2266"/><text fill="#000000" font-family="sans-serif" font-size="14" font-weight="bold" lengthAdjust="spacing" textLength="119.7041" x="744.5327" y="1230.2217">Content Types:</text><text fill="#000000" font-family="sans-serif" font-size="14" lengthAdjust="spacing" textLength="135.9805" x="744.5327" y="1246.5186">&#8226; Plans (visit plans)</text><text fill="#000000" font-family="sans-serif" font-size="14" lengthAdjust="spacing" textLength="60.1084" x="744.5327" y="1262.8154">&#8226; Events</text><text fill="#000000" font-family="sans-serif" font-size="14" lengthAdjust="spacing" textLength="208.4824" x="744.5327" y="1279.1123">&#8226; Food Facilities (restaurants)</text><text fill="#000000" font-family="sans-serif" font-size="14" lengthAdjust="spacing" textLength="175.8682" x="744.5327" y="1295.4092">&#8226; Educational Collections</text><text fill="#000000" font-family="sans-serif" font-size="14" lengthAdjust="spacing" textLength="110.5234" x="744.5327" y="1311.7061">&#8226; Kids Activities</text><text fill="#000000" font-family="sans-serif" font-size="14" lengthAdjust="spacing" textLength="4.4502" x="744.5327" y="1328.0029">&#160;</text><text fill="#000000" font-family="sans-serif" font-size="14" font-weight="bold" lengthAdjust="spacing" textLength="139.0771" x="744.5327" y="1344.2998">Retention Period:</text><text fill="#000000" font-family="sans-serif" font-size="14" lengthAdjust="spacing" textLength="131.4688" x="744.5327" y="1360.5967">&#8226; Active: unlimited</text><text fill="#000000" font-family="sans-serif" font-size="14" lengthAdjust="spacing" textLength="225.1826" x="744.5327" y="1376.8936">&#8226; Inactive: 90 days then archive</text><text fill="#000000" font-family="sans-serif" font-size="14" lengthAdjust="spacing" textLength="314.6787" x="744.5327" y="1393.1904">&#8226; Archived: 2 years then permanent deletion</text><text fill="#000000" font-family="sans-serif" font-size="14" lengthAdjust="spacing" textLength="4.4502" x="744.5327" y="1409.4873">&#160;</text><text fill="#000000" font-family="sans-serif" font-size="14" font-weight="bold" lengthAdjust="spacing" textLength="62.2275" x="744.5327" y="1425.7842">Review:</text><text fill="#000000" font-family="sans-serif" font-size="14" lengthAdjust="spacing" textLength="187.708" x="744.5327" y="1442.0811">&#8226; Periodic: every 6 months</text><text fill="#000000" font-family="sans-serif" font-size="14" lengthAdjust="spacing" textLength="190.9619" x="744.5327" y="1458.3779">&#8226; On complaint: immediate</text><text fill="#000000" font-family="sans-serif" font-size="14" lengthAdjust="spacing" textLength="230.2139" x="744.5327" y="1474.6748">&#8226; Before major events: proactive</text></g><!--SRC=[TLPDRnit4BtlhnZab0emKFHGe3eKaEEuADgqhXAtXpG7UZcM67F93ScL8HG5-blwq_fB-eRaViYMJoA7dE5xCsz66n-CwrLG7SMa4jDV3T6bQXzsmGzEl_7M1_fZpog9tGVDeTWkWtzqi6q25jLauGVJ-wH2AgOV0hFSUZk6sh9k_cwQP99bMgtUU9VO9Nhd4LWbuvru0yQLKJk0MgsQvkFg4rrSV4zNGTqdMjD6TyPH6u298xKbGjCK-A_ohLUaOha_cZTjCWVEzh8S3tvqQZuQD-FXhGCiO3uOVimNod8A6jezRkiIjcwQfW0LoEKfOBuPxgo9-n7jd-wZifO2VnbCO4ttXgsE-B6MzQTbX97qUuKuMZRYEoH_4SM2Z7RA3SgUE8rGu7TbOgk2dbmrMmRqdWFyWCGUuLbXdY2-xRLmd06pDedwmWEXwy6fzvW_UPZp4Z7WcxZhVL3X2CgTFsIu2xUILJXTMxMZUv0AsGBFB-1cqf7QFRSFGhVrNM-LUVhoWd9TBg0xJzQx7KjSomULdIUi9xItIzWgAqrpQoAK-Spd-PEcdf-ywPXrhcgbUVBUfk-3pmw5ClKgngUt5sdTycTkCoT4ZTHvRUvDcpidFdbYXhULf9yK7G4EnjlSGRstfZKixfEF192-4-M6tJANa57EesobNH7KUC7hFEGIp6wVoD_NvYEqU95bxkersfdeWiQklsFZThMJTJxvnISw8Djtc0x9qn0vnEAY7AwJY53w1MF57lF1Pke5TWfkUdbzbYkKKwIl6tQQ1EnJo7Kk2EPQdhEWfvZP-livi2Wggn0X1ufOj7laAmusdQ6ojEX9Uncl6WUANFaGC5j9YXj9WG0Q00EppNL_aT4qpeJJ9AAphCOEDVP8siGvaozMvCf3EtYFL6OxaosdAYdgGPl3uPHbc5bcCpekWaHk-oa3eBN6AT5___nBFnltW9JSUO__gbsSxBSzXe4eQCYpQhBVP4cQjawHf-cvyodvJl9JfxbaPpdfpsTeo3V2w791xzGnLssGnCneVrjEh1ah4Z7FhXUXvb8lIk7cx1TbFIgJXFBfQ7gPucOM4MGzjlTPWYTwkvbdnJJLpXIs3kiM7mQJk0NpcJfF4KiZokmuFqloRUIh1D-Rc7p0YBFv0mKxqouLRtadcwpvJ7Aay-7OSomSSwQjWiXUIpBHmxBvgfwyFU1wh9jhxpLTgzQWXfY9z1fCane2_ZDc1psKYGjC-AgnNDkmdFvaTFt6o15WpR2s4yjIynbP6JPh2CoQhiu4iOyDkwRllYQjZf7IdjrOfj6v5crDtz0n3vrygN-Mx1c726sHbwh0DV61yGVzBVvJNDgFR7vrishNPBeEOwlqcfnUCah4-0JvZ4fnpkCQul1LBrAOKf__0G00]--></g></svg>