<svg xmlns="http://www.w3.org/2000/svg" xmlns:xlink="http://www.w3.org/1999/xlink" contentStyleType="text/css" data-diagram-type="STATE" height="1190px" preserveAspectRatio="none" style="width:1377px;height:1190px;background:#FFFFFF;" version="1.1" viewBox="0 0 1377 1190" width="1377px" zoomAndPan="magnify"><title>**Event Registration Lifecycle State Diagram**</title><defs/><g><g class="title" data-source-line="9"><text fill="#000000" font-family="sans-serif" font-size="14" font-weight="bold" lengthAdjust="spacing" textLength="340.4502" x="511.4944" y="22.9951">Event Registration Lifecycle State Diagram</text></g><g id="Browsing"><rect fill="#FFFFE0" height="50" rx="12.5" ry="12.5" style="stroke:#FF8C00;stroke-width:0.5;" width="84.3193" x="550" y="158.2969"/><line style="stroke:#FF8C00;stroke-width:0.5;" x1="550" x2="634.3193" y1="184.5938" y2="184.5938"/><text fill="#000000" font-family="sans-serif" font-size="14" lengthAdjust="spacing" textLength="64.3193" x="560" y="176.292">Browsing</text></g><g id="Registered"><rect fill="#FFFFE0" height="50" rx="12.5" ry="12.5" style="stroke:#FF8C00;stroke-width:0.5;" width="95.7695" x="544" y="358.7969"/><line style="stroke:#FF8C00;stroke-width:0.5;" x1="544" x2="639.7695" y1="385.0938" y2="385.0938"/><text fill="#000000" font-family="sans-serif" font-size="14" lengthAdjust="spacing" textLength="75.7695" x="554" y="376.792">Registered</text></g><g id="Confirmed"><rect fill="#FFFFE0" height="50" rx="12.5" ry="12.5" style="stroke:#FF8C00;stroke-width:0.5;" width="92.9258" x="755.5" y="544.2969"/><line style="stroke:#FF8C00;stroke-width:0.5;" x1="755.5" x2="848.4258" y1="570.5938" y2="570.5938"/><text fill="#000000" font-family="sans-serif" font-size="14" lengthAdjust="spacing" textLength="72.9258" x="765.5" y="562.292">Confirmed</text></g><g id="Attended"><rect fill="#FFFFE0" height="50" rx="12.5" ry="12.5" style="stroke:#FF8C00;stroke-width:0.5;" width="84.4287" x="309" y="704.2969"/><line style="stroke:#FF8C00;stroke-width:0.5;" x1="309" x2="393.4287" y1="730.5938" y2="730.5938"/><text fill="#000000" font-family="sans-serif" font-size="14" lengthAdjust="spacing" textLength="64.4287" x="319" y="722.292">Attended</text></g><g id="NoShow"><rect fill="#FFFFE0" height="50" rx="12.5" ry="12.5" style="stroke:#FF8C00;stroke-width:0.5;" width="81.2637" x="1070.5" y="704.2969"/><line style="stroke:#FF8C00;stroke-width:0.5;" x1="1070.5" x2="1151.7637" y1="730.5938" y2="730.5938"/><text fill="#000000" font-family="sans-serif" font-size="14" lengthAdjust="spacing" textLength="61.2637" x="1080.5" y="722.292">No Show</text></g><g id="Cancelled"><rect fill="#FFFFE0" height="50" rx="12.5" ry="12.5" style="stroke:#FF8C00;stroke-width:0.5;" width="88.8174" x="598.5" y="704.2969"/><line style="stroke:#FF8C00;stroke-width:0.5;" x1="598.5" x2="687.3174" y1="730.5938" y2="730.5938"/><text fill="#000000" font-family="sans-serif" font-size="14" lengthAdjust="spacing" textLength="68.8174" x="608.5" y="722.292">Cancelled</text></g><ellipse cx="592" cy="53.2969" fill="#222222" rx="10" ry="10" style="stroke:#222222;stroke-width:1;"/><ellipse cx="518" cy="889.2969" fill="none" rx="11" ry="11" style="stroke:#222222;stroke-width:1;"/><ellipse cx="518" cy="889.2969" fill="#222222" rx="6" ry="6" style="stroke:#222222;stroke-width:1;"/><g class="entity" data-entity="GMN2" data-source-line="51" data-uid="ent0003" id="entity_GMN2"><path d="M669.5,140.2969 L669.5,179.2969 L634.02,183.2969 L669.5,187.2969 L669.5,225.9609 A0,0 0 0 0 669.5,225.9609 L840.0762,225.9609 A0,0 0 0 0 840.0762,225.9609 L840.0762,150.2969 L830.0762,140.2969 L669.5,140.2969 A0,0 0 0 0 669.5,140.2969" fill="#FEFFDD" style="stroke:#181818;stroke-width:0.5;"/><path d="M830.0762,140.2969 L830.0762,150.2969 L840.0762,150.2969 L830.0762,140.2969" fill="#FEFFDD" style="stroke:#181818;stroke-width:0.5;"/><text fill="#000000" font-family="sans-serif" font-size="13" font-weight="bold" lengthAdjust="spacing" textLength="117.1206" x="675.5" y="157.3638">Browsing State:</text><text fill="#000000" font-family="sans-serif" font-size="13" lengthAdjust="spacing" textLength="149.5762" x="675.5" y="172.4966">- User browsing events</text><text fill="#000000" font-family="sans-serif" font-size="13" lengthAdjust="spacing" textLength="116.4097" x="675.5" y="187.6294">- Can filter events</text><text fill="#000000" font-family="sans-serif" font-size="13" lengthAdjust="spacing" textLength="87.4009" x="675.5" y="202.7622">- View details</text><text fill="#000000" font-family="sans-serif" font-size="13" lengthAdjust="spacing" textLength="123.6396" x="675.5" y="217.895">- Check availability</text></g><g class="entity" data-entity="GMN5" data-source-line="59" data-uid="ent0006" id="entity_GMN5"><path d="M675,333.2969 L675,379.7969 L640.32,383.7969 L675,387.7969 L675,434.0938 A0,0 0 0 0 675,434.0938 L880.8057,434.0938 A0,0 0 0 0 880.8057,434.0938 L880.8057,343.2969 L870.8057,333.2969 L675,333.2969 A0,0 0 0 0 675,333.2969" fill="#FEFFDD" style="stroke:#181818;stroke-width:0.5;"/><path d="M870.8057,333.2969 L870.8057,343.2969 L880.8057,343.2969 L870.8057,333.2969" fill="#FEFFDD" style="stroke:#181818;stroke-width:0.5;"/><text fill="#000000" font-family="sans-serif" font-size="13" font-weight="bold" lengthAdjust="spacing" textLength="128.9971" x="681" y="350.3638">Registered State:</text><text fill="#000000" font-family="sans-serif" font-size="13" lengthAdjust="spacing" textLength="142.3462" x="681" y="365.4966">- Registered for event</text><text fill="#000000" font-family="sans-serif" font-size="13" lengthAdjust="spacing" textLength="184.8057" x="681" y="380.6294">- Available capacity reduced</text><text fill="#000000" font-family="sans-serif" font-size="13" lengthAdjust="spacing" textLength="165.3818" x="681" y="395.7622">- Confirmation email sent</text><text fill="#000000" font-family="sans-serif" font-size="13" lengthAdjust="spacing" textLength="121.6211" x="681" y="410.895">- Waiting for event</text><text fill="#000000" font-family="sans-serif" font-size="13" lengthAdjust="spacing" textLength="160.0498" x="681" y="426.0278">- Can cancel before date</text></g><g class="entity" data-entity="GMN8" data-source-line="68" data-uid="ent0009" id="entity_GMN8"><path d="M884,526.2969 L884,565.2969 L848.55,569.2969 L884,573.2969 L884,611.9609 A0,0 0 0 0 884,611.9609 L1192.1553,611.9609 A0,0 0 0 0 1192.1553,611.9609 L1192.1553,536.2969 L1182.1553,526.2969 L884,526.2969 A0,0 0 0 0 884,526.2969" fill="#FEFFDD" style="stroke:#181818;stroke-width:0.5;"/><path d="M1182.1553,526.2969 L1182.1553,536.2969 L1192.1553,536.2969 L1182.1553,526.2969" fill="#FEFFDD" style="stroke:#181818;stroke-width:0.5;"/><text fill="#000000" font-family="sans-serif" font-size="13" font-weight="bold" lengthAdjust="spacing" textLength="125.0234" x="890" y="543.3638">Confirmed State:</text><text fill="#000000" font-family="sans-serif" font-size="13" lengthAdjust="spacing" textLength="153.6704" x="890" y="558.4966">- Attendance confirmed</text><text fill="#000000" font-family="sans-serif" font-size="13" lengthAdjust="spacing" textLength="287.1553" x="890" y="573.6294">- (for events requiring manual confirmation)</text><text fill="#000000" font-family="sans-serif" font-size="13" lengthAdjust="spacing" textLength="276.542" x="890" y="588.7622">- Or direct attendance without registration</text><text fill="#000000" font-family="sans-serif" font-size="13" lengthAdjust="spacing" textLength="113.731" x="890" y="603.895">- Ready to attend</text></g><g class="entity" data-entity="GMN11" data-source-line="76" data-uid="ent0012" id="entity_GMN11"><path d="M216.5,846.2969 L216.5,931.9609 A0,0 0 0 0 216.5,931.9609 L427.5107,931.9609 A0,0 0 0 0 427.5107,931.9609 L427.5107,856.2969 L417.5107,846.2969 L333.75,846.2969 L346.53,754.6369 L325.75,846.2969 L216.5,846.2969 A0,0 0 0 0 216.5,846.2969" fill="#FEFFDD" style="stroke:#181818;stroke-width:0.5;"/><path d="M417.5107,846.2969 L417.5107,856.2969 L427.5107,856.2969 L417.5107,846.2969" fill="#FEFFDD" style="stroke:#181818;stroke-width:0.5;"/><text fill="#000000" font-family="sans-serif" font-size="13" font-weight="bold" lengthAdjust="spacing" textLength="117.0952" x="222.5" y="863.3638">Attended State:</text><text fill="#000000" font-family="sans-serif" font-size="13" lengthAdjust="spacing" textLength="139.9595" x="222.5" y="878.4966">- Checked-in at event</text><text fill="#000000" font-family="sans-serif" font-size="13" lengthAdjust="spacing" textLength="146.1738" x="222.5" y="893.6294">- Attendance recorded</text><text fill="#000000" font-family="sans-serif" font-size="13" lengthAdjust="spacing" textLength="190.0107" x="222.5" y="908.7622">- Attendee counter increased</text><text fill="#000000" font-family="sans-serif" font-size="13" lengthAdjust="spacing" textLength="136.0112" x="222.5" y="923.895">- Ready for archiving</text></g><g class="entity" data-entity="GMN14" data-source-line="84" data-uid="ent0015" id="entity_GMN14"><path d="M976,838.7969 L976,939.5938 A0,0 0 0 0 976,939.5938 L1246.4185,939.5938 A0,0 0 0 0 1246.4185,939.5938 L1246.4185,848.7969 L1236.4185,838.7969 L1115,838.7969 L1111,754.6369 L1107,838.7969 L976,838.7969 A0,0 0 0 0 976,838.7969" fill="#FEFFDD" style="stroke:#181818;stroke-width:0.5;"/><path d="M1236.4185,838.7969 L1236.4185,848.7969 L1246.4185,848.7969 L1236.4185,838.7969" fill="#FEFFDD" style="stroke:#181818;stroke-width:0.5;"/><text fill="#000000" font-family="sans-serif" font-size="13" font-weight="bold" lengthAdjust="spacing" textLength="113.001" x="982" y="855.8638">No Show State:</text><text fill="#000000" font-family="sans-serif" font-size="13" lengthAdjust="spacing" textLength="119.1709" x="982" y="870.9966">- Event completed</text><text fill="#000000" font-family="sans-serif" font-size="13" lengthAdjust="spacing" textLength="134.9067" x="982" y="886.1294">- User did not attend</text><text fill="#000000" font-family="sans-serif" font-size="13" lengthAdjust="spacing" textLength="127.2134" x="982" y="901.2622">- No-show recorded</text><text fill="#000000" font-family="sans-serif" font-size="13" lengthAdjust="spacing" textLength="249.4185" x="982" y="916.395">- Capacity released (for future events)</text><text fill="#000000" font-family="sans-serif" font-size="13" lengthAdjust="spacing" textLength="136.0112" x="982" y="931.5278">- Ready for archiving</text></g><g class="entity" data-entity="GMN17" data-source-line="93" data-uid="ent0018" id="entity_GMN17"><path d="M615,831.2969 L615,947.2266 L834.8213,947.2266 L834.8213,841.2969 L824.8213,831.2969 L615,831.2969" fill="#FEFFDD" style="stroke:#181818;stroke-width:0.5;"/><path d="M824.8213,831.2969 L824.8213,841.2969 L834.8213,841.2969 L824.8213,831.2969" fill="#FEFFDD" style="stroke:#181818;stroke-width:1;"/><text fill="#000000" font-family="sans-serif" font-size="13" font-weight="bold" lengthAdjust="spacing" textLength="120.231" x="621" y="848.3638">Cancelled State:</text><text fill="#000000" font-family="sans-serif" font-size="13" lengthAdjust="spacing" textLength="153.9053" x="621" y="863.4966">- Registration cancelled</text><text fill="#000000" font-family="sans-serif" font-size="13" lengthAdjust="spacing" textLength="108.6465" x="621" y="878.6294">- May be by user</text><text fill="#000000" font-family="sans-serif" font-size="13" lengthAdjust="spacing" textLength="194.0859" x="621" y="893.7622">- Or due to event cancellation</text><text fill="#000000" font-family="sans-serif" font-size="13" lengthAdjust="spacing" textLength="125.709" x="621" y="908.895">- Capacity released</text><text fill="#000000" font-family="sans-serif" font-size="13" lengthAdjust="spacing" textLength="198.8213" x="621" y="924.0278">- Cancellation notification sent</text><text fill="#000000" font-family="sans-serif" font-size="13" lengthAdjust="spacing" textLength="136.0112" x="621" y="939.1606">- Ready for archiving</text></g><!--link *start* to Browsing--><g class="link" data-entity-1=".start." data-entity-2="Browsing" data-source-line="11" data-uid="lnk3" id="link_.start._Browsing"><path d="M592,63.5069 C592,83.1069 592,123.5269 592,152.1869" fill="none" id="*start*-to-Browsing" style="stroke:#000000;stroke-width:1;"/><polygon fill="#000000" points="592,158.1869,596,149.1869,592,153.1869,588,149.1869,592,158.1869" style="stroke:#000000;stroke-width:1;"/><text fill="#000000" font-family="sans-serif" font-size="13" lengthAdjust="spacing" textLength="118.4028" x="593" y="106.3638">User views events</text></g><!--link Browsing to Registered--><g class="link" data-entity-1="Browsing" data-entity-2="Registered" data-source-line="20" data-uid="lnk4" id="link_Browsing_Registered"><path d="M592,208.6369 C592,246.8369 592,314.4369 592,352.5669" fill="none" id="Browsing-to-Registered" style="stroke:#000000;stroke-width:1;"/><polygon fill="#000000" points="592,358.5669,596,349.5669,592,353.5669,588,349.5669,592,358.5669" style="stroke:#000000;stroke-width:1;"/><text fill="#000000" font-family="sans-serif" font-size="13" lengthAdjust="spacing" textLength="117.2729" x="606.6665" y="269.3638">Register for event</text><text fill="#000000" font-family="sans-serif" font-size="13" lengthAdjust="spacing" textLength="127.8354" x="601.3853" y="284.4966">[capacity available]</text><text fill="#000000" font-family="sans-serif" font-size="13" lengthAdjust="spacing" textLength="144.606" x="593" y="299.6294">[registration required]</text></g><!--link Browsing to Confirmed--><g class="link" data-entity-1="Browsing" data-entity-2="Confirmed" data-source-line="22" data-uid="lnk5" id="link_Browsing_Confirmed"><path d="M622.65,208.4069 C631.75,214.8169 641.97,221.3269 652,226.2969 C759.21,279.3869 836.24,231.4469 899,333.2969 C937.08,395.0869 925.04,433.2969 889,496.2969 C878,515.5269 864.6311,528.3037 847.6811,540.4937" fill="none" id="Browsing-to-Confirmed" style="stroke:#000000;stroke-width:1;"/><polygon fill="#000000" points="842.81,543.9969,852.4521,541.9895,846.8693,541.0776,847.7812,535.4947,842.81,543.9969" style="stroke:#000000;stroke-width:1;"/><text fill="#000000" font-family="sans-serif" font-size="13" lengthAdjust="spacing" textLength="117.3428" x="946.7942" y="380.8638">Direct attendance</text><text fill="#000000" font-family="sans-serif" font-size="13" lengthAdjust="spacing" textLength="164.9312" x="923" y="395.9966">[no registration required]</text></g><!--link Browsing to *end*--><g class="link" data-entity-1="Browsing" data-entity-2=".end." data-source-line="24" data-uid="lnk7" id="link_Browsing_.end."><path d="M549.86,189.2869 C415.49,206.3769 6,267.8669 6,382.7969 C6,382.7969 6,382.7969 6,730.2969 C6,930.5069 264.25,745.1969 445,831.2969 C472,844.1569 494.0471,864.1846 506.4171,876.4946" fill="none" id="Browsing-to-*end*" style="stroke:#000000;stroke-width:1;"/><polygon fill="#000000" points="510.67,880.7269,507.1121,871.5431,507.1259,877.1999,501.469,877.2137,510.67,880.7269" style="stroke:#000000;stroke-width:1;"/><text fill="#000000" font-family="sans-serif" font-size="13" lengthAdjust="spacing" textLength="75.8037" x="7" y="573.8638">User leaves</text></g><!--link Registered to Confirmed--><g class="link" data-entity-1="Registered" data-entity-2="Confirmed" data-source-line="26" data-uid="lnk8" id="link_Registered_Confirmed"><path d="M619.89,409.1669 C660.16,444.3569 729.6617,505.0891 769.8117,540.1691" fill="none" id="Registered-to-Confirmed" style="stroke:#000000;stroke-width:1;"/><polygon fill="#000000" points="774.33,544.1169,770.1844,535.183,770.5647,540.8271,764.9207,541.2074,774.33,544.1169" style="stroke:#000000;stroke-width:1;"/><text fill="#000000" font-family="sans-serif" font-size="13" lengthAdjust="spacing" textLength="163.3506" x="717" y="477.3638">Event organizer confirms</text><text fill="#000000" font-family="sans-serif" font-size="13" lengthAdjust="spacing" textLength="145.3677" x="725.9915" y="492.4966">[manual confirmation]</text></g><!--link Registered to Cancelled--><g class="link" data-entity-1="Registered" data-entity-2="Cancelled" data-source-line="28" data-uid="lnk9" id="link_Registered_Cancelled"><path d="M584.58,409.1269 C564.87,474.7069 513.65,651.7069 528,674.2969 C543.43,698.5969 567.2651,710.4493 592.5551,717.9093" fill="none" id="Registered-to-Cancelled" style="stroke:#000000;stroke-width:1;"/><polygon fill="#000000" points="598.31,719.6069,590.8094,713.224,593.5143,718.1922,588.546,720.8971,598.31,719.6069" style="stroke:#000000;stroke-width:1;"/><text fill="#000000" font-family="sans-serif" font-size="13" lengthAdjust="spacing" textLength="82.6465" x="574.1121" y="566.3638">User cancels</text><text fill="#000000" font-family="sans-serif" font-size="13" lengthAdjust="spacing" textLength="126.8706" x="552" y="581.4966">[before event date]</text></g><!--link Registered to Cancelled--><g class="link" data-entity-1="Registered" data-entity-2="Cancelled" data-source-line="30" data-uid="lnk10" id="link_Registered_Cancelled"><path d="M543.88,397.2069 C486.03,414.9969 391.53,453.8969 350,526.2969 C330.98,559.4469 328.52,580.6869 350,612.2969 C406.12,694.8769 525.1611,718.0572 592.3211,724.9172" fill="none" id="Registered-to-Cancelled-1" style="stroke:#000000;stroke-width:1;"/><polygon fill="#000000" points="598.29,725.5269,589.743,720.633,593.3159,725.0188,588.9301,728.5916,598.29,725.5269" style="stroke:#000000;stroke-width:1;"/><text fill="#000000" font-family="sans-serif" font-size="13" lengthAdjust="spacing" textLength="103.3462" x="385.5154" y="566.3638">Event cancelled</text><text fill="#000000" font-family="sans-serif" font-size="13" lengthAdjust="spacing" textLength="172.377" x="351" y="581.4966">[event status = cancelled]</text></g><!--link Registered to Attended--><g class="link" data-entity-1="Registered" data-entity-2="Attended" data-source-line="32" data-uid="lnk11" id="link_Registered_Attended"><path d="M543.75,385.6469 C457.76,390.0969 279.77,413.2569 202,526.2969 C180.33,557.7869 185.21,577.9569 202,612.2969 C224.03,657.3569 267.6477,687.1887 303.4477,706.1487" fill="none" id="Registered-to-Attended" style="stroke:#000000;stroke-width:1;"/><polygon fill="#000000" points="308.75,708.9569,302.6687,701.2098,304.3314,706.6168,298.9245,708.2795,308.75,708.9569" style="stroke:#000000;stroke-width:1;"/><text fill="#000000" font-family="sans-serif" font-size="13" lengthAdjust="spacing" textLength="83.186" x="222.957" y="566.3638">User attends</text><text fill="#000000" font-family="sans-serif" font-size="13" lengthAdjust="spacing" textLength="123.1001" x="203" y="581.4966">[check-in at event]</text></g><!--link Registered to NoShow--><g class="link" data-entity-1="Registered" data-entity-2="NoShow" data-source-line="34" data-uid="lnk12" id="link_Registered_NoShow"><path d="M617.23,408.9469 C628.54,418.3969 642.57,428.3669 657,434.2969 C887.47,528.9569 1046.49,338.2969 1210,526.2969 C1253.2,575.9669 1250.29,618.0969 1216,674.2969 C1202.01,697.2169 1180.5364,708.9126 1157.3364,716.7226" fill="none" id="Registered-to-NoShow" style="stroke:#000000;stroke-width:1;"/><polygon fill="#000000" points="1151.65,718.6369,1161.4558,719.5564,1156.3887,717.0416,1158.9035,711.9745,1151.65,718.6369" style="stroke:#000000;stroke-width:1;"/><text fill="#000000" font-family="sans-serif" font-size="13" lengthAdjust="spacing" textLength="110.3477" x="1251.0457" y="566.3638">Event completed</text><text fill="#000000" font-family="sans-serif" font-size="13" lengthAdjust="spacing" textLength="126.439" x="1243" y="581.4966">[user didn't attend]</text></g><!--link Confirmed to Attended--><g class="link" data-entity-1="Confirmed" data-entity-2="Attended" data-source-line="36" data-uid="lnk13" id="link_Confirmed_Attended"><path d="M765.15,594.4369 C753.64,601.0769 740.64,607.7169 728,612.2969 C657.93,637.7169 634.58,621.5069 563,642.2969 C502.35,659.9069 440.7112,686.3099 398.5712,705.6899" fill="none" id="Confirmed-to-Attended" style="stroke:#000000;stroke-width:1;"/><polygon fill="#000000" points="393.12,708.1969,402.968,708.0705,397.6626,706.1077,399.6254,700.8023,393.12,708.1969" style="stroke:#000000;stroke-width:1;"/><text fill="#000000" font-family="sans-serif" font-size="13" lengthAdjust="spacing" textLength="83.186" x="583.957" y="655.3638">User attends</text><text fill="#000000" font-family="sans-serif" font-size="13" lengthAdjust="spacing" textLength="123.1001" x="564" y="670.4966">[check-in at event]</text></g><!--link Confirmed to NoShow--><g class="link" data-entity-1="Confirmed" data-entity-2="NoShow" data-source-line="38" data-uid="lnk14" id="link_Confirmed_NoShow"><path d="M833.66,594.4269 C843.84,601.1569 855.47,607.8369 867,612.2969 C942.63,641.5769 977.78,600.0369 1047,642.2969 C1070.99,656.9369 1086.1019,678.9406 1096.8019,698.8706" fill="none" id="Confirmed-to-NoShow" style="stroke:#000000;stroke-width:1;"/><polygon fill="#000000" points="1099.64,704.1569,1098.907,694.3353,1097.2749,699.7516,1091.8586,698.1195,1099.64,704.1569" style="stroke:#000000;stroke-width:1;"/><text fill="#000000" font-family="sans-serif" font-size="13" lengthAdjust="spacing" textLength="110.3477" x="1089.0457" y="655.3638">Event completed</text><text fill="#000000" font-family="sans-serif" font-size="13" lengthAdjust="spacing" textLength="126.439" x="1081" y="670.4966">[user didn't attend]</text></g><!--link Confirmed to Cancelled--><g class="link" data-entity-1="Confirmed" data-entity-2="Cancelled" data-source-line="40" data-uid="lnk15" id="link_Confirmed_Cancelled"><path d="M776.05,594.3469 C761.23,608.2069 742.4,626.0469 726,642.2969 C705.22,662.8869 686.2825,682.5369 669.7525,699.9369" fill="none" id="Confirmed-to-Cancelled" style="stroke:#000000;stroke-width:1;"/><polygon fill="#000000" points="665.62,704.2869,674.7187,700.5169,669.0637,700.6619,668.9187,695.0069,665.62,704.2869" style="stroke:#000000;stroke-width:1;"/><text fill="#000000" font-family="sans-serif" font-size="13" lengthAdjust="spacing" textLength="82.6465" x="749.1121" y="655.3638">User cancels</text><text fill="#000000" font-family="sans-serif" font-size="13" lengthAdjust="spacing" textLength="126.8706" x="727" y="670.4966">[before event date]</text></g><!--link Confirmed to Cancelled--><g class="link" data-entity-1="Confirmed" data-entity-2="Cancelled" data-source-line="42" data-uid="lnk16" id="link_Confirmed_Cancelled"><path d="M830.4,594.3869 C852.89,616.3969 877.55,649.2369 858,674.2969 C837.29,700.8469 750.383,715.5872 693.683,722.7272" fill="none" id="Confirmed-to-Cancelled-1" style="stroke:#000000;stroke-width:1;"/><polygon fill="#000000" points="687.73,723.4769,697.1592,726.3211,692.6908,722.8522,696.1597,718.3838,687.73,723.4769" style="stroke:#000000;stroke-width:1;"/><text fill="#000000" font-family="sans-serif" font-size="13" lengthAdjust="spacing" textLength="103.3462" x="900.5154" y="655.3638">Event cancelled</text><text fill="#000000" font-family="sans-serif" font-size="13" lengthAdjust="spacing" textLength="172.377" x="866" y="670.4966">[event status = cancelled]</text></g><!--link Attended to *end*--><g class="link" data-entity-1="Attended" data-entity-2=".end." data-source-line="44" data-uid="lnk17" id="link_Attended_.end."><path d="M362.78,754.6169 C370.74,769.3269 382.27,787.7769 396,801.2969 C414.2,819.2169 424.01,816.7469 445,831.2969 C469.32,848.1569 491.7801,866.3865 505.0801,877.4665" fill="none" id="Attended-to-*end*" style="stroke:#000000;stroke-width:1;"/><polygon fill="#000000" points="509.69,881.3069,505.3354,872.473,505.8484,878.1065,500.2149,878.6195,509.69,881.3069" style="stroke:#000000;stroke-width:1;"/><text fill="#000000" font-family="sans-serif" font-size="13" lengthAdjust="spacing" textLength="139.3628" x="397" y="797.3638">Registration archived</text></g><!--link NoShow to *end*--><g class="link" data-entity-1="NoShow" data-entity-2=".end." data-source-line="46" data-uid="lnk18" id="link_NoShow_.end."><path d="M1070.2,737.2769 C956.35,756.8969 640.64,812.3569 597,831.2969 C567.83,843.9569 543.3098,864.6983 529.9998,876.9783" fill="none" id="NoShow-to-*end*" style="stroke:#000000;stroke-width:1;"/><polygon fill="#000000" points="525.59,881.0469,534.9171,877.8839,529.2649,877.6564,529.4924,872.0041,525.59,881.0469" style="stroke:#000000;stroke-width:1;"/><text fill="#000000" font-family="sans-serif" font-size="13" lengthAdjust="spacing" textLength="139.3628" x="802" y="797.3638">Registration archived</text></g><!--link Cancelled to *end*--><g class="link" data-entity-1="Cancelled" data-entity-2=".end." data-source-line="48" data-uid="lnk19" id="link_Cancelled_.end."><path d="M598.16,749.5869 C582.39,758.2469 565.7,769.8169 554,784.2969 C530.59,813.2869 522.7939,852.5151 520.0039,872.3951" fill="none" id="Cancelled-to-*end*" style="stroke:#000000;stroke-width:1;"/><polygon fill="#000000" points="519.17,878.3369,524.382,869.9801,519.8649,873.3854,516.4596,868.8683,519.17,878.3369" style="stroke:#000000;stroke-width:1;"/><text fill="#000000" font-family="sans-serif" font-size="13" lengthAdjust="spacing" textLength="139.3628" x="555" y="797.3638">Registration archived</text></g><!--link Cancelled to GMN17--><g class="link" data-entity-1="Cancelled" data-entity-2="GMN17" data-source-line="93" data-uid="lnk19" id="link_Cancelled_GMN17"><path d="M677.08,754.3669 C686.79,762.7969 696.49,773.0069 703,784.2969 C711.16,798.4469 716.31,815.2369 719.55,831.1569" fill="none" id="Cancelled-GMN17" style="stroke:#000000;stroke-width:1;stroke-dasharray:7,7;"/></g><g class="legend" data-source-line="102"><rect fill="#DDDDDD" height="205.5625" rx="7.5" ry="7.5" style="stroke:#000000;stroke-width:1;" width="321.0215" x="1030.4175" y="965.2266"/><text fill="#000000" font-family="sans-serif" font-size="14" font-weight="bold" lengthAdjust="spacing" textLength="101.8418" x="1035.4175" y="983.2217">Event Types:</text><text fill="#000000" font-family="sans-serif" font-size="14" lengthAdjust="spacing" textLength="311.0215" x="1035.4175" y="999.5186">&#8226; With registration: requires pre-registration</text><text fill="#000000" font-family="sans-serif" font-size="14" lengthAdjust="spacing" textLength="286.9043" x="1035.4175" y="1015.8154">&#8226; Without registration: direct attendance</text><text fill="#000000" font-family="sans-serif" font-size="14" lengthAdjust="spacing" textLength="4.4502" x="1035.4175" y="1032.1123">&#160;</text><text fill="#000000" font-family="sans-serif" font-size="14" font-weight="bold" lengthAdjust="spacing" textLength="116.6963" x="1035.4175" y="1048.4092">Confirmations:</text><text fill="#000000" font-family="sans-serif" font-size="14" lengthAdjust="spacing" textLength="251.624" x="1035.4175" y="1064.7061">&#8226; Manual: needs organizer approval</text><text fill="#000000" font-family="sans-serif" font-size="14" lengthAdjust="spacing" textLength="304.4316" x="1035.4175" y="1081.0029">&#8226; Automatic: immediately after registration</text><text fill="#000000" font-family="sans-serif" font-size="14" lengthAdjust="spacing" textLength="4.4502" x="1035.4175" y="1097.2998">&#160;</text><text fill="#000000" font-family="sans-serif" font-size="14" font-weight="bold" lengthAdjust="spacing" textLength="73.7051" x="1035.4175" y="1113.5967">Capacity:</text><text fill="#000000" font-family="sans-serif" font-size="14" lengthAdjust="spacing" textLength="193.3682" x="1035.4175" y="1129.8936">&#8226; Decreases on registration</text><text fill="#000000" font-family="sans-serif" font-size="14" lengthAdjust="spacing" textLength="190.5313" x="1035.4175" y="1146.1904">&#8226; Increases on cancellation</text><text fill="#000000" font-family="sans-serif" font-size="14" lengthAdjust="spacing" textLength="219.8574" x="1035.4175" y="1162.4873">&#8226; Fixed on attendance/no-show</text></g><!--SRC=[fLRRRXCn47tVhnZn0aIAU8y4Kje2Ge8YKIv2fG-ETv9OtTZ1zYO4XCIty6by2JE-xIKjKF4Mp_NCp9dPk6kbjyAA3JWlFCAt2k14oEkLDQskJqrZBBnKgxN_Y4rZzgmrjaORDMV2Nh-sGg-G57DhpJxAJneAGQ8BBwoFekSMKPFeQOxw1klgUrLvvHk4oUJf3hKduKevRuLNHbFU9Sg39FL5m7Qcn8gGJYPLTJcvWkdq2PnGIgVq2cRmpg65dSAz0-HOhgfYIVUoqJqGhdXaPSo85kkWxfxPuDJefRARf2-lh9vxZxfEslp8odC35skp3xfpmpzBLA4bTJH7pQ-gAXLnUHqQAZ0_O4dT2oL-qfTIR8LK_W1Y9rGZ5WrUaTJsssZnSwienDKeU2c5Of-HWVGW0du6Gq6qWN-AmxD8xMzGx90QtyCzpXJdREnAQFMLN6JKEKgu4ReLJPQ4f5V7iNAhSauP1Eo_GEeCnjP0JMt-itT48hE40aHFdb3hu76dEewJ1vr1nCOn2Bb6UJrLcaGHoR5pP4A7m6os3Vg0eELWjQhr_JmCSk_QT_VKGz__otp7rj_kVAVEbtexhWskXB1ohNQyEgcwlzfrKFvggWqjg-Nx1sRPtGwWWrLs81od6LqbW6diooAhqY5Y1IM5fMfuVtlIztIle4PFkvlCU8PvcLL3crrHzS0uncXwfuhnz4WsGDIJbyCH5FDyCQ0S4J9gPOWtpKiREu8RiWMNNJy8vRc-OK0kCKuE4X-O2RVYxqufm-_OCa0_BnSftuK4xq79xT9bOa0td927mVmratjqus2l_DgqVd3cKiz4VG1lal6uX8NntcouXdBmkOJ2r445OQ9Oz_ToN1dXuezgtPCZrzjgfelIqg9mIHsXSV6HfKp7M-6bRmw3Iv-Y8RRH6UWOJ8U08-RwMNvkfeu33C2UTinf0iOubsNhstmEtCExu-w-Xu4QPLzl87PQMTdpcC8hSI0Amk80VDOA0LhacMB_-dGpFoebSxgOCLQrL38-oZBykR86L_m8h0_Ln9w_FMpHnKf-_VW97uY90nhEykVMmTRYTCJGx38cx-oOv6JTtwzWralyAYpC33HYxNgVPR7TMhCJJJARjpGPyfKpK1jQGKLpQEXFnv89EWANPXQxsMKwmqXZogBXXdfUw9v-D1tMFrDVY05ydKjjZtJaP6XtRFHl]--></g></svg>