<svg xmlns="http://www.w3.org/2000/svg" xmlns:xlink="http://www.w3.org/1999/xlink" contentStyleType="text/css" data-diagram-type="STATE" height="1643px" preserveAspectRatio="none" style="width:1110px;height:1643px;background:#FFFFFF;" version="1.1" viewBox="0 0 1110 1643" width="1110px" zoomAndPan="magnify"><title>**Payment Transaction State Diagram**</title><defs/><g><g class="title" data-source-line="9"><text fill="#000000" font-family="sans-serif" font-size="14" font-weight="bold" lengthAdjust="spacing" textLength="286.46" x="404.9473" y="22.9951">Payment Transaction State Diagram</text></g><g id="Pending"><rect fill="#FFA07A" height="50" rx="12.5" ry="12.5" style="stroke:#8B0000;stroke-width:0.5;" width="76.4648" x="704.71" y="173.2969"/><line style="stroke:#8B0000;stroke-width:0.5;" x1="704.71" x2="781.1748" y1="199.5938" y2="199.5938"/><text fill="#000000" font-family="sans-serif" font-size="14" lengthAdjust="spacing" textLength="56.4648" x="714.71" y="191.292">Pending</text></g><g id="Processing"><rect fill="#FFA07A" height="50" rx="12.5" ry="12.5" style="stroke:#8B0000;stroke-width:0.5;" width="95.3115" x="511.21" y="351.2969"/><line style="stroke:#8B0000;stroke-width:0.5;" x1="511.21" x2="606.5215" y1="377.5938" y2="377.5938"/><text fill="#000000" font-family="sans-serif" font-size="14" lengthAdjust="spacing" textLength="75.3115" x="521.21" y="369.292">Processing</text></g><g id="Authorized"><rect fill="#FFA07A" height="50" rx="12.5" ry="12.5" style="stroke:#8B0000;stroke-width:0.5;" width="95.8721" x="285.71" y="547.2969"/><line style="stroke:#8B0000;stroke-width:0.5;" x1="285.71" x2="381.5821" y1="573.5938" y2="573.5938"/><text fill="#000000" font-family="sans-serif" font-size="14" lengthAdjust="spacing" textLength="75.8721" x="295.71" y="565.292">Authorized</text></g><g id="Completed"><rect fill="#FFA07A" height="50" rx="12.5" ry="12.5" style="stroke:#8B0000;stroke-width:0.5;" width="96.3574" x="105.71" y="732.7969"/><line style="stroke:#8B0000;stroke-width:0.5;" x1="105.71" x2="202.0674" y1="759.0938" y2="759.0938"/><text fill="#000000" font-family="sans-serif" font-size="14" lengthAdjust="spacing" textLength="76.3574" x="115.71" y="750.792">Completed</text></g><g id="Failed"><rect fill="#FFA07A" height="50" rx="12.5" ry="12.5" style="stroke:#8B0000;stroke-width:0.5;" width="61.9111" x="504.71" y="1060.2969"/><line style="stroke:#8B0000;stroke-width:0.5;" x1="504.71" x2="566.6211" y1="1086.5938" y2="1086.5938"/><text fill="#000000" font-family="sans-serif" font-size="14" lengthAdjust="spacing" textLength="41.9111" x="514.71" y="1078.292">Failed</text></g><g id="RefundPending"><rect fill="#FFA07A" height="50" rx="12.5" ry="12.5" style="stroke:#8B0000;stroke-width:0.5;" width="130.8174" x="208.21" y="900.2969"/><line style="stroke:#8B0000;stroke-width:0.5;" x1="208.21" x2="339.0274" y1="926.5938" y2="926.5938"/><text fill="#000000" font-family="sans-serif" font-size="14" lengthAdjust="spacing" textLength="110.8174" x="218.21" y="918.292">Refund Pending</text></g><g id="Refunded"><rect fill="#FFA07A" height="50" rx="12.5" ry="12.5" style="stroke:#8B0000;stroke-width:0.5;" width="87.4023" x="104.21" y="1060.2969"/><line style="stroke:#8B0000;stroke-width:0.5;" x1="104.21" x2="191.6123" y1="1086.5938" y2="1086.5938"/><text fill="#000000" font-family="sans-serif" font-size="14" lengthAdjust="spacing" textLength="67.4023" x="114.21" y="1078.292">Refunded</text></g><g id="Cancelled"><rect fill="#FFA07A" height="50" rx="12.5" ry="12.5" style="stroke:#8B0000;stroke-width:0.5;" width="88.8174" x="882.21" y="449.2969"/><line style="stroke:#8B0000;stroke-width:0.5;" x1="882.21" x2="971.0274" y1="475.5938" y2="475.5938"/><text fill="#000000" font-family="sans-serif" font-size="14" lengthAdjust="spacing" textLength="68.8174" x="892.21" y="467.292">Cancelled</text></g><ellipse cx="742.71" cy="53.2969" fill="#222222" rx="10" ry="10" style="stroke:#222222;stroke-width:1;"/><ellipse cx="359.71" cy="1278.2969" fill="none" rx="11" ry="11" style="stroke:#222222;stroke-width:1;"/><ellipse cx="359.71" cy="1278.2969" fill="#222222" rx="6" ry="6" style="stroke:#222222;stroke-width:1;"/><g class="entity" data-entity="GMN2" data-source-line="49" data-uid="ent0003" id="entity_GMN2"><path d="M816.21,155.2969 L816.21,194.2969 L780.85,198.2969 L816.21,202.2969 L816.21,240.9609 A0,0 0 0 0 816.21,240.9609 L1103.3545,240.9609 A0,0 0 0 0 1103.3545,240.9609 L1103.3545,165.2969 L1093.3545,155.2969 L816.21,155.2969 A0,0 0 0 0 816.21,155.2969" fill="#FEFFDD" style="stroke:#181818;stroke-width:0.5;"/><path d="M1093.3545,155.2969 L1093.3545,165.2969 L1103.3545,165.2969 L1093.3545,155.2969" fill="#FEFFDD" style="stroke:#181818;stroke-width:0.5;"/><text fill="#000000" font-family="sans-serif" font-size="13" font-weight="bold" lengthAdjust="spacing" textLength="109.0273" x="822.21" y="172.3638">Pending State:</text><text fill="#000000" font-family="sans-serif" font-size="13" lengthAdjust="spacing" textLength="115.2163" x="822.21" y="187.4966">- Booking created</text><text fill="#000000" font-family="sans-serif" font-size="13" lengthAdjust="spacing" textLength="228.4521" x="822.21" y="202.6294">- Waiting for payment details entry</text><text fill="#000000" font-family="sans-serif" font-size="13" lengthAdjust="spacing" textLength="144.1362" x="822.21" y="217.7622">- Timeout: 15 minutes</text><text fill="#000000" font-family="sans-serif" font-size="13" lengthAdjust="spacing" textLength="266.1445" x="822.21" y="232.895">- No connection to payment gateway yet</text></g><g class="entity" data-entity="GMN5" data-source-line="57" data-uid="ent0006" id="entity_GMN5"><path d="M641.71,333.2969 L641.71,372.2969 L606.52,376.2969 L641.71,380.2969 L641.71,418.9609 A0,0 0 0 0 641.71,418.9609 L873.7759,418.9609 A0,0 0 0 0 873.7759,418.9609 L873.7759,343.2969 L863.7759,333.2969 L641.71,333.2969 A0,0 0 0 0 641.71,333.2969" fill="#FEFFDD" style="stroke:#181818;stroke-width:0.5;"/><path d="M863.7759,333.2969 L863.7759,343.2969 L873.7759,343.2969 L863.7759,333.2969" fill="#FEFFDD" style="stroke:#181818;stroke-width:0.5;"/><text fill="#000000" font-family="sans-serif" font-size="13" font-weight="bold" lengthAdjust="spacing" textLength="128.9907" x="647.71" y="350.3638">Processing State:</text><text fill="#000000" font-family="sans-serif" font-size="13" lengthAdjust="spacing" textLength="211.0659" x="647.71" y="365.4966">- Data sent to payment gateway</text><text fill="#000000" font-family="sans-serif" font-size="13" lengthAdjust="spacing" textLength="149.792" x="647.71" y="380.6294">- Card validation check</text><text fill="#000000" font-family="sans-serif" font-size="13" lengthAdjust="spacing" textLength="165.9341" x="647.71" y="395.7622">- Available balance check</text><text fill="#000000" font-family="sans-serif" font-size="13" lengthAdjust="spacing" textLength="195.4189" x="647.71" y="410.895">- Transaction code generation</text></g><g class="entity" data-entity="GMN8" data-source-line="65" data-uid="ent0009" id="entity_GMN8"><path d="M416.71,529.2969 L416.71,568.2969 L381.79,572.2969 L416.71,576.2969 L416.71,614.9609 A0,0 0 0 0 416.71,614.9609 L612.3213,614.9609 A0,0 0 0 0 612.3213,614.9609 L612.3213,539.2969 L602.3213,529.2969 L416.71,529.2969 A0,0 0 0 0 416.71,529.2969" fill="#FEFFDD" style="stroke:#181818;stroke-width:0.5;"/><path d="M602.3213,529.2969 L602.3213,539.2969 L612.3213,539.2969 L602.3213,529.2969" fill="#FEFFDD" style="stroke:#181818;stroke-width:0.5;"/><text fill="#000000" font-family="sans-serif" font-size="13" font-weight="bold" lengthAdjust="spacing" textLength="129.3779" x="422.71" y="546.3638">Authorized State:</text><text fill="#000000" font-family="sans-serif" font-size="13" lengthAdjust="spacing" textLength="139.9785" x="422.71" y="561.4966">- Payment authorized</text><text fill="#000000" font-family="sans-serif" font-size="13" lengthAdjust="spacing" textLength="174.6113" x="422.71" y="576.6294">- Amount reserved on card</text><text fill="#000000" font-family="sans-serif" font-size="13" lengthAdjust="spacing" textLength="118.9487" x="422.71" y="591.7622">- Not captured yet</text><text fill="#000000" font-family="sans-serif" font-size="13" lengthAdjust="spacing" textLength="145.647" x="422.71" y="606.895">- Valid for limited time</text></g><g class="entity" data-entity="GMN11" data-source-line="73" data-uid="ent0012" id="entity_GMN11"><path d="M236.71,707.2969 L236.71,753.7969 L201.99,757.7969 L236.71,761.7969 L236.71,808.0938 A0,0 0 0 0 236.71,808.0938 L482.6138,808.0938 A0,0 0 0 0 482.6138,808.0938 L482.6138,717.2969 L472.6138,707.2969 L236.71,707.2969 A0,0 0 0 0 236.71,707.2969" fill="#FEFFDD" style="stroke:#181818;stroke-width:0.5;"/><path d="M472.6138,707.2969 L472.6138,717.2969 L482.6138,717.2969 L472.6138,707.2969" fill="#FEFFDD" style="stroke:#181818;stroke-width:0.5;"/><text fill="#000000" font-family="sans-serif" font-size="13" font-weight="bold" lengthAdjust="spacing" textLength="128.0386" x="242.71" y="724.3638">Completed State:</text><text fill="#000000" font-family="sans-serif" font-size="13" lengthAdjust="spacing" textLength="192.9497" x="242.71" y="739.4966">- Funds captured successfully</text><text fill="#000000" font-family="sans-serif" font-size="13" lengthAdjust="spacing" textLength="224.9038" x="242.71" y="754.6294">- Booking status updated to "paid"</text><text fill="#000000" font-family="sans-serif" font-size="13" lengthAdjust="spacing" textLength="143.438" x="242.71" y="769.7622">- transaction_id saved</text><text fill="#000000" font-family="sans-serif" font-size="13" lengthAdjust="spacing" textLength="90.2002" x="242.71" y="784.895">- Receipt sent</text><text fill="#000000" font-family="sans-serif" font-size="13" lengthAdjust="spacing" textLength="182.7109" x="242.71" y="800.0278">- Can be refunded if needed</text></g><g class="entity" data-entity="GMN14" data-source-line="82" data-uid="ent0015" id="entity_GMN14"><path d="M433.21,1205.2969 L433.21,1351.4922 A0,0 0 0 0 433.21,1351.4922 L638.3301,1351.4922 A0,0 0 0 0 638.3301,1351.4922 L638.3301,1215.2969 L628.3301,1205.2969 L539.71,1205.2969 L535.71,1110.4869 L531.71,1205.2969 L433.21,1205.2969 A0,0 0 0 0 433.21,1205.2969" fill="#FEFFDD" style="stroke:#181818;stroke-width:0.5;"/><path d="M628.3301,1205.2969 L628.3301,1215.2969 L638.3301,1215.2969 L628.3301,1205.2969" fill="#FEFFDD" style="stroke:#181818;stroke-width:0.5;"/><text fill="#000000" font-family="sans-serif" font-size="13" font-weight="bold" lengthAdjust="spacing" textLength="93.793" x="439.21" y="1222.3638">Failed State:</text><text fill="#000000" font-family="sans-serif" font-size="13" lengthAdjust="spacing" textLength="125.252" x="439.21" y="1237.4966">- Transaction failed</text><text fill="#000000" font-family="sans-serif" font-size="13" lengthAdjust="spacing" textLength="121.1958" x="439.21" y="1252.6294">- Possible reasons:</text><text fill="#000000" font-family="sans-serif" font-size="13" lengthAdjust="spacing" textLength="123.957" x="447.4746" y="1267.7622">&#8226; Insufficient funds</text><text fill="#000000" font-family="sans-serif" font-size="13" lengthAdjust="spacing" textLength="87.8516" x="447.4746" y="1282.895">&#8226; Invalid card</text><text fill="#000000" font-family="sans-serif" font-size="13" lengthAdjust="spacing" textLength="109.8208" x="447.4746" y="1298.0278">&#8226; Technical error</text><text fill="#000000" font-family="sans-serif" font-size="13" lengthAdjust="spacing" textLength="105.5869" x="447.4746" y="1313.1606">&#8226; Bank rejection</text><text fill="#000000" font-family="sans-serif" font-size="13" lengthAdjust="spacing" textLength="184.1201" x="439.21" y="1328.2935">- Cancel booking (if needed)</text><text fill="#000000" font-family="sans-serif" font-size="13" lengthAdjust="spacing" textLength="119.2153" x="439.21" y="1343.4263">- Release capacity</text></g><g class="entity" data-entity="GMN17" data-source-line="94" data-uid="ent0018" id="entity_GMN17"><path d="M226.21,1042.2969 L226.21,1127.9609 L468.8511,1127.9609 L468.8511,1052.2969 L458.8511,1042.2969 L226.21,1042.2969" fill="#FEFFDD" style="stroke:#181818;stroke-width:0.5;"/><path d="M458.8511,1042.2969 L458.8511,1052.2969 L468.8511,1052.2969 L458.8511,1042.2969" fill="#FEFFDD" style="stroke:#181818;stroke-width:1;"/><text fill="#000000" font-family="sans-serif" font-size="13" font-weight="bold" lengthAdjust="spacing" textLength="165.8516" x="232.21" y="1059.3638">Refund Pending State:</text><text fill="#000000" font-family="sans-serif" font-size="13" lengthAdjust="spacing" textLength="179.1118" x="232.21" y="1074.4966">- Refund request submitted</text><text fill="#000000" font-family="sans-serif" font-size="13" lengthAdjust="spacing" textLength="221.6411" x="232.21" y="1089.6294">- Connecting to payment gateway</text><text fill="#000000" font-family="sans-serif" font-size="13" lengthAdjust="spacing" textLength="125.5376" x="232.21" y="1104.7622">- Processing refund</text><text fill="#000000" font-family="sans-serif" font-size="13" lengthAdjust="spacing" textLength="189.395" x="232.21" y="1119.895">- May take 3-5 business days</text></g><g class="entity" data-entity="GMN20" data-source-line="102" data-uid="ent0021" id="entity_GMN20"><path d="M9.21,1227.7969 L9.21,1328.5938 A0,0 0 0 0 9.21,1328.5938 L285.9317,1328.5938 A0,0 0 0 0 285.9317,1328.5938 L285.9317,1237.7969 L275.9317,1227.7969 L151.71,1227.7969 L147.71,1110.4869 L143.71,1227.7969 L9.21,1227.7969 A0,0 0 0 0 9.21,1227.7969" fill="#FEFFDD" style="stroke:#181818;stroke-width:0.5;"/><path d="M275.9317,1227.7969 L275.9317,1237.7969 L285.9317,1237.7969 L275.9317,1227.7969" fill="#FEFFDD" style="stroke:#181818;stroke-width:0.5;"/><text fill="#000000" font-family="sans-serif" font-size="13" font-weight="bold" lengthAdjust="spacing" textLength="119.5264" x="15.21" y="1244.8638">Refunded State:</text><text fill="#000000" font-family="sans-serif" font-size="13" lengthAdjust="spacing" textLength="126.5723" x="15.21" y="1259.9966">- Refund successful</text><text fill="#000000" font-family="sans-serif" font-size="13" lengthAdjust="spacing" textLength="192.5879" x="15.21" y="1275.1294">- refund_transaction_id saved</text><text fill="#000000" font-family="sans-serif" font-size="13" lengthAdjust="spacing" textLength="255.7217" x="15.21" y="1290.2622">- Booking status updated to "refunded"</text><text fill="#000000" font-family="sans-serif" font-size="13" lengthAdjust="spacing" textLength="164.6392" x="15.21" y="1305.395">- Refund notification sent</text><text fill="#000000" font-family="sans-serif" font-size="13" lengthAdjust="spacing" textLength="136.0112" x="15.21" y="1320.5278">- Ready for archiving</text></g><!--link *start* to Pending--><g class="link" data-entity-1=".start." data-entity-2="Pending" data-source-line="11" data-uid="lnk3" id="link_.start._Pending"><path d="M742.71,63.6769 C742.71,85.6769 742.71,135.1269 742.71,167.2569" fill="none" id="*start*-to-Pending" style="stroke:#000000;stroke-width:1;"/><polygon fill="#000000" points="742.71,173.2569,746.71,164.2569,742.71,168.2569,738.71,164.2569,742.71,173.2569" style="stroke:#000000;stroke-width:1;"/><text fill="#000000" font-family="sans-serif" font-size="13" lengthAdjust="spacing" textLength="107.4976" x="747.8963" y="106.3638">Initiate payment</text><text fill="#000000" font-family="sans-serif" font-size="13" lengthAdjust="spacing" textLength="115.8701" x="743.71" y="121.4966">[booking created]</text></g><!--link Pending to Processing--><g class="link" data-entity-1="Pending" data-entity-2="Processing" data-source-line="22" data-uid="lnk4" id="link_Pending_Processing"><path d="M717.51,223.3969 C682.37,257.0069 623.3654,313.4491 588.2354,347.0591" fill="none" id="Pending-to-Processing" style="stroke:#000000;stroke-width:1;"/><polygon fill="#000000" points="583.9,351.2069,593.1683,347.8754,587.5128,347.7504,587.6379,342.0949,583.9,351.2069" style="stroke:#000000;stroke-width:1;"/><text fill="#000000" font-family="sans-serif" font-size="13" lengthAdjust="spacing" textLength="147.2148" x="680.3802" y="284.3638">User submits payment</text><text fill="#000000" font-family="sans-serif" font-size="13" lengthAdjust="spacing" textLength="170.5552" x="668.71" y="299.4966">[payment details entered]</text></g><!--link Pending to Cancelled--><g class="link" data-entity-1="Pending" data-entity-2="Cancelled" data-source-line="24" data-uid="lnk5" id="link_Pending_Cancelled"><path d="M773.73,223.3769 C781.76,229.3769 790.47,235.6969 798.71,241.2969 C819.84,255.6369 829.15,253.7669 847.71,271.2969 C899.45,320.1669 916.991,401.0387 923.081,443.1387" fill="none" id="Pending-to-Cancelled" style="stroke:#000000;stroke-width:1;"/><polygon fill="#000000" points="923.94,449.0769,926.6103,439.5969,923.2242,444.1284,918.6927,440.7422,923.94,449.0769" style="stroke:#000000;stroke-width:1;"/><text fill="#000000" font-family="sans-serif" font-size="13" lengthAdjust="spacing" textLength="82.6465" x="921.035" y="284.3638">User cancels</text><text fill="#000000" font-family="sans-serif" font-size="13" lengthAdjust="spacing" textLength="177.2964" x="873.71" y="299.4966">[timeout or manual cancel]</text></g><!--link Processing to Authorized--><g class="link" data-entity-1="Processing" data-entity-2="Authorized" data-source-line="26" data-uid="lnk6" id="link_Processing_Authorized"><path d="M516.87,401.4569 C495.61,414.5069 469.88,431.5669 448.71,449.2969 C412.12,479.9469 379.0798,516.8116 357.2798,542.6416" fill="none" id="Processing-to-Authorized" style="stroke:#000000;stroke-width:1;"/><polygon fill="#000000" points="353.41,547.2269,362.2716,542.9289,356.6349,543.4059,356.1579,537.7691,353.41,547.2269" style="stroke:#000000;stroke-width:1;"/><text fill="#000000" font-family="sans-serif" font-size="13" lengthAdjust="spacing" textLength="189.4141" x="449.71" y="471.3638">Payment gateway authorizes</text><text fill="#000000" font-family="sans-serif" font-size="13" lengthAdjust="spacing" textLength="109.0337" x="489.9002" y="486.4966">[funds available]</text></g><!--link Processing to Failed--><g class="link" data-entity-1="Processing" data-entity-2="Failed" data-source-line="28" data-uid="lnk7" id="link_Processing_Failed"><path d="M597.99,401.5469 C614.63,413.8369 632.69,430.1969 643.71,449.2969 C671.24,497.0269 665.71,516.1969 665.71,571.2969 C665.71,571.2969 665.71,571.2969 665.71,926.2969 C665.71,988.2869 610.2735,1035.8059 571.8135,1061.9259" fill="none" id="Processing-to-Failed" style="stroke:#000000;stroke-width:1;"/><polygon fill="#000000" points="566.85,1065.2969,576.5426,1063.5494,570.9863,1062.4877,572.048,1056.9314,566.85,1065.2969" style="stroke:#000000;stroke-width:1;"/><text fill="#000000" font-family="sans-serif" font-size="13" lengthAdjust="spacing" textLength="165.3374" x="687.1272" y="754.8638">Payment gateway rejects</text><text fill="#000000" font-family="sans-serif" font-size="13" lengthAdjust="spacing" textLength="206.1719" x="666.71" y="769.9966">[insufficient funds, invalid card]</text></g><!--link Authorized to Completed--><g class="link" data-entity-1="Authorized" data-entity-2="Completed" data-source-line="30" data-uid="lnk8" id="link_Authorized_Completed"><path d="M309.81,597.6669 C275.28,632.8569 216.0422,693.2541 181.6222,728.3341" fill="none" id="Authorized-to-Completed" style="stroke:#000000;stroke-width:1;"/><polygon fill="#000000" points="177.42,732.6169,186.5784,728.9942,180.9218,729.0479,180.8681,723.3913,177.42,732.6169" style="stroke:#000000;stroke-width:1;"/><text fill="#000000" font-family="sans-serif" font-size="13" lengthAdjust="spacing" textLength="123.3857" x="261.71" y="658.3638">Capture successful</text><text fill="#000000" font-family="sans-serif" font-size="13" lengthAdjust="spacing" textLength="108.6528" x="269.0765" y="673.4966">[funds captured]</text></g><!--link Authorized to Failed--><g class="link" data-entity-1="Authorized" data-entity-2="Failed" data-source-line="32" data-uid="lnk9" id="link_Authorized_Failed"><path d="M369.96,597.5269 C414.06,627.8069 484.54,679.0769 499.71,707.2969 C532.72,768.6769 535.7451,980.9369 535.8051,1054.1569" fill="none" id="Authorized-to-Failed" style="stroke:#000000;stroke-width:1;"/><polygon fill="#000000" points="535.81,1060.1569,539.81,1051.1569,535.81,1055.1569,531.81,1051.1569,535.81,1060.1569" style="stroke:#000000;stroke-width:1;"/><text fill="#000000" font-family="sans-serif" font-size="13" lengthAdjust="spacing" textLength="92.1235" x="537.3084" y="851.3638">Capture failed</text><text fill="#000000" font-family="sans-serif" font-size="13" lengthAdjust="spacing" textLength="105.3203" x="530.71" y="866.4966">[technical error]</text></g><!--link Completed to RefundPending--><g class="link" data-entity-1="Completed" data-entity-2="RefundPending" data-source-line="34" data-uid="lnk10" id="link_Completed_RefundPending"><path d="M171.16,782.8669 C193.91,814.2369 229.9587,863.9488 252.7187,895.3488" fill="none" id="Completed-to-RefundPending" style="stroke:#000000;stroke-width:1;"/><polygon fill="#000000" points="256.24,900.2069,254.1967,890.5723,253.3056,896.1585,247.7194,895.2674,256.24,900.2069" style="stroke:#000000;stroke-width:1;"/><text fill="#000000" font-family="sans-serif" font-size="13" lengthAdjust="spacing" textLength="116.4224" x="238.5181" y="851.3638">Refund requested</text><text fill="#000000" font-family="sans-serif" font-size="13" lengthAdjust="spacing" textLength="128.0386" x="232.71" y="866.4966">[booking cancelled]</text></g><!--link RefundPending to Refunded--><g class="link" data-entity-1="RefundPending" data-entity-2="Refunded" data-source-line="36" data-uid="lnk11" id="link_RefundPending_Refunded"><path d="M227.58,950.5169 C215.08,958.7069 202.35,968.7469 192.71,980.2969 C173.04,1003.8569 162.3365,1031.5747 155.6465,1054.1247" fill="none" id="RefundPending-to-Refunded" style="stroke:#000000;stroke-width:1;"/><polygon fill="#000000" points="153.94,1059.8769,160.3346,1052.3863,155.3621,1055.0834,152.665,1050.1109,153.94,1059.8769" style="stroke:#000000;stroke-width:1;"/><text fill="#000000" font-family="sans-serif" font-size="13" lengthAdjust="spacing" textLength="117.749" x="196.5442" y="993.3638">Refund successful</text><text fill="#000000" font-family="sans-serif" font-size="13" lengthAdjust="spacing" textLength="123.4175" x="193.71" y="1008.4966">[refund processed]</text></g><!--link RefundPending to Failed--><g class="link" data-entity-1="RefundPending" data-entity-2="Failed" data-source-line="38" data-uid="lnk12" id="link_RefundPending_Failed"><path d="M312.01,950.3869 C326.43,959.5969 342.92,970.2869 357.71,980.2969 C378.04,994.0469 380.95,1000.9469 402.71,1012.2969 C437.86,1030.6269 452.42,1022.3969 486.71,1042.2969 C495.24,1047.2469 499.147,1049.8375 506.577,1056.2475" fill="none" id="RefundPending-to-Failed" style="stroke:#000000;stroke-width:1;"/><polygon fill="#000000" points="511.12,1060.1669,506.9184,1051.2592,507.3342,1056.9008,501.6926,1057.3165,511.12,1060.1669" style="stroke:#000000;stroke-width:1;"/><text fill="#000000" font-family="sans-serif" font-size="13" lengthAdjust="spacing" textLength="86.4868" x="413.1267" y="993.3638">Refund failed</text><text fill="#000000" font-family="sans-serif" font-size="13" lengthAdjust="spacing" textLength="105.3203" x="403.71" y="1008.4966">[technical error]</text></g><!--link Failed to *end*--><g class="link" data-entity-1="Failed" data-entity-2=".end." data-source-line="40" data-uid="lnk14" id="link_Failed_.end."><path d="M511.11,1110.4069 C503.68,1116.8169 495.23,1123.3269 486.71,1128.2969 C452.82,1148.0469 431.55,1130.6669 403.71,1158.2969 C372.45,1189.3369 363.8539,1238.5448 361.2939,1261.1948" fill="none" id="Failed-to-*end*" style="stroke:#000000;stroke-width:1;"/><polygon fill="#000000" points="360.62,1267.1569,365.6055,1258.6631,361.1815,1262.1885,357.6561,1257.7646,360.62,1267.1569" style="stroke:#000000;stroke-width:1;"/><text fill="#000000" font-family="sans-serif" font-size="13" lengthAdjust="spacing" textLength="122.1479" x="404.71" y="1171.3638">Transaction closed</text></g><!--link Cancelled to *end*--><g class="link" data-entity-1="Cancelled" data-entity-2=".end." data-source-line="42" data-uid="lnk15" id="link_Cancelled_.end."><path d="M926.71,499.5369 C926.71,534.8869 926.71,602.6469 926.71,660.2969 C926.71,660.2969 926.71,660.2969 926.71,1086.2969 C926.71,1202.8869 513.92,1142.4469 415.71,1205.2969 C390.63,1221.3469 374.95,1247.3294 366.92,1262.8294" fill="none" id="Cancelled-to-*end*" style="stroke:#000000;stroke-width:1;"/><polygon fill="#000000" points="364.16,1268.1569,371.8517,1262.0056,366.46,1263.7173,364.7483,1258.3256,364.16,1268.1569" style="stroke:#000000;stroke-width:1;"/><text fill="#000000" font-family="sans-serif" font-size="13" lengthAdjust="spacing" textLength="122.1479" x="927.71" y="858.8638">Transaction closed</text></g><!--link Completed to *end*--><g class="link" data-entity-1="Completed" data-entity-2=".end." data-source-line="44" data-uid="lnk16" id="link_Completed_.end."><path d="M128.23,782.8969 C85.47,826.3369 6,921.7269 27.71,1012.2969 C41.19,1068.5469 43.32,1090.0569 86.71,1128.2969 C133.12,1169.1969 159.4,1154.6669 217.71,1175.2969 C255.87,1188.7969 270.83,1181.6869 303.71,1205.2969 C327.64,1222.4769 343.452,1247.4487 351.902,1262.6987" fill="none" id="Completed-to-*end*" style="stroke:#000000;stroke-width:1;"/><polygon fill="#000000" points="354.81,1267.9469,353.9468,1258.1359,352.3867,1263.5734,346.9492,1262.0133,354.81,1267.9469" style="stroke:#000000;stroke-width:1;"/><text fill="#000000" font-family="sans-serif" font-size="13" lengthAdjust="spacing" textLength="136.665" x="28.71" y="993.3638">Transaction archived</text><text fill="#000000" font-family="sans-serif" font-size="13" lengthAdjust="spacing" textLength="125.9883" x="34.0484" y="1008.4966">[no refund needed]</text></g><!--link Refunded to *end*--><g class="link" data-entity-1="Refunded" data-entity-2=".end." data-source-line="46" data-uid="lnk17" id="link_Refunded_.end."><path d="M170.79,1110.4769 C189.77,1129.5369 217.97,1156.0169 245.71,1175.2969 C269.54,1191.8569 281.39,1186.7469 303.71,1205.2969 C326.36,1224.1269 342.5643,1248.4672 351.4243,1263.1772" fill="none" id="Refunded-to-*end*" style="stroke:#000000;stroke-width:1;"/><polygon fill="#000000" points="354.52,1268.3169,353.3029,1258.5435,351.9402,1264.0338,346.45,1262.6711,354.52,1268.3169" style="stroke:#000000;stroke-width:1;"/><text fill="#000000" font-family="sans-serif" font-size="13" lengthAdjust="spacing" textLength="136.665" x="246.71" y="1171.3638">Transaction archived</text></g><!--link RefundPending to GMN17--><g class="link" data-entity-1="RefundPending" data-entity-2="GMN17" data-source-line="94" data-uid="lnk19" id="link_RefundPending_GMN17"><path d="M302.67,950.5469 C311.26,959.1169 319.92,969.3769 325.71,980.2969 C335.78,999.2969 341.24,1022.5369 344.2,1042.2269" fill="none" id="RefundPending-GMN17" style="stroke:#000000;stroke-width:1;stroke-dasharray:7,7;"/></g><g class="legend" data-source-line="110"><rect fill="#DDDDDD" height="254.4531" rx="7.5" ry="7.5" style="stroke:#000000;stroke-width:1;" width="270.6543" x="813.7002" y="1369.4922"/><text fill="#000000" font-family="sans-serif" font-size="14" font-weight="bold" lengthAdjust="spacing" textLength="244.7129" x="818.7002" y="1387.4873">Supported Payment Gateways:</text><text fill="#000000" font-family="sans-serif" font-size="14" lengthAdjust="spacing" textLength="140.1572" x="818.7002" y="1403.7842">&#8226; Credit/Debit cards</text><text fill="#000000" font-family="sans-serif" font-size="14" lengthAdjust="spacing" textLength="131.0381" x="818.7002" y="1420.0811">&#8226; PayPal (optional)</text><text fill="#000000" font-family="sans-serif" font-size="14" lengthAdjust="spacing" textLength="93.2012" x="818.7002" y="1436.3779">&#8226; Pay on visit</text><text fill="#000000" font-family="sans-serif" font-size="14" lengthAdjust="spacing" textLength="4.4502" x="818.7002" y="1452.6748">&#160;</text><text fill="#000000" font-family="sans-serif" font-size="14" font-weight="bold" lengthAdjust="spacing" textLength="78.6406" x="818.7002" y="1468.9717">Timeouts:</text><text fill="#000000" font-family="sans-serif" font-size="14" lengthAdjust="spacing" textLength="246.7227" x="818.7002" y="1485.2686">&#8226; Pending &#8594; Cancelled: 15 minutes</text><text fill="#000000" font-family="sans-serif" font-size="14" lengthAdjust="spacing" textLength="260.6543" x="818.7002" y="1501.5654">&#8226; Processing: 30 seconds - 2 minutes</text><text fill="#000000" font-family="sans-serif" font-size="14" lengthAdjust="spacing" textLength="197.6064" x="818.7002" y="1517.8623">&#8226; Refund: 3-5 business days</text><text fill="#000000" font-family="sans-serif" font-size="14" lengthAdjust="spacing" textLength="4.4502" x="818.7002" y="1534.1592">&#160;</text><text fill="#000000" font-family="sans-serif" font-size="14" font-weight="bold" lengthAdjust="spacing" textLength="70.9639" x="818.7002" y="1550.4561">Security:</text><text fill="#000000" font-family="sans-serif" font-size="14" lengthAdjust="spacing" textLength="144.0947" x="818.7002" y="1566.7529">&#8226; PCI DSS Compliant</text><text fill="#000000" font-family="sans-serif" font-size="14" lengthAdjust="spacing" textLength="136.4385" x="818.7002" y="1583.0498">&#8226; Card tokenization</text><text fill="#000000" font-family="sans-serif" font-size="14" lengthAdjust="spacing" textLength="157.3975" x="818.7002" y="1599.3467">&#8226; 3D Secure (optional)</text><text fill="#000000" font-family="sans-serif" font-size="14" lengthAdjust="spacing" textLength="123.4229" x="818.7002" y="1615.6436">&#8226; Fraud detection</text></g><!--SRC=[XLPBRXj74DtFAGfQsKA8V0Hlk0WWaP5X80a4KKaMZc4KPufKXyFkINUF3De8a5KEa2FaQ3v9gletCvHexJXLrQzVVLurtKxf3YtkmNdq19ygW2kiTrjhUjqiJ6ii_AYsztw5xTveyHhRa8sU9ThTBJLilRJMV8Z6gvRFisdbqVfeUcs9vEmF6L8E_LLLNlcMuFpy1WzxqXxkB6g7jLT6ot7cirIuPNRdvrNrzlmTp6RVmmtfHkajpE6DLbv9L1VF_wxVhetPYREsn8xcNLN5lCxIgJD0bn6AovgQd2lUyfa3Bdj_RwpwI4q863vpmCBikvPyyfUlxBv6rIPV_9aTjxJXAiEOMpGTCOp6194_okMeQshp1UMhgdAXGj5AKbotNnnPSFrwhxmRrIxzWeOyitJ0lyc66ewHoWKPg0u6nm1UxSdq7hZ1UzGzjiad2CFz0ZAKa55ozxUSpWSy06QdO4gk3l216U6wfSTGiQ9Fm5ZwWsel64gxVhDHjH9t0FmAb7x0LZNCq4g68q8XoTn2nbrWvtjBNB1QxjtqRQ5LHzSJ08LLFhq91YaIrVTQrLmSOirOFZfS9YSd0y00QKOi_TcJym6Y37bk1ODCZmr0WKJ2c6HWewsBrJo1KT9825_88eNAAL7gV2BckZLEHd8OdcVY9YLv78UslbSFWOasa5BHHCqeZsSFLvKsB20hwmtCfgm5a8sKYX2sq9pN3y2CLzzakGJRRyWxY6qR7led16GF8UekAcCEtxw2lTAz9nViFnkeZTOKYNbJ8F8G7yXN9BanqqTyXqKLA0-wcB1UeaTm0leOFmGiM08Gr82n2VSK5lWCBhFiO8sjj6xacxJDD0HRqcG3mad6eyqfZ4UQcJ3EIiPnEBFPyvlakTkyTRXz81SpzLH8NzGOYYR6NuF2fJEjubt77jbG9zaDUrl83ICuuNOz4Vv8KkrXCYEod7i7VTTWkDZ0MOUgEGj1VgZTUsRey26bU4irgSw7TgNUQ5XJcd36KPiqviTPh8ttPYzff2T6SaYQd2GmxjicXtBD3O-ET9fdsndjvcm5-FptV_pA7c_FaMjOeiLuDrqDnNw5UfUMiWh_96RfBO6yprwKx5wcQhHCXgJQM2j_E9tpzDMKrATFwxG4qvMQNi8iw4NI8nywePUHq69VWlKdLgl77S75x1MiUtPp33HuSC_HJiqgM-ifhiES1Mkyz_t9EVh25EPHEXl3Co_5BOxwByDtIzWSWdxYofJQ3hcqj9MF89-GmAhlEcFbdYpWrx5gBYOZGx1WqIZ_zPBMoeUnSSd1HsvuP5wOJZXW-tAmYz0Vb5DoIxWeRTCHR6xpvt_-7VwW76tR45TQDuUBRpXJthuivnbyTnGOwp9_efc9muhgtl9CZZWiti1ojOfhH66eOKXPrgitEzBg8wRH5_l54W88FKxwscBVo3EIj29rZkN-7m00]--></g></svg>