<svg xmlns="http://www.w3.org/2000/svg" xmlns:xlink="http://www.w3.org/1999/xlink" contentStyleType="text/css" data-diagram-type="STATE" height="1253px" preserveAspectRatio="none" style="width:1109px;height:1253px;background:#FFFFFF;" version="1.1" viewBox="0 0 1109 1253" width="1109px" zoomAndPan="magnify"><title>**Session Lifecycle State Diagram**</title><defs/><g><g class="title" data-source-line="9"><text fill="#000000" font-family="sans-serif" font-size="14" font-weight="bold" lengthAdjust="spacing" textLength="253.8115" x="420.8805" y="22.9951">Session Lifecycle State Diagram</text></g><g id="NoSession"><rect fill="#90EE90" height="50" rx="12.5" ry="12.5" style="stroke:#006400;stroke-width:0.5;" width="96.9043" x="447.28" y="158.2969"/><line style="stroke:#006400;stroke-width:0.5;" x1="447.28" x2="544.1843" y1="184.5938" y2="184.5938"/><text fill="#000000" font-family="sans-serif" font-size="14" lengthAdjust="spacing" textLength="76.9043" x="457.28" y="176.292">No Session</text></g><g id="Active"><rect fill="#90EE90" height="50" rx="12.5" ry="12.5" style="stroke:#006400;stroke-width:0.5;" width="63.5518" x="463.78" y="343.7969"/><line style="stroke:#006400;stroke-width:0.5;" x1="463.78" x2="527.3318" y1="370.0938" y2="370.0938"/><text fill="#000000" font-family="sans-serif" font-size="14" lengthAdjust="spacing" textLength="43.5518" x="473.78" y="361.792">Active</text></g><g id="Idle"><rect fill="#90EE90" height="50" rx="12.5" ry="12.5" style="stroke:#006400;stroke-width:0.5;" width="50" x="222.78" y="529.2969"/><line style="stroke:#006400;stroke-width:0.5;" x1="222.78" x2="272.78" y1="555.5938" y2="555.5938"/><text fill="#000000" font-family="sans-serif" font-size="14" lengthAdjust="spacing" textLength="25.5186" x="235.0207" y="547.292">Idle</text></g><g id="Expired"><rect fill="#90EE90" height="50" rx="12.5" ry="12.5" style="stroke:#006400;stroke-width:0.5;" width="73.1631" x="142.28" y="689.2969"/><line style="stroke:#006400;stroke-width:0.5;" x1="142.28" x2="215.4431" y1="715.5938" y2="715.5938"/><text fill="#000000" font-family="sans-serif" font-size="14" lengthAdjust="spacing" textLength="53.1631" x="152.28" y="707.292">Expired</text></g><g id="Terminated"><rect fill="#90EE90" height="50" rx="12.5" ry="12.5" style="stroke:#006400;stroke-width:0.5;" width="100.8896" x="549.28" y="689.2969"/><line style="stroke:#006400;stroke-width:0.5;" x1="549.28" x2="650.1696" y1="715.5938" y2="715.5938"/><text fill="#000000" font-family="sans-serif" font-size="14" lengthAdjust="spacing" textLength="80.8896" x="559.28" y="707.292">Terminated</text></g><ellipse cx="495.78" cy="53.2969" fill="#222222" rx="10" ry="10" style="stroke:#222222;stroke-width:1;"/><ellipse cx="366.78" cy="904.2969" fill="none" rx="11" ry="11" style="stroke:#222222;stroke-width:1;"/><ellipse cx="366.78" cy="904.2969" fill="#222222" rx="6" ry="6" style="stroke:#222222;stroke-width:1;"/><g class="entity" data-entity="GMN2" data-source-line="44" data-uid="ent0003" id="entity_GMN2"><path d="M579.78,140.2969 L579.78,179.2969 L544.35,183.2969 L579.78,187.2969 L579.78,225.9609 A0,0 0 0 0 579.78,225.9609 L829.5114,225.9609 A0,0 0 0 0 829.5114,225.9609 L829.5114,150.2969 L819.5114,140.2969 L579.78,140.2969 A0,0 0 0 0 579.78,140.2969" fill="#FEFFDD" style="stroke:#181818;stroke-width:0.5;"/><path d="M819.5114,140.2969 L819.5114,150.2969 L829.5114,150.2969 L819.5114,140.2969" fill="#FEFFDD" style="stroke:#181818;stroke-width:0.5;"/><text fill="#000000" font-family="sans-serif" font-size="13" font-weight="bold" lengthAdjust="spacing" textLength="129.7397" x="585.78" y="157.3638">No Session State:</text><text fill="#000000" font-family="sans-serif" font-size="13" lengthAdjust="spacing" textLength="122.4019" x="585.78" y="172.4966">- No active session</text><text fill="#000000" font-family="sans-serif" font-size="13" lengthAdjust="spacing" textLength="128.3115" x="585.78" y="187.6294">- User not logged in</text><text fill="#000000" font-family="sans-serif" font-size="13" lengthAdjust="spacing" textLength="182.3428" x="585.78" y="202.7622">- Can browse public content</text><text fill="#000000" font-family="sans-serif" font-size="13" lengthAdjust="spacing" textLength="228.7314" x="585.78" y="217.895">- Cannot access protected features</text></g><g class="entity" data-entity="GMN5" data-source-line="52" data-uid="ent0006" id="entity_GMN5"><path d="M743.78,318.2969 L743.78,364.7969 L527.94,368.7969 L743.78,372.7969 L743.78,419.0938 A0,0 0 0 0 743.78,419.0938 L979.3054,419.0938 A0,0 0 0 0 979.3054,419.0938 L979.3054,328.2969 L969.3054,318.2969 L743.78,318.2969 A0,0 0 0 0 743.78,318.2969" fill="#FEFFDD" style="stroke:#181818;stroke-width:0.5;"/><path d="M969.3054,318.2969 L969.3054,328.2969 L979.3054,328.2969 L969.3054,318.2969" fill="#FEFFDD" style="stroke:#181818;stroke-width:0.5;"/><text fill="#000000" font-family="sans-serif" font-size="13" font-weight="bold" lengthAdjust="spacing" textLength="94.834" x="749.78" y="335.3638">Active State:</text><text fill="#000000" font-family="sans-serif" font-size="13" lengthAdjust="spacing" textLength="165.9277" x="749.78" y="350.4966">- Session active and valid</text><text fill="#000000" font-family="sans-serif" font-size="13" lengthAdjust="spacing" textLength="214.5254" x="749.78" y="365.6294">- Update last_activity_timestamp</text><text fill="#000000" font-family="sans-serif" font-size="13" lengthAdjust="spacing" textLength="159.4912" x="749.78" y="380.7622">- Can access all features</text><text fill="#000000" font-family="sans-serif" font-size="13" lengthAdjust="spacing" textLength="140.0166" x="749.78" y="395.895">- Session cookie valid</text><text fill="#000000" font-family="sans-serif" font-size="13" lengthAdjust="spacing" textLength="151.2012" x="749.78" y="411.0278">- Track IP &amp; User Agent</text></g><g class="entity" data-entity="GMN8" data-source-line="61" data-uid="ent0009" id="entity_GMN8"><path d="M307.78,511.2969 L307.78,550.2969 L272.93,554.2969 L307.78,558.2969 L307.78,596.9609 A0,0 0 0 0 307.78,596.9609 L514.1189,596.9609 A0,0 0 0 0 514.1189,596.9609 L514.1189,521.2969 L504.1189,511.2969 L307.78,511.2969 A0,0 0 0 0 307.78,511.2969" fill="#FEFFDD" style="stroke:#181818;stroke-width:0.5;"/><path d="M504.1189,511.2969 L504.1189,521.2969 L514.1189,521.2969 L504.1189,511.2969" fill="#FEFFDD" style="stroke:#181818;stroke-width:0.5;"/><text fill="#000000" font-family="sans-serif" font-size="13" font-weight="bold" lengthAdjust="spacing" textLength="76.521" x="313.78" y="528.3638">Idle State:</text><text fill="#000000" font-family="sans-serif" font-size="13" lengthAdjust="spacing" textLength="177.9883" x="313.78" y="543.4966">- No activity for 15 minutes</text><text fill="#000000" font-family="sans-serif" font-size="13" lengthAdjust="spacing" textLength="120.5293" x="313.78" y="558.6294">- Session still valid</text><text fill="#000000" font-family="sans-serif" font-size="13" lengthAdjust="spacing" textLength="185.3389" x="313.78" y="573.7622">- Can return without re-login</text><text fill="#000000" font-family="sans-serif" font-size="13" lengthAdjust="spacing" textLength="180.5781" x="313.78" y="588.895">- If idle continues &#8594; expired</text></g><g class="entity" data-entity="GMN11" data-source-line="69" data-uid="ent0012" id="entity_GMN11"><path d="M29.28,846.2969 L29.28,962.2266 A0,0 0 0 0 29.28,962.2266 L269.8772,962.2266 A0,0 0 0 0 269.8772,962.2266 L269.8772,856.2969 L259.8772,846.2969 L162.61,846.2969 L175.04,739.4869 L154.61,846.2969 L29.28,846.2969 A0,0 0 0 0 29.28,846.2969" fill="#FEFFDD" style="stroke:#181818;stroke-width:0.5;"/><path d="M259.8772,846.2969 L259.8772,856.2969 L269.8772,856.2969 L259.8772,846.2969" fill="#FEFFDD" style="stroke:#181818;stroke-width:0.5;"/><text fill="#000000" font-family="sans-serif" font-size="13" font-weight="bold" lengthAdjust="spacing" textLength="104.6665" x="35.28" y="863.3638">Expired State:</text><text fill="#000000" font-family="sans-serif" font-size="13" lengthAdjust="spacing" textLength="145.209" x="35.28" y="878.4966">- Session time expired</text><text fill="#000000" font-family="sans-serif" font-size="13" lengthAdjust="spacing" textLength="106.2661" x="35.28" y="893.6294">- May be due to:</text><text fill="#000000" font-family="sans-serif" font-size="13" lengthAdjust="spacing" textLength="211.3325" x="43.5446" y="908.7622">&#8226; 24 hours passed from creation</text><text fill="#000000" font-family="sans-serif" font-size="13" lengthAdjust="spacing" textLength="206.6987" x="43.5446" y="923.895">&#8226; Idle for more than 30 minutes</text><text fill="#000000" font-family="sans-serif" font-size="13" lengthAdjust="spacing" textLength="158.8628" x="35.28" y="939.0278">- Deleted from database</text><text fill="#000000" font-family="sans-serif" font-size="13" lengthAdjust="spacing" textLength="119.9072" x="35.28" y="954.1606">- Requires re-login</text></g><g class="entity" data-entity="GMN14" data-source-line="79" data-uid="ent0015" id="entity_GMN14"><path d="M504.28,831.2969 L504.28,977.4922 A0,0 0 0 0 504.28,977.4922 L713.5515,977.4922 A0,0 0 0 0 713.5515,977.4922 L713.5515,841.2969 L703.5515,831.2969 L609.31,831.2969 L600.93,739.4869 L601.31,831.2969 L504.28,831.2969 A0,0 0 0 0 504.28,831.2969" fill="#FEFFDD" style="stroke:#181818;stroke-width:0.5;"/><path d="M703.5515,831.2969 L703.5515,841.2969 L713.5515,841.2969 L703.5515,831.2969" fill="#FEFFDD" style="stroke:#181818;stroke-width:0.5;"/><text fill="#000000" font-family="sans-serif" font-size="13" font-weight="bold" lengthAdjust="spacing" textLength="133.5674" x="510.28" y="848.3638">Terminated State:</text><text fill="#000000" font-family="sans-serif" font-size="13" lengthAdjust="spacing" textLength="188.2715" x="510.28" y="863.4966">- Manual session termination</text><text fill="#000000" font-family="sans-serif" font-size="13" lengthAdjust="spacing" textLength="106.2661" x="510.28" y="878.6294">- May be due to:</text><text fill="#000000" font-family="sans-serif" font-size="13" lengthAdjust="spacing" textLength="104.2793" x="518.5446" y="893.7622">&#8226; Manual logout</text><text fill="#000000" font-family="sans-serif" font-size="13" lengthAdjust="spacing" textLength="177.8486" x="518.5446" y="908.895">&#8226; Suspicious security event</text><text fill="#000000" font-family="sans-serif" font-size="13" lengthAdjust="spacing" textLength="125.3091" x="518.5446" y="924.0278">&#8226; Password change</text><text fill="#000000" font-family="sans-serif" font-size="13" lengthAdjust="spacing" textLength="141.502" x="518.5446" y="939.1606">&#8226; Account suspension</text><text fill="#000000" font-family="sans-serif" font-size="13" lengthAdjust="spacing" textLength="158.8628" x="510.28" y="954.2935">- Deleted from database</text><text fill="#000000" font-family="sans-serif" font-size="13" lengthAdjust="spacing" textLength="181.1812" x="510.28" y="969.4263">- Session cookie invalidated</text></g><!--link *start* to NoSession--><g class="link" data-entity-1=".start." data-entity-2="NoSession" data-source-line="11" data-uid="lnk3" id="link_.start._NoSession"><path d="M495.78,63.5069 C495.78,83.1069 495.78,123.5269 495.78,152.1869" fill="none" id="*start*-to-NoSession" style="stroke:#000000;stroke-width:1;"/><polygon fill="#000000" points="495.78,158.1869,499.78,149.1869,495.78,153.1869,491.78,149.1869,495.78,158.1869" style="stroke:#000000;stroke-width:1;"/><text fill="#000000" font-family="sans-serif" font-size="13" lengthAdjust="spacing" textLength="119.4883" x="496.78" y="106.3638">User not logged in</text></g><!--link NoSession to Active--><g class="link" data-entity-1="NoSession" data-entity-2="Active" data-source-line="19" data-uid="lnk4" id="link_NoSession_Active"><path d="M495.78,208.6669 C495.78,243.8569 495.78,302.5369 495.78,337.6169" fill="none" id="NoSession-to-Active" style="stroke:#000000;stroke-width:1;"/><polygon fill="#000000" points="495.78,343.6169,499.78,334.6169,495.78,338.6169,491.78,334.6169,495.78,343.6169" style="stroke:#000000;stroke-width:1;"/><text fill="#000000" font-family="sans-serif" font-size="13" lengthAdjust="spacing" textLength="104.5586" x="503.226" y="269.3638">Successful login</text><text fill="#000000" font-family="sans-serif" font-size="13" lengthAdjust="spacing" textLength="117.4507" x="496.78" y="284.4966">[valid credentials]</text></g><!--link Active to Active--><g class="link" data-entity-1="Active" data-entity-2="Active" data-source-line="21" data-uid="lnk5" id="link_Active_Active"><path d="M527.83,351.7169 C545.98,348.3869 562.78,354.0769 562.78,368.7969 C562.78,383.5169 551.8815,390.2896 533.7315,386.9596" fill="none" id="Active-to-Active" style="stroke:#000000;stroke-width:1;"/><polygon fill="#000000" points="527.83,385.8769,535.9604,391.4353,532.7479,386.7792,537.4041,383.5667,527.83,385.8769" style="stroke:#000000;stroke-width:1;"/><text fill="#000000" font-family="sans-serif" font-size="13" lengthAdjust="spacing" textLength="81.6816" x="603.8127" y="365.8638">User activity</text><text fill="#000000" font-family="sans-serif" font-size="13" lengthAdjust="spacing" textLength="151.7471" x="568.78" y="380.9966">[page request, API call]</text></g><!--link Active to Idle--><g class="link" data-entity-1="Active" data-entity-2="Idle" data-source-line="23" data-uid="lnk6" id="link_Active_Idle"><path d="M463.42,370.3769 C411.48,373.2169 310.23,386.9569 259.78,449.2969 C241.71,471.6169 240.7512,500.0389 243.1412,523.0889" fill="none" id="Active-to-Idle" style="stroke:#000000;stroke-width:1;"/><polygon fill="#000000" points="243.76,529.0569,246.8105,519.6923,243.2443,524.0835,238.8531,520.5174,243.76,529.0569" style="stroke:#000000;stroke-width:1;"/><text fill="#000000" font-family="sans-serif" font-size="13" lengthAdjust="spacing" textLength="69.729" x="275.1479" y="462.3638">No activity</text><text fill="#000000" font-family="sans-serif" font-size="13" lengthAdjust="spacing" textLength="98.4648" x="260.78" y="477.4966">[&gt; 15 minutes]</text></g><!--link Idle to Active--><g class="link" data-entity-1="Idle" data-entity-2="Active" data-source-line="33" data-uid="lnk11" id="link_Idle_Active"><path d="M268.53,529.2469 C274.89,522.8369 282.21,516.3069 289.78,511.2969 C319.36,491.6869 333.4,499.6469 363.78,481.2969 C375.04,474.4969 428.3743,428.5562 463.6443,397.8562" fill="none" id="Idle-to-Active" style="stroke:#000000;stroke-width:1;"/><polygon fill="#000000" points="468.17,393.9169,458.7553,396.8087,464.3986,397.1996,464.0076,402.843,468.17,393.9169" style="stroke:#000000;stroke-width:1;"/><text fill="#000000" font-family="sans-serif" font-size="13" lengthAdjust="spacing" textLength="80.7993" x="440.3554" y="462.3638">User returns</text><text fill="#000000" font-family="sans-serif" font-size="13" lengthAdjust="spacing" textLength="151.9502" x="404.78" y="477.4966">[user activity resumed]</text></g><!--link Active to Terminated--><g class="link" data-entity-1="Active" data-entity-2="Terminated" data-source-line="25" data-uid="lnk7" id="link_Active_Terminated"><path d="M521.79,393.8069 C535.96,408.4369 552.46,428.3069 561.78,449.2969 C598.33,531.6069 601.3564,635.2375 600.6664,683.1575" fill="none" id="Active-to-Terminated" style="stroke:#000000;stroke-width:1;"/><polygon fill="#000000" points="600.58,689.1569,604.7092,680.2154,600.652,684.1574,596.71,680.1002,600.58,689.1569" style="stroke:#000000;stroke-width:1;"/><text fill="#000000" font-family="sans-serif" font-size="13" lengthAdjust="spacing" textLength="74.8706" x="612.3796" y="551.3638">User logout</text><text fill="#000000" font-family="sans-serif" font-size="13" lengthAdjust="spacing" textLength="104.0698" x="597.78" y="566.4966">[manual logout]</text></g><!--link Active to Terminated--><g class="link" data-entity-1="Active" data-entity-2="Terminated" data-source-line="29" data-uid="lnk9" id="link_Active_Terminated"><path d="M527.97,379.9069 C577.76,397.4869 671.77,438.9169 710.78,511.2969 C728.91,544.9469 725.01,561.8269 710.78,597.2969 C695.41,635.5769 665.4282,664.6603 638.8882,685.5103" fill="none" id="Active-to-Terminated-1" style="stroke:#000000;stroke-width:1;"/><polygon fill="#000000" points="634.17,689.2169,643.7183,686.8024,638.1018,686.128,638.7762,680.5115,634.17,689.2169" style="stroke:#000000;stroke-width:1;"/><text fill="#000000" font-family="sans-serif" font-size="13" lengthAdjust="spacing" textLength="94.542" x="772.2793" y="551.3638">Security event</text><text fill="#000000" font-family="sans-serif" font-size="13" lengthAdjust="spacing" textLength="191.5405" x="723.78" y="566.4966">[suspicious activity detected]</text></g><!--link Active to Terminated--><g class="link" data-entity-1="Active" data-entity-2="Terminated" data-source-line="31" data-uid="lnk10" id="link_Active_Terminated"><path d="M527.93,375.4669 C619.09,392.2669 875.7,444.7769 923.78,511.2969 C946.16,542.2769 945.78,566.0469 923.78,597.2969 C861.43,685.8369 730.9371,706.7633 656.5571,711.6533" fill="none" id="Active-to-Terminated-2" style="stroke:#000000;stroke-width:1;"/><polygon fill="#000000" points="650.57,712.0469,659.813,715.4478,655.5592,711.7189,659.2882,707.4651,650.57,712.0469" style="stroke:#000000;stroke-width:1;"/><text fill="#000000" font-family="sans-serif" font-size="13" lengthAdjust="spacing" textLength="121.7607" x="960.2959" y="551.3638">Password changed</text><text fill="#000000" font-family="sans-serif" font-size="13" lengthAdjust="spacing" textLength="160.7925" x="940.78" y="566.4966">[all sessions invalidated]</text></g><!--link Active to Expired--><g class="link" data-entity-1="Active" data-entity-2="Expired" data-source-line="27" data-uid="lnk8" id="link_Active_Expired"><path d="M463.53,374.5569 C366.76,389.5869 82.22,439.2669 28.78,511.2969 C6,541.9969 11.94,562.9869 28.78,597.2969 C52.2,645.0269 100.4144,675.9918 136.7644,694.3518" fill="none" id="Active-to-Expired" style="stroke:#000000;stroke-width:1;"/><polygon fill="#000000" points="142.12,697.0569,135.89,689.4289,137.657,694.8027,132.2832,696.5697,142.12,697.0569" style="stroke:#000000;stroke-width:1;"/><text fill="#000000" font-family="sans-serif" font-size="13" lengthAdjust="spacing" textLength="104.3936" x="64.8603" y="551.3638">Session timeout</text><text fill="#000000" font-family="sans-serif" font-size="13" lengthAdjust="spacing" textLength="174.5542" x="29.78" y="566.4966">[&gt; 24 hours from creation]</text></g><!--link Idle to Expired--><g class="link" data-entity-1="Idle" data-entity-2="Expired" data-source-line="35" data-uid="lnk12" id="link_Idle_Expired"><path d="M237.15,579.6369 C224.14,609.4169 204.6601,654.0178 191.7101,683.6878" fill="none" id="Idle-to-Expired" style="stroke:#000000;stroke-width:1;"/><polygon fill="#000000" points="189.31,689.1869,196.5762,682.5384,191.3101,684.6044,189.2442,679.3382,189.31,689.1869" style="stroke:#000000;stroke-width:1;"/><text fill="#000000" font-family="sans-serif" font-size="13" lengthAdjust="spacing" textLength="78.4888" x="240.571" y="640.3638">Idle timeout</text><text fill="#000000" font-family="sans-serif" font-size="13" lengthAdjust="spacing" textLength="126.0708" x="216.78" y="655.4966">[&gt; 30 minutes idle]</text></g><!--link Idle to Terminated--><g class="link" data-entity-1="Idle" data-entity-2="Terminated" data-source-line="37" data-uid="lnk13" id="link_Idle_Terminated"><path d="M268.46,579.4369 C274.82,585.8569 282.16,592.3569 289.78,597.2969 C333.83,625.8769 467.249,670.9271 543.269,695.4171" fill="none" id="Idle-to-Terminated" style="stroke:#000000;stroke-width:1;"/><polygon fill="#000000" points="548.98,697.2569,541.6401,690.6899,544.2209,695.7237,539.187,698.3045,548.98,697.2569" style="stroke:#000000;stroke-width:1;"/><text fill="#000000" font-family="sans-serif" font-size="13" lengthAdjust="spacing" textLength="74.8706" x="450.3796" y="640.3638">User logout</text><text fill="#000000" font-family="sans-serif" font-size="13" lengthAdjust="spacing" textLength="104.0698" x="435.78" y="655.4966">[manual logout]</text></g><!--link Expired to *end*--><g class="link" data-entity-1="Expired" data-entity-2=".end." data-source-line="39" data-uid="lnk15" id="link_Expired_.end."><path d="M180.27,739.3569 C182.68,758.4169 188.89,784.5469 204.78,801.2969 C231.76,829.7569 254.19,811.0269 287.78,831.2969 C318.28,849.7069 343.5203,876.4803 356.2003,890.9803" fill="none" id="Expired-to-*end*" style="stroke:#000000;stroke-width:1;"/><polygon fill="#000000" points="360.15,895.4969,357.2365,886.0888,356.8586,891.733,351.2144,891.3551,360.15,895.4969" style="stroke:#000000;stroke-width:1;"/><text fill="#000000" font-family="sans-serif" font-size="13" lengthAdjust="spacing" textLength="125.5693" x="226.5559" y="782.3638">Session cleaned up</text><text fill="#000000" font-family="sans-serif" font-size="13" lengthAdjust="spacing" textLength="167.1211" x="205.78" y="797.4966">[removed from database]</text></g><!--link Terminated to *end*--><g class="link" data-entity-1="Terminated" data-entity-2=".end." data-source-line="41" data-uid="lnk16" id="link_Terminated_.end."><path d="M548.91,719.7869 C510.92,725.5869 459.88,738.8669 425.78,769.2969 C387.08,803.8169 373.6123,862.5046 369.3223,887.3146" fill="none" id="Terminated-to-*end*" style="stroke:#000000;stroke-width:1;"/><polygon fill="#000000" points="368.3,893.2269,373.775,885.04,369.1519,888.3,365.892,883.6769,368.3,893.2269" style="stroke:#000000;stroke-width:1;"/><text fill="#000000" font-family="sans-serif" font-size="13" lengthAdjust="spacing" textLength="125.5693" x="447.5559" y="782.3638">Session cleaned up</text><text fill="#000000" font-family="sans-serif" font-size="13" lengthAdjust="spacing" textLength="167.1211" x="426.78" y="797.4966">[removed from database]</text></g><g class="legend" data-source-line="90"><rect fill="#DDDDDD" height="238.1563" rx="7.5" ry="7.5" style="stroke:#000000;stroke-width:1;" width="328.1104" x="755.4621" y="995.4922"/><text fill="#000000" font-family="sans-serif" font-size="14" font-weight="bold" lengthAdjust="spacing" textLength="108.3359" x="760.4621" y="1013.4873">Time Periods:</text><text fill="#000000" font-family="sans-serif" font-size="14" lengthAdjust="spacing" textLength="190.5107" x="760.4621" y="1029.7842">&#8226; Active &#8594; Idle: 15 minutes</text><text fill="#000000" font-family="sans-serif" font-size="14" lengthAdjust="spacing" textLength="200.1221" x="760.4621" y="1046.0811">&#8226; Idle &#8594; Expired: 30 minutes</text><text fill="#000000" font-family="sans-serif" font-size="14" lengthAdjust="spacing" textLength="216.8359" x="760.4621" y="1062.3779">&#8226; Creation &#8594; Expired: 24 hours</text><text fill="#000000" font-family="sans-serif" font-size="14" lengthAdjust="spacing" textLength="4.4502" x="760.4621" y="1078.6748">&#160;</text><text fill="#000000" font-family="sans-serif" font-size="14" font-weight="bold" lengthAdjust="spacing" textLength="151.7441" x="760.4621" y="1094.9717">Security Measures:</text><text fill="#000000" font-family="sans-serif" font-size="14" lengthAdjust="spacing" textLength="115.7393" x="760.4621" y="1111.2686">&#8226; Log IP Address</text><text fill="#000000" font-family="sans-serif" font-size="14" lengthAdjust="spacing" textLength="120.21" x="760.4621" y="1127.5654">&#8226; Log User Agent</text><text fill="#000000" font-family="sans-serif" font-size="14" lengthAdjust="spacing" textLength="210.499" x="760.4621" y="1143.8623">&#8226; Monitor suspicious activities</text><text fill="#000000" font-family="sans-serif" font-size="14" lengthAdjust="spacing" textLength="318.1104" x="760.4621" y="1160.1592">&#8226; Terminate all sessions on password change</text><text fill="#000000" font-family="sans-serif" font-size="14" lengthAdjust="spacing" textLength="4.4502" x="760.4621" y="1176.4561">&#160;</text><text fill="#000000" font-family="sans-serif" font-size="14" font-weight="bold" lengthAdjust="spacing" textLength="69.5693" x="760.4621" y="1192.7529">Cleanup:</text><text fill="#000000" font-family="sans-serif" font-size="14" lengthAdjust="spacing" textLength="215.3184" x="760.4621" y="1209.0498">&#8226; Auto-delete expired sessions</text><text fill="#000000" font-family="sans-serif" font-size="14" lengthAdjust="spacing" textLength="208.8311" x="760.4621" y="1225.3467">&#8226; Periodic cleanup every hour</text></g><!--SRC=[dLNDRjGm4BxdAKOSEAnOYT_B7YfjMuGgKLInS09KUPtPr6fY1_-qL0Y94m_08_1eF0apTfmusnO9Rl6CP_pDDzzCtANIlR2Y0-U5H_XQ0HmAUTbO4tHzP5fZuRLgBlmhYwZPQMoDDZcEXRtCzhMrvZgP3rjAGAQD5zOdKxxrCkTyYtNrhQgyyYt2Oh51vvJHzDGEvOqasoR2ELQY8N2BHLLzM7o2vV80tfXyUGNl7LhGnaDhcWPhKBggKXqFtXWOxZq0uQQex5zBhwum-j9dTfpKRJBpHpQ-_D8hYtMq3z_PzGvjfpHz9kzqhAe9AWDFpn3gJP2IxBlGCcwbF-eFLw9LDKXAYzehqRfFLJNSduN6WWMVbB-Xk5uq21O_1tJ-4QpFJa2Ajfq7SnqKIeGKWGVmv0KGqE1nxwsfWFmUWJJ1Kr0dT13jS9v73QHmTKF9NdMOmWxWwNEuCC4ws5dJSPd2qvM_lBj16ImX1RmYGYY72wvNKfdWnYgWHe-IxlybpvbmxfeK2_92Q588PI9-m2MCZWGJcHSfIsJgDjyMVR3QKMmewIUx2zqySA8XcaeEdZtEV8CYNndr3vJd1pYC9sBYcuP6QFA4di8iTkQA3f5lAaziXUCdYvV-CmDD6ocEDmAONJ5MG5CypLmQtnNDBS1ob1vcugFrZk5byv7GiALTuX3wi6sL16cq9nLaBuU8E47GMvCa03kILA26LAXhJehxI8SXPvX3TsSGC-u1fw0iKHa9QSyAWLOuVvwxVywzfHNGzIFg0HGBR8HJvfR6N2eiyhwpj2ZXv0mU9ZBM3PTvNmLn7p7-g9ix2MPLxcYxJhCz0-2y8cpJ-mmwYHkkbQS9zNHSnfqK_IUxADNO04f7oltzuoVWiF_sS6wDzoGL0feN96FDUhsJRAPmJCUEKt43MuGwqEYO5Pa0Vd__DQsFdiOvQp9laV5Mf8MhxuobU1huOkPY-cDiqUzhEdhUqWeb56wg_zxgYWNF1HOJDQlnD0skowKErxBuxwdqj1ptqRgPbf-RBSRnnjwU6-rhAUa_xe7N9-fnzEudOa-hnNui66cnuKDKPYA16tc6LfdQ9GBIut6MM3FSczLSbcFBs3_8P3Nl65yv6jeylvOLGPSYWF5_SOh2yU1DA5wRXaTiNTTaTeMn6Bc1VAEL9_tS_jUe4SxORfZzHmXVVwi54TaHBzNG5wm4RvPrR43M_fXdk9AOvCsNWhdPzYPM7BkG-Fy3]--></g></svg>