<svg xmlns="http://www.w3.org/2000/svg" xmlns:xlink="http://www.w3.org/1999/xlink" contentStyleType="text/css" data-diagram-type="STATE" height="1397px" preserveAspectRatio="none" style="width:1486px;height:1397px;background:#FFFFFF;" version="1.1" viewBox="0 0 1486 1397" width="1486px" zoomAndPan="magnify"><title>**User Account Lifecycle State Diagram**</title><defs/><g><g class="title" data-source-line="9"><text fill="#000000" font-family="sans-serif" font-size="14" font-weight="bold" lengthAdjust="spacing" textLength="297.835" x="587.2092" y="22.9951">User Account Lifecycle State Diagram</text></g><g id="Unregistered"><rect fill="#E0FFFF" height="50" rx="12.5" ry="12.5" style="stroke:#00008B;stroke-width:0.5;" width="110.918" x="1031.73" y="158.2969"/><line style="stroke:#00008B;stroke-width:0.5;" x1="1031.73" x2="1142.648" y1="184.5938" y2="184.5938"/><text fill="#000000" font-family="sans-serif" font-size="14" lengthAdjust="spacing" textLength="90.918" x="1041.73" y="176.292">Unregistered</text></g><g id="Pending"><rect fill="#E0FFFF" height="50" rx="12.5" ry="12.5" style="stroke:#00008B;stroke-width:0.5;" width="160.6631" x="1006.73" y="343.7969"/><line style="stroke:#00008B;stroke-width:0.5;" x1="1006.73" x2="1167.3931" y1="370.0938" y2="370.0938"/><text fill="#000000" font-family="sans-serif" font-size="14" lengthAdjust="spacing" textLength="140.6631" x="1016.73" y="361.792">Pending Verification</text></g><g id="Active"><rect fill="#E0FFFF" height="50" rx="12.5" ry="12.5" style="stroke:#00008B;stroke-width:0.5;" width="63.5518" x="165.23" y="544.2969"/><line style="stroke:#00008B;stroke-width:0.5;" x1="165.23" x2="228.7818" y1="570.5938" y2="570.5938"/><text fill="#000000" font-family="sans-serif" font-size="14" lengthAdjust="spacing" textLength="43.5518" x="175.23" y="562.292">Active</text></g><g id="Inactive"><rect fill="#E0FFFF" height="50" rx="12.5" ry="12.5" style="stroke:#00008B;stroke-width:0.5;" width="75.5557" x="159.23" y="719.2969"/><line style="stroke:#00008B;stroke-width:0.5;" x1="159.23" x2="234.7857" y1="745.5938" y2="745.5938"/><text fill="#000000" font-family="sans-serif" font-size="14" lengthAdjust="spacing" textLength="55.5557" x="169.23" y="737.292">Inactive</text></g><g id="Suspended"><rect fill="#E0FFFF" height="50" rx="12.5" ry="12.5" style="stroke:#00008B;stroke-width:0.5;" width="97.8135" x="435.23" y="719.2969"/><line style="stroke:#00008B;stroke-width:0.5;" x1="435.23" x2="533.0435" y1="745.5938" y2="745.5938"/><text fill="#000000" font-family="sans-serif" font-size="14" lengthAdjust="spacing" textLength="77.8135" x="445.23" y="737.292">Suspended</text></g><g id="Deleted"><rect fill="#E0FFFF" height="50" rx="12.5" ry="12.5" style="stroke:#00008B;stroke-width:0.5;" width="74.8857" x="688.73" y="894.2969"/><line style="stroke:#00008B;stroke-width:0.5;" x1="688.73" x2="763.6157" y1="920.5938" y2="920.5938"/><text fill="#000000" font-family="sans-serif" font-size="14" lengthAdjust="spacing" textLength="54.8857" x="698.73" y="912.292">Deleted</text></g><ellipse cx="1087.23" cy="53.2969" fill="#222222" rx="10" ry="10" style="stroke:#222222;stroke-width:1;"/><ellipse cx="636.23" cy="1119.7969" fill="none" rx="11" ry="11" style="stroke:#222222;stroke-width:1;"/><ellipse cx="636.23" cy="1119.7969" fill="#222222" rx="6" ry="6" style="stroke:#222222;stroke-width:1;"/><g class="entity" data-entity="GMN2" data-source-line="53" data-uid="ent0003" id="entity_GMN2"><path d="M1177.73,140.2969 L1177.73,179.2969 L1142.82,183.2969 L1177.73,187.2969 L1177.73,225.9609 A0,0 0 0 0 1177.73,225.9609 L1378.6162,225.9609 A0,0 0 0 0 1378.6162,225.9609 L1378.6162,150.2969 L1368.6162,140.2969 L1177.73,140.2969 A0,0 0 0 0 1177.73,140.2969" fill="#FEFFDD" style="stroke:#181818;stroke-width:0.5;"/><path d="M1368.6162,140.2969 L1368.6162,150.2969 L1378.6162,150.2969 L1368.6162,140.2969" fill="#FEFFDD" style="stroke:#181818;stroke-width:0.5;"/><text fill="#000000" font-family="sans-serif" font-size="13" font-weight="bold" lengthAdjust="spacing" textLength="145.209" x="1183.73" y="157.3638">Unregistered State:</text><text fill="#000000" font-family="sans-serif" font-size="13" lengthAdjust="spacing" textLength="129.689" x="1183.73" y="172.4966">- Anonymous visitor</text><text fill="#000000" font-family="sans-serif" font-size="13" lengthAdjust="spacing" textLength="139.0962" x="1183.73" y="187.6294">- Can browse content</text><text fill="#000000" font-family="sans-serif" font-size="13" lengthAdjust="spacing" textLength="91.2158" x="1183.73" y="202.7622">- Cannot book</text><text fill="#000000" font-family="sans-serif" font-size="13" lengthAdjust="spacing" textLength="179.8862" x="1183.73" y="217.895">- Cannot register for events</text></g><g class="entity" data-entity="GMN5" data-source-line="61" data-uid="ent0006" id="entity_GMN5"><path d="M1203.23,318.2969 L1203.23,364.7969 L1168.09,368.7969 L1203.23,372.7969 L1203.23,419.0938 A0,0 0 0 0 1203.23,419.0938 L1479.2534,419.0938 A0,0 0 0 0 1479.2534,419.0938 L1479.2534,328.2969 L1469.2534,318.2969 L1203.23,318.2969 A0,0 0 0 0 1203.23,318.2969" fill="#FEFFDD" style="stroke:#181818;stroke-width:0.5;"/><path d="M1469.2534,318.2969 L1469.2534,328.2969 L1479.2534,328.2969 L1469.2534,318.2969" fill="#FEFFDD" style="stroke:#181818;stroke-width:0.5;"/><text fill="#000000" font-family="sans-serif" font-size="13" font-weight="bold" lengthAdjust="spacing" textLength="198.7451" x="1209.23" y="335.3638">Pending Verification State:</text><text fill="#000000" font-family="sans-serif" font-size="13" lengthAdjust="spacing" textLength="115.4766" x="1209.23" y="350.4966">- Account created</text><text fill="#000000" font-family="sans-serif" font-size="13" lengthAdjust="spacing" textLength="123.5317" x="1209.23" y="365.6294">- Email not verified</text><text fill="#000000" font-family="sans-serif" font-size="13" lengthAdjust="spacing" textLength="220.4478" x="1209.23" y="380.7622">- Verification token valid 24 hours</text><text fill="#000000" font-family="sans-serif" font-size="13" lengthAdjust="spacing" textLength="255.0234" x="1209.23" y="395.895">- If not verified within 7 days &#8594; deleted</text><text fill="#000000" font-family="sans-serif" font-size="13" lengthAdjust="spacing" textLength="91.1968" x="1209.23" y="411.0278">- Cannot login</text></g><g class="entity" data-entity="GMN8" data-source-line="70" data-uid="ent0009" id="entity_GMN8"><path d="M854.23,511.2969 L854.23,565.2969 L229.33,569.2969 L854.23,573.2969 L854.23,627.2266 A0,0 0 0 0 854.23,627.2266 L1033.8262,627.2266 A0,0 0 0 0 1033.8262,627.2266 L1033.8262,521.2969 L1023.8262,511.2969 L854.23,511.2969 A0,0 0 0 0 854.23,511.2969" fill="#FEFFDD" style="stroke:#181818;stroke-width:0.5;"/><path d="M1023.8262,511.2969 L1023.8262,521.2969 L1033.8262,521.2969 L1023.8262,511.2969" fill="#FEFFDD" style="stroke:#181818;stroke-width:0.5;"/><text fill="#000000" font-family="sans-serif" font-size="13" font-weight="bold" lengthAdjust="spacing" textLength="94.834" x="860.23" y="528.3638">Active State:</text><text fill="#000000" font-family="sans-serif" font-size="13" lengthAdjust="spacing" textLength="98.1094" x="860.23" y="543.4966">- Email verified</text><text fill="#000000" font-family="sans-serif" font-size="13" lengthAdjust="spacing" textLength="69.9067" x="860.23" y="558.6294">- Can login</text><text fill="#000000" font-family="sans-serif" font-size="13" lengthAdjust="spacing" textLength="69.9258" x="860.23" y="573.7622">- Can book</text><text fill="#000000" font-family="sans-serif" font-size="13" lengthAdjust="spacing" textLength="158.5962" x="860.23" y="588.895">- Can register for events</text><text fill="#000000" font-family="sans-serif" font-size="13" lengthAdjust="spacing" textLength="129.5239" x="860.23" y="604.0278">- Can update profile</text><text fill="#000000" font-family="sans-serif" font-size="13" lengthAdjust="spacing" textLength="145.8755" x="860.23" y="619.1606">- All features available</text></g><g class="entity" data-entity="GMN11" data-source-line="80" data-uid="ent0012" id="entity_GMN11"><path d="M86.73,861.2969 L86.73,977.2266 A0,0 0 0 0 86.73,977.2266 L307.7891,977.2266 A0,0 0 0 0 307.7891,977.2266 L307.7891,871.2969 L297.7891,861.2969 L201.23,861.2969 L197.23,769.3469 L193.23,861.2969 L86.73,861.2969 A0,0 0 0 0 86.73,861.2969" fill="#FEFFDD" style="stroke:#181818;stroke-width:0.5;"/><path d="M297.7891,861.2969 L297.7891,871.2969 L307.7891,871.2969 L297.7891,861.2969" fill="#FEFFDD" style="stroke:#181818;stroke-width:0.5;"/><text fill="#000000" font-family="sans-serif" font-size="13" font-weight="bold" lengthAdjust="spacing" textLength="107.6372" x="92.73" y="878.3638">Inactive State:</text><text fill="#000000" font-family="sans-serif" font-size="13" lengthAdjust="spacing" textLength="200.0591" x="92.73" y="893.4966">- Account temporarily disabled</text><text fill="#000000" font-family="sans-serif" font-size="13" lengthAdjust="spacing" textLength="111.7568" x="92.73" y="908.6294">- By user request</text><text fill="#000000" font-family="sans-serif" font-size="13" lengthAdjust="spacing" textLength="91.1968" x="92.73" y="923.7622">- Cannot login</text><text fill="#000000" font-family="sans-serif" font-size="13" lengthAdjust="spacing" textLength="109.6494" x="92.73" y="938.895">- Data preserved</text><text fill="#000000" font-family="sans-serif" font-size="13" lengthAdjust="spacing" textLength="132.793" x="92.73" y="954.0278">- Can be reactivated</text><text fill="#000000" font-family="sans-serif" font-size="13" lengthAdjust="spacing" textLength="191.7817" x="92.73" y="969.1606">- Auto-deleted after 365 days</text></g><g class="entity" data-entity="GMN14" data-source-line="90" data-uid="ent0015" id="entity_GMN14"><path d="M353.73,861.2969 L353.73,977.2266 A0,0 0 0 0 353.73,977.2266 L572.4658,977.2266 A0,0 0 0 0 572.4658,977.2266 L572.4658,871.2969 L562.4658,861.2969 L474.15,861.2969 L481.31,769.3469 L466.15,861.2969 L353.73,861.2969 A0,0 0 0 0 353.73,861.2969" fill="#FEFFDD" style="stroke:#181818;stroke-width:0.5;"/><path d="M562.4658,861.2969 L562.4658,871.2969 L572.4658,871.2969 L562.4658,861.2969" fill="#FEFFDD" style="stroke:#181818;stroke-width:0.5;"/><text fill="#000000" font-family="sans-serif" font-size="13" font-weight="bold" lengthAdjust="spacing" textLength="130.2666" x="359.73" y="878.3638">Suspended State:</text><text fill="#000000" font-family="sans-serif" font-size="13" lengthAdjust="spacing" textLength="146.0215" x="359.73" y="893.4966">- Suspended by admin</text><text fill="#000000" font-family="sans-serif" font-size="13" lengthAdjust="spacing" textLength="154.5273" x="359.73" y="908.6294">- Due to policy violation</text><text fill="#000000" font-family="sans-serif" font-size="13" lengthAdjust="spacing" textLength="91.1968" x="359.73" y="923.7622">- Cannot login</text><text fill="#000000" font-family="sans-serif" font-size="13" lengthAdjust="spacing" textLength="109.6494" x="359.73" y="938.895">- Data preserved</text><text fill="#000000" font-family="sans-serif" font-size="13" lengthAdjust="spacing" textLength="197.7358" x="359.73" y="954.0278">- Can be reactivated by admin</text><text fill="#000000" font-family="sans-serif" font-size="13" lengthAdjust="spacing" textLength="196.6567" x="359.73" y="969.1606">- May be permanently deleted</text></g><g class="entity" data-entity="GMN17" data-source-line="100" data-uid="ent0018" id="entity_GMN17"><path d="M682.73,1069.2969 L682.73,1170.0938 A0,0 0 0 0 682.73,1170.0938 L947.8037,1170.0938 A0,0 0 0 0 947.8037,1170.0938 L947.8037,1079.2969 L937.8037,1069.2969 L796.96,1069.2969 L737.14,944.6369 L788.96,1069.2969 L682.73,1069.2969 A0,0 0 0 0 682.73,1069.2969" fill="#FEFFDD" style="stroke:#181818;stroke-width:0.5;"/><path d="M937.8037,1069.2969 L937.8037,1079.2969 L947.8037,1079.2969 L937.8037,1069.2969" fill="#FEFFDD" style="stroke:#181818;stroke-width:0.5;"/><text fill="#000000" font-family="sans-serif" font-size="13" font-weight="bold" lengthAdjust="spacing" textLength="106.3232" x="688.73" y="1086.3638">Deleted State:</text><text fill="#000000" font-family="sans-serif" font-size="13" lengthAdjust="spacing" textLength="136.0303" x="688.73" y="1101.4966">- Marked for deletion</text><text fill="#000000" font-family="sans-serif" font-size="13" lengthAdjust="spacing" textLength="139.7944" x="688.73" y="1116.6294">- 30 day grace period</text><text fill="#000000" font-family="sans-serif" font-size="13" lengthAdjust="spacing" textLength="88.5879" x="688.73" y="1131.7622">- Data hidden</text><text fill="#000000" font-family="sans-serif" font-size="13" lengthAdjust="spacing" textLength="223.4058" x="688.73" y="1146.895">- Can be recovered within 30 days</text><text fill="#000000" font-family="sans-serif" font-size="13" lengthAdjust="spacing" textLength="244.0737" x="688.73" y="1162.0278">- After 30 days &#8594; permanent deletion</text></g><!--link *start* to Unregistered--><g class="link" data-entity-1=".start." data-entity-2="Unregistered" data-source-line="11" data-uid="lnk3" id="link_.start._Unregistered"><path d="M1087.23,63.5069 C1087.23,83.1069 1087.23,123.5269 1087.23,152.1869" fill="none" id="*start*-to-Unregistered" style="stroke:#000000;stroke-width:1;"/><polygon fill="#000000" points="1087.23,158.1869,1091.23,149.1869,1087.23,153.1869,1083.23,149.1869,1087.23,158.1869" style="stroke:#000000;stroke-width:1;"/><text fill="#000000" font-family="sans-serif" font-size="13" lengthAdjust="spacing" textLength="121.8179" x="1088.23" y="106.3638">User visits website</text></g><!--link Unregistered to Pending--><g class="link" data-entity-1="Unregistered" data-entity-2="Pending" data-source-line="20" data-uid="lnk4" id="link_Unregistered_Pending"><path d="M1087.23,208.6669 C1087.23,243.8569 1087.23,302.5369 1087.23,337.6169" fill="none" id="Unregistered-to-Pending" style="stroke:#000000;stroke-width:1;"/><polygon fill="#000000" points="1087.23,343.6169,1091.23,334.6169,1087.23,338.6169,1083.23,334.6169,1087.23,343.6169" style="stroke:#000000;stroke-width:1;"/><text fill="#000000" font-family="sans-serif" font-size="13" lengthAdjust="spacing" textLength="110.0303" x="1110.2722" y="269.3638">Register account</text><text fill="#000000" font-family="sans-serif" font-size="13" lengthAdjust="spacing" textLength="154.1147" x="1088.23" y="284.4966">[valid registration data]</text></g><!--link Pending to Active--><g class="link" data-entity-1="Pending" data-entity-2="Active" data-source-line="22" data-uid="lnk5" id="link_Pending_Active"><path d="M1006.68,387.7669 C818.41,429.7569 361.7861,531.5908 235.4361,559.7708" fill="none" id="Pending-to-Active" style="stroke:#000000;stroke-width:1;"/><polygon fill="#000000" points="229.58,561.0769,239.2349,563.0218,234.4601,559.9885,237.4934,555.2137,229.58,561.0769" style="stroke:#000000;stroke-width:1;"/><text fill="#000000" font-family="sans-serif" font-size="13" lengthAdjust="spacing" textLength="78.1016" x="771.78" y="462.3638">Verify email</text><text fill="#000000" font-family="sans-serif" font-size="13" lengthAdjust="spacing" textLength="175.2017" x="723.23" y="477.4966">[token valid &amp; not expired]</text></g><!--link Pending to Deleted--><g class="link" data-entity-1="Pending" data-entity-2="Deleted" data-source-line="24" data-uid="lnk6" id="link_Pending_Deleted"><path d="M1089.15,393.8269 C1091.85,441.4269 1092.53,549.8169 1051.23,627.2969 C982.74,755.7869 838.9851,852.3368 769.0651,893.9768" fill="none" id="Pending-to-Deleted" style="stroke:#000000;stroke-width:1;"/><polygon fill="#000000" points="763.91,897.0469,773.6893,895.8785,768.2059,894.4885,769.5959,889.0051,763.91,897.0469" style="stroke:#000000;stroke-width:1;"/><text fill="#000000" font-family="sans-serif" font-size="13" lengthAdjust="spacing" textLength="127.334" x="1053.346" y="670.3638">Verification expired</text><text fill="#000000" font-family="sans-serif" font-size="13" lengthAdjust="spacing" textLength="165.5659" x="1034.23" y="685.4966">[&gt; 7 days no verification]</text></g><!--link Pending to Deleted--><g class="link" data-entity-1="Pending" data-entity-2="Deleted" data-source-line="26" data-uid="lnk7" id="link_Pending_Deleted"><path d="M1110.79,394.1569 C1161.56,449.7269 1271.77,588.7669 1208.23,689.2969 C1106.76,849.8369 864.6587,899.2512 769.8587,912.9112" fill="none" id="Pending-to-Deleted-1" style="stroke:#000000;stroke-width:1;"/><polygon fill="#000000" points="763.92,913.7669,773.3985,916.4424,768.8689,913.0538,772.2575,908.5242,763.92,913.7669" style="stroke:#000000;stroke-width:1;"/><text fill="#000000" font-family="sans-serif" font-size="13" lengthAdjust="spacing" textLength="147.1323" x="1222.23" y="677.8638">User requests deletion</text></g><!--link Active to Inactive--><g class="link" data-entity-1="Active" data-entity-2="Inactive" data-source-line="28" data-uid="lnk8" id="link_Active_Inactive"><path d="M164.83,579.3669 C109.46,596.5369 6,636.7869 43.23,689.2969 C69.37,726.1569 116.7511,737.4369 153.2511,741.1669" fill="none" id="Active-to-Inactive" style="stroke:#000000;stroke-width:1;"/><polygon fill="#000000" points="159.22,741.7769,150.6733,736.8826,154.2459,741.2686,149.86,744.8412,159.22,741.7769" style="stroke:#000000;stroke-width:1;"/><text fill="#000000" font-family="sans-serif" font-size="13" lengthAdjust="spacing" textLength="109.3638" x="44.23" y="670.3638">User deactivates</text><text fill="#000000" font-family="sans-serif" font-size="13" lengthAdjust="spacing" textLength="92.333" x="52.7454" y="685.4966">[user request]</text></g><!--link Inactive to Active--><g class="link" data-entity-1="Inactive" data-entity-2="Active" data-source-line="42" data-uid="lnk15" id="link_Inactive_Active"><path d="M195.6,719.1169 C195.05,709.7969 194.5,699.0569 194.23,689.2969 C193.32,656.4469 194.4083,624.4898 195.5783,600.4498" fill="none" id="Inactive-to-Active" style="stroke:#000000;stroke-width:1;"/><polygon fill="#000000" points="195.87,594.4569,191.4372,603.2518,195.6269,599.451,199.4278,603.6407,195.87,594.4569" style="stroke:#000000;stroke-width:1;"/><text fill="#000000" font-family="sans-serif" font-size="13" lengthAdjust="spacing" textLength="106.4565" x="195.23" y="670.3638">User reactivates</text><text fill="#000000" font-family="sans-serif" font-size="13" lengthAdjust="spacing" textLength="92.333" x="202.2918" y="685.4966">[user request]</text></g><!--link Active to Suspended--><g class="link" data-entity-1="Active" data-entity-2="Suspended" data-source-line="30" data-uid="lnk9" id="link_Active_Suspended"><path d="M228.59,594.6169 C250.57,611.8269 280.49,635.6169 306.23,657.2969 C322.6,671.0869 323.93,678.1969 342.23,689.2969 C371.21,706.8669 401.1686,718.5683 429.4986,727.6883" fill="none" id="Active-to-Suspended" style="stroke:#000000;stroke-width:1;"/><polygon fill="#000000" points="435.21,729.5269,427.8687,722.9614,430.4505,727.9947,425.4172,730.5765,435.21,729.5269" style="stroke:#000000;stroke-width:1;"/><text fill="#000000" font-family="sans-serif" font-size="13" lengthAdjust="spacing" textLength="107.0913" x="343.8267" y="670.3638">Admin suspends</text><text fill="#000000" font-family="sans-serif" font-size="13" lengthAdjust="spacing" textLength="108.2847" x="343.23" y="685.4966">[policy violation]</text></g><!--link Suspended to Active--><g class="link" data-entity-1="Suspended" data-entity-2="Active" data-source-line="46" data-uid="lnk17" id="link_Suspended_Active"><path d="M482.22,719.1069 C479.39,699.9669 472.59,673.8069 456.23,657.2969 C393.64,594.1169 289.7673,577.3386 235.4673,572.5986" fill="none" id="Suspended-to-Active" style="stroke:#000000;stroke-width:1;"/><polygon fill="#000000" points="229.49,572.0769,238.1081,576.8444,234.4711,572.5117,238.8038,568.8747,229.49,572.0769" style="stroke:#000000;stroke-width:1;"/><text fill="#000000" font-family="sans-serif" font-size="13" lengthAdjust="spacing" textLength="110.6904" x="476.23" y="670.3638">Admin reinstates</text><text fill="#000000" font-family="sans-serif" font-size="13" lengthAdjust="spacing" textLength="103.2954" x="479.9275" y="685.4966">[issue resolved]</text></g><!--link Active to Deleted--><g class="link" data-entity-1="Active" data-entity-2="Deleted" data-source-line="32" data-uid="lnk10" id="link_Active_Deleted"><path d="M229.43,570.0869 C300.94,571.0769 476.11,581.6669 595.23,657.2969 C662.4,699.9369 671.88,726.6069 704.23,799.2969 C717.99,830.1969 722.6739,863.315 724.6039,888.085" fill="none" id="Active-to-Deleted" style="stroke:#000000;stroke-width:1;"/><polygon fill="#000000" points="725.07,894.0669,728.3588,884.7833,724.6816,889.082,720.383,885.4048,725.07,894.0669" style="stroke:#000000;stroke-width:1;"/><text fill="#000000" font-family="sans-serif" font-size="13" lengthAdjust="spacing" textLength="137.4141" x="692.23" y="741.3638">User deletes account</text><text fill="#000000" font-family="sans-serif" font-size="13" lengthAdjust="spacing" textLength="92.333" x="714.7705" y="756.4966">[user request]</text></g><!--link Active to Active--><g class="link" data-entity-1="Active" data-entity-2="Active" data-source-line="34" data-uid="lnk11" id="link_Active_Active"><path d="M229.29,564.6769 C247.43,563.7669 264.23,565.3069 264.23,569.2969 C264.23,573.2869 253.4225,575.1275 235.2825,574.2175" fill="none" id="Active-to-Active" style="stroke:#000000;stroke-width:1;"/><polygon fill="#000000" points="229.29,573.9169,238.0783,578.3628,234.2837,574.1674,238.4791,570.3728,229.29,573.9169" style="stroke:#000000;stroke-width:1;"/><text fill="#000000" font-family="sans-serif" font-size="13" lengthAdjust="spacing" textLength="35.2993" x="311.3057" y="566.3638">Login</text><text fill="#000000" font-family="sans-serif" font-size="13" lengthAdjust="spacing" textLength="117.4507" x="270.23" y="581.4966">[valid credentials]</text></g><!--link Active to Active--><g class="link" data-entity-1="Active" data-entity-2="Active" data-source-line="36" data-uid="lnk12" id="link_Active_Active"><path d="M229.64,563.1669 C288.33,556.7969 393.23,558.8369 393.23,569.2969 C393.23,579.7569 294.295,582.4443 235.605,576.0743" fill="none" id="Active-to-Active-1" style="stroke:#000000;stroke-width:1;"/><polygon fill="#000000" points="229.64,575.4269,238.1558,580.3746,234.6108,575.9664,239.0191,572.4214,229.64,575.4269" style="stroke:#000000;stroke-width:1;"/><text fill="#000000" font-family="sans-serif" font-size="13" lengthAdjust="spacing" textLength="92.5615" x="399.23" y="566.3638">Update profile</text><text fill="#000000" font-family="sans-serif" font-size="13" lengthAdjust="spacing" textLength="74.6929" x="408.1643" y="581.4966">[valid data]</text></g><!--link Active to Active--><g class="link" data-entity-1="Active" data-entity-2="Active" data-source-line="38" data-uid="lnk13" id="link_Active_Active"><path d="M229.28,561.9869 C311.95,550.2169 497.23,552.6569 497.23,569.2969 C497.23,585.9369 317.8901,589.2226 235.2201,577.4526" fill="none" id="Active-to-Active-2" style="stroke:#000000;stroke-width:1;"/><polygon fill="#000000" points="229.28,576.6069,237.6263,581.8355,234.2301,577.3116,238.754,573.9154,229.28,576.6069" style="stroke:#000000;stroke-width:1;"/><text fill="#000000" font-family="sans-serif" font-size="13" lengthAdjust="spacing" textLength="115.8511" x="510.9583" y="566.3638">Change password</text><text fill="#000000" font-family="sans-serif" font-size="13" lengthAdjust="spacing" textLength="131.3076" x="503.23" y="581.4966">[valid old password]</text></g><!--link Active to Active--><g class="link" data-entity-1="Active" data-entity-2="Active" data-source-line="40" data-uid="lnk14" id="link_Active_Active"><path d="M229.4,561.2869 C338.99,543.6469 640.23,546.3169 640.23,569.2969 C640.23,592.2769 344.9138,595.9004 235.3238,578.2604" fill="none" id="Active-to-Active-3" style="stroke:#000000;stroke-width:1;"/><polygon fill="#000000" points="229.4,577.3069,237.65,582.6863,234.3365,578.1015,238.9213,574.788,229.4,577.3069" style="stroke:#000000;stroke-width:1;"/><text fill="#000000" font-family="sans-serif" font-size="13" lengthAdjust="spacing" textLength="99.4043" x="661.8357" y="566.3638">Create booking</text><text fill="#000000" font-family="sans-serif" font-size="13" lengthAdjust="spacing" textLength="130.6157" x="646.23" y="581.4966">[valid booking data]</text></g><!--link Inactive to Deleted--><g class="link" data-entity-1="Inactive" data-entity-2="Deleted" data-source-line="44" data-uid="lnk16" id="link_Inactive_Deleted"><path d="M230.49,769.3869 C259.93,789.4169 304.85,816.8969 348.23,831.2969 C451.09,865.4469 485.5,833.4269 590.23,861.2969 C624.62,870.4469 656.3418,883.8894 683.1018,896.6194" fill="none" id="Inactive-to-Deleted" style="stroke:#000000;stroke-width:1;"/><polygon fill="#000000" points="688.52,899.1969,682.1111,891.7185,684.0049,897.049,678.6744,898.9428,688.52,899.1969" style="stroke:#000000;stroke-width:1;"/><text fill="#000000" font-family="sans-serif" font-size="13" lengthAdjust="spacing" textLength="93.52" x="372.6179" y="812.3638">Admin deletes</text><text fill="#000000" font-family="sans-serif" font-size="13" lengthAdjust="spacing" textLength="140.2959" x="349.23" y="827.4966">[&gt; 365 days inactive]</text></g><!--link Suspended to Deleted--><g class="link" data-entity-1="Suspended" data-entity-2="Deleted" data-source-line="48" data-uid="lnk18" id="link_Suspended_Deleted"><path d="M488.48,769.6369 C492.94,788.5969 501.7,814.4569 518.23,831.2969 C542.52,856.0369 558.25,847.9269 590.23,861.2969 C623.54,875.2169 655.8766,888.777 683.1866,900.227" fill="none" id="Suspended-to-Deleted" style="stroke:#000000;stroke-width:1;"/><polygon fill="#000000" points="688.72,902.5469,681.9666,895.3781,684.1089,900.6136,678.8734,902.7559,688.72,902.5469" style="stroke:#000000;stroke-width:1;"/><text fill="#000000" font-family="sans-serif" font-size="13" lengthAdjust="spacing" textLength="180.7559" x="519.23" y="812.3638">Admin deletes permanently</text><text fill="#000000" font-family="sans-serif" font-size="13" lengthAdjust="spacing" textLength="113.8198" x="552.698" y="827.4966">[severe violation]</text></g><!--link Deleted to *end*--><g class="link" data-entity-1="Deleted" data-entity-2=".end." data-source-line="50" data-uid="lnk20" id="link_Deleted_.end."><path d="M699.71,944.3369 C683.61,960.5169 664.12,983.2269 653.23,1007.2969 C637.5,1042.0869 635.8343,1082.567 635.9543,1102.747" fill="none" id="Deleted-to-*end*" style="stroke:#000000;stroke-width:1;"/><polygon fill="#000000" points="635.99,1108.7469,639.9364,1099.7232,635.9603,1103.747,631.9366,1099.7708,635.99,1108.7469" style="stroke:#000000;stroke-width:1;"/><text fill="#000000" font-family="sans-serif" font-size="13" lengthAdjust="spacing" textLength="103.1875" x="654.23" y="1020.3638">Account purged</text><text fill="#000000" font-family="sans-serif" font-size="13" lengthAdjust="spacing" textLength="96.6177" x="657.5149" y="1035.4966">[after 30 days]</text></g><g class="legend" data-source-line="108"><rect fill="#DDDDDD" height="189.2656" rx="7.5" ry="7.5" style="stroke:#000000;stroke-width:1;" width="252.9355" x="1207.3179" y="1188.0938"/><text fill="#000000" font-family="sans-serif" font-size="14" font-weight="bold" lengthAdjust="spacing" textLength="156.5225" x="1212.3179" y="1206.0889">Transition Reasons:</text><text fill="#000000" font-family="sans-serif" font-size="14" lengthAdjust="spacing" textLength="163.666" x="1212.3179" y="1222.3857">&#8226; Registration: optional</text><text fill="#000000" font-family="sans-serif" font-size="14" lengthAdjust="spacing" textLength="160.8975" x="1212.3179" y="1238.6826">&#8226; Verification: required</text><text fill="#000000" font-family="sans-serif" font-size="14" lengthAdjust="spacing" textLength="207.6143" x="1212.3179" y="1254.9795">&#8226; Suspension: policy violation</text><text fill="#000000" font-family="sans-serif" font-size="14" lengthAdjust="spacing" textLength="242.9355" x="1212.3179" y="1271.2764">&#8226; Deletion: user request or system</text><text fill="#000000" font-family="sans-serif" font-size="14" lengthAdjust="spacing" textLength="4.4502" x="1212.3179" y="1287.5732">&#160;</text><text fill="#000000" font-family="sans-serif" font-size="14" font-weight="bold" lengthAdjust="spacing" textLength="108.3359" x="1212.3179" y="1303.8701">Time Periods:</text><text fill="#000000" font-family="sans-serif" font-size="14" lengthAdjust="spacing" textLength="207.3477" x="1212.3179" y="1320.167">&#8226; Verification token: 24 hours</text><text fill="#000000" font-family="sans-serif" font-size="14" lengthAdjust="spacing" textLength="189.335" x="1212.3179" y="1336.4639">&#8226; Delete unverified: 7 days</text><text fill="#000000" font-family="sans-serif" font-size="14" lengthAdjust="spacing" textLength="191.8574" x="1212.3179" y="1352.7607">&#8226; Delete inactive: 365 days</text><text fill="#000000" font-family="sans-serif" font-size="14" lengthAdjust="spacing" textLength="228.9287" x="1212.3179" y="1369.0576">&#8226; Deletion grace period: 30 days</text></g><!--SRC=[fLPBZjj64Dtp50KliX0mG13d0t1XG3Co30Cs47WosJYpQ94bgZ7DRgQxgGaH1CWg1yWHSZIVn5Nz8Tcob8rN4klxwlT8zoJr8ApemNdX4Vwi06v5yzHPC-hspYXZuPtiZlvk4ffrnhPeetmdxDEj6f74MslDSvJUAd8dqRqNraVH6ul8pgzpn0_OLdzLbPTU8Mms3mujR9k6KdhATi1cQaXn7n3jfEW8tsPJLHytZt1pymeUjCLEEeyMMwWXk9-aazx1C-xf5wigblDYRVe2X2jyiz7Fg5kfE_WLhJp8HdXfT31EYcotRRmyOT34lrdnLej5bH-oydvq0yL9-UUdhDwXGf-KwNzL5HLooHbYJRsB2X2nOR_fZoUXP0lHmmRqq0el7gigkt6829aYX38dm5v8HTxUFA666ECRqCO3_Z58Idpcdy3b0AbFsPW2lOAVAE_aA0QSLYPNuuJ1MVnzH4UZQrbEvbMLaB9nRcQsRZ4yK-SSPHnN0HuBlxdDvBXjUwd1HGcx3KR9PgALCIe3NBcUuGkmqAtQVJthtE9tffDwdan3_K7jfL3kYlt3qF8o3DOSfCBPCKtnaiVTKUYEF8HpptIJiujHxIoyvcgHa-sDeUFlPi_qd9FEdI-1njh_PmY5tzBBE8JKpB0iBt_y8QwBJ1xal8ojo1gTBKeTZeRzfNCZaiWPTGghMhfUIGm3sbve6eQQA8X3sbCi5Y4xSX3cctecfc6qNTXpSU3pU_bjG4ykT3A4X4aIpA4a661sMzzouBIQo0pW1hRQwAateuliPMoGtWaDUw9JXz0OxGbh5lDjyfJMppas78XNgHpjNKLju3l6SsYPpXZL9SuxGvVgRiAwj47scZaZS4Gyy2GkWgpvvBlluMX6wuBLsqFX2S_I7saqYJG-_VDlcbAxha_n9LsjAD4m5vIMfIWXmYsWSdTZpBdNguvUR6VMZSMHnXuf1GTgpsYP8KwKJUn9TGPtRxmtFUETtmsCUBwKYstts0_62YlL1Arq73TMS3l1-kI-R1OBTdJ4X1J9yBIgV8-huutYxUZDJMeyfDLEbtczZkKjneKifrTKieZt4mW-mmYDxjORE2VXhwYZZFzUJAnVNVgyLrVhsSsBjzba1YXgUK_VEYJZhPZVKooFB03qXTA4bDAq2-wZR5lK9UZ6d08HfELFB18diUQLS0zp3KlIfGI57J-4MmZ0Vx524utm3Nv0uOns4Vsdl_zBNmtnuw06C_2lK4cvFjywx9MCvCNAE4KNL1TcnYQx1Auk5XEeLswYO-h9B0AKFH89SPDMqBuaZthD6tC2X57dKwuJQvJw_2Afbmqk0HPpgkVcSnjZDpy3]--></g></svg>