<svg xmlns="http://www.w3.org/2000/svg" xmlns:xlink="http://www.w3.org/1999/xlink" contentStyleType="text/css" data-diagram-type="SEQUENCE" height="1589px" preserveAspectRatio="none" style="width:1045px;height:1589px;background:#FFFFFF;" version="1.1" viewBox="0 0 1045 1589" width="1045px" zoomAndPan="magnify"><title>**Browse and View Museum Plans**</title><defs/><g><text fill="#000000" font-family="sans-serif" font-size="14" font-weight="bold" lengthAdjust="spacing" textLength="254.0371" x="396.8638" y="27.9951">Browse and View Museum Plans</text><g><title>Plan</title><rect fill="#FFFFFF" height="1316.1172" style="stroke:#181818;stroke-width:1;" width="10" x="265.7886" y="166.0234"/></g><g><title>Plan</title><rect fill="#FFFFFF" height="117.6641" style="stroke:#181818;stroke-width:1;" width="10" x="449.4683" y="292.3594"/></g><g><title>Plan</title><rect fill="#FFFFFF" height="86.3984" style="stroke:#181818;stroke-width:1;" width="10" x="449.4683" y="660.3516"/></g><g><title>Plan</title><rect fill="#FFFFFF" height="71.2656" style="stroke:#181818;stroke-width:1;" width="10" x="449.4683" y="865.2813"/></g><g><title>Plan</title><rect fill="#FFFFFF" height="102.5313" style="stroke:#181818;stroke-width:1;" width="10" x="449.4683" y="1030.9453"/></g><g><title>Cache</title><rect fill="#FFFFFF" height="53.2656" style="stroke:#181818;stroke-width:1;" width="10" x="566.832" y="195.1563"/></g><g><title>Cache</title><rect fill="#FFFFFF" height="35.1328" style="stroke:#181818;stroke-width:1;" width="10" x="566.832" y="439.1563"/></g><g><title>Database</title><rect fill="#FFFFFF" height="29.1328" style="stroke:#181818;stroke-width:1;" width="10" x="796.3906" y="351.7578"/></g><g><title>Database</title><rect fill="#FFFFFF" height="29.1328" style="stroke:#181818;stroke-width:1;" width="10" x="796.3906" y="1075.2109"/></g><g><title>Database</title><rect fill="#FFFFFF" height="29.1328" style="stroke:#181818;stroke-width:1;" width="10" x="796.3906" y="1206.875"/></g><g><title>Session</title><rect fill="#FFFFFF" height="126.6641" style="stroke:#181818;stroke-width:1;" width="10" x="986.0815" y="1162.6094"/></g><rect fill="none" height="279.1328" style="stroke:#000000;stroke-width:1.5;" width="632.5889" x="219.2021" y="210.1563"/><rect fill="none" height="236.3281" style="stroke:#000000;stroke-width:1.5;" width="561.832" x="10" y="547.5547"/><rect fill="none" height="175.7969" style="stroke:#000000;stroke-width:1.5;" width="544.8203" x="10" y="797.8828"/><rect fill="none" height="224.1328" style="stroke:#000000;stroke-width:1.5;" width="1028.7646" x="10" y="1251.0078"/><g><title>User</title><rect fill="#000000" fill-opacity="0.00000" height="1357.25" width="8" x="46.6924" y="134.8906"/><line style="stroke:#181818;stroke-width:0.5;stroke-dasharray:5,5;" x1="50" x2="50" y1="134.8906" y2="1492.1406"/></g><g><title>Plan</title><rect fill="#000000" fill-opacity="0.00000" height="1357.25" width="8" x="266.7886" y="134.8906"/><line style="stroke:#181818;stroke-width:0.5;stroke-dasharray:5,5;" x1="270.2021" x2="270.2021" y1="134.8906" y2="1492.1406"/></g><g><title>Plan</title><rect fill="#000000" fill-opacity="0.00000" height="1357.25" width="8" x="450.4683" y="134.8906"/><line style="stroke:#181818;stroke-width:0.5;stroke-dasharray:5,5;" x1="454.4512" x2="454.4512" y1="134.8906" y2="1492.1406"/></g><g><title>Cache</title><rect fill="#000000" fill-opacity="0.00000" height="1357.25" width="8" x="567.832" y="134.8906"/><line style="stroke:#181818;stroke-width:0.5;stroke-dasharray:5,5;" x1="571.063" x2="571.063" y1="134.8906" y2="1492.1406"/></g><g><title>Database</title><rect fill="#000000" fill-opacity="0.00000" height="1357.25" width="8" x="797.3906" y="134.8906"/><line style="stroke:#181818;stroke-width:0.5;stroke-dasharray:5,5;" x1="800.9902" x2="800.9902" y1="134.8906" y2="1492.1406"/></g><g><title>Session</title><rect fill="#000000" fill-opacity="0.00000" height="1357.25" width="8" x="987.0815" y="134.8906"/><line style="stroke:#181818;stroke-width:0.5;stroke-dasharray:5,5;" x1="990.3984" x2="990.3984" y1="134.8906" y2="1492.1406"/></g><g class="participant participant-head" data-participant="User"><text fill="#000000" font-family="sans-serif" font-size="14" lengthAdjust="spacing" textLength="31.9102" x="31.7373" y="115.292">User</text><text fill="#000000" font-family="sans-serif" font-size="14" lengthAdjust="spacing" textLength="55.3848" x="20" y="131.5889">(Visitor)</text><ellipse cx="50.6924" cy="50.7969" fill="#E2E2F0" rx="8" ry="8" style="stroke:#181818;stroke-width:0.5;"/><path d="M50.6924,58.7969 L50.6924,85.7969 M37.6924,66.7969 L63.6924,66.7969 M50.6924,85.7969 L37.6924,100.7969 M50.6924,85.7969 L63.6924,100.7969" fill="none" style="stroke:#181818;stroke-width:0.5;"/></g><g class="participant participant-tail" data-participant="User"><text fill="#000000" font-family="sans-serif" font-size="14" lengthAdjust="spacing" textLength="31.9102" x="31.7373" y="1504.1357">User</text><text fill="#000000" font-family="sans-serif" font-size="14" lengthAdjust="spacing" textLength="55.3848" x="20" y="1520.4326">(Visitor)</text><ellipse cx="50.6924" cy="1532.2344" fill="#E2E2F0" rx="8" ry="8" style="stroke:#181818;stroke-width:0.5;"/><path d="M50.6924,1540.2344 L50.6924,1567.2344 M37.6924,1548.2344 L63.6924,1548.2344 M50.6924,1567.2344 L37.6924,1582.2344 M50.6924,1567.2344 L63.6924,1582.2344" fill="none" style="stroke:#181818;stroke-width:0.5;"/></g><g class="participant participant-head" data-participant="PlanCtrl"><rect fill="#E2E2F0" height="46.5938" rx="2.5" ry="2.5" style="stroke:#181818;stroke-width:0.5;" width="83.1729" x="229.2021" y="87.2969"/><text fill="#000000" font-family="sans-serif" font-size="14" lengthAdjust="spacing" textLength="29.7842" x="255.8965" y="107.292">Plan</text><text fill="#000000" font-family="sans-serif" font-size="14" lengthAdjust="spacing" textLength="69.1729" x="236.2021" y="123.5889">Controller</text></g><g class="participant participant-tail" data-participant="PlanCtrl"><rect fill="#E2E2F0" height="46.5938" rx="2.5" ry="2.5" style="stroke:#181818;stroke-width:0.5;" width="83.1729" x="229.2021" y="1491.1406"/><text fill="#000000" font-family="sans-serif" font-size="14" lengthAdjust="spacing" textLength="29.7842" x="255.8965" y="1511.1357">Plan</text><text fill="#000000" font-family="sans-serif" font-size="14" lengthAdjust="spacing" textLength="69.1729" x="236.2021" y="1527.4326">Controller</text></g><g class="participant participant-head" data-participant="PlanModel"><rect fill="#E2E2F0" height="46.5938" rx="2.5" ry="2.5" style="stroke:#181818;stroke-width:0.5;" width="56.0342" x="426.4512" y="87.2969"/><text fill="#000000" font-family="sans-serif" font-size="14" lengthAdjust="spacing" textLength="29.7842" x="439.5762" y="107.292">Plan</text><text fill="#000000" font-family="sans-serif" font-size="14" lengthAdjust="spacing" textLength="42.0342" x="433.4512" y="123.5889">Model</text></g><g class="participant participant-tail" data-participant="PlanModel"><rect fill="#E2E2F0" height="46.5938" rx="2.5" ry="2.5" style="stroke:#181818;stroke-width:0.5;" width="56.0342" x="426.4512" y="1491.1406"/><text fill="#000000" font-family="sans-serif" font-size="14" lengthAdjust="spacing" textLength="29.7842" x="439.5762" y="1511.1357">Plan</text><text fill="#000000" font-family="sans-serif" font-size="14" lengthAdjust="spacing" textLength="42.0342" x="433.4512" y="1527.4326">Model</text></g><g class="participant participant-head" data-participant="Cache"><rect fill="#E2E2F0" height="30.2969" rx="2.5" ry="2.5" style="stroke:#181818;stroke-width:0.5;" width="57.5381" x="543.063" y="103.5938"/><text fill="#000000" font-family="sans-serif" font-size="14" lengthAdjust="spacing" textLength="43.5381" x="550.063" y="123.5889">Cache</text></g><g class="participant participant-tail" data-participant="Cache"><rect fill="#E2E2F0" height="30.2969" rx="2.5" ry="2.5" style="stroke:#181818;stroke-width:0.5;" width="57.5381" x="543.063" y="1491.1406"/><text fill="#000000" font-family="sans-serif" font-size="14" lengthAdjust="spacing" textLength="43.5381" x="550.063" y="1511.1357">Cache</text></g><g class="participant participant-head" data-participant="DB"><rect fill="#E2E2F0" height="30.2969" rx="2.5" ry="2.5" style="stroke:#181818;stroke-width:0.5;" width="80.8008" x="760.9902" y="103.5938"/><text fill="#000000" font-family="sans-serif" font-size="14" lengthAdjust="spacing" textLength="66.8008" x="767.9902" y="123.5889">Database</text></g><g class="participant participant-tail" data-participant="DB"><rect fill="#E2E2F0" height="30.2969" rx="2.5" ry="2.5" style="stroke:#181818;stroke-width:0.5;" width="80.8008" x="760.9902" y="1491.1406"/><text fill="#000000" font-family="sans-serif" font-size="14" lengthAdjust="spacing" textLength="66.8008" x="767.9902" y="1511.1357">Database</text></g><g class="participant participant-head" data-participant="Session"><rect fill="#E2E2F0" height="46.5938" rx="2.5" ry="2.5" style="stroke:#181818;stroke-width:0.5;" width="75.3662" x="953.3984" y="87.2969"/><text fill="#000000" font-family="sans-serif" font-size="14" lengthAdjust="spacing" textLength="53.416" x="964.3735" y="107.292">Session</text><text fill="#000000" font-family="sans-serif" font-size="14" lengthAdjust="spacing" textLength="61.3662" x="960.3984" y="123.5889">Manager</text></g><g class="participant participant-tail" data-participant="Session"><rect fill="#E2E2F0" height="46.5938" rx="2.5" ry="2.5" style="stroke:#181818;stroke-width:0.5;" width="75.3662" x="953.3984" y="1491.1406"/><text fill="#000000" font-family="sans-serif" font-size="14" lengthAdjust="spacing" textLength="53.416" x="964.3735" y="1511.1357">Session</text><text fill="#000000" font-family="sans-serif" font-size="14" lengthAdjust="spacing" textLength="61.3662" x="960.3984" y="1527.4326">Manager</text></g><g><title>Plan</title><rect fill="#FFFFFF" height="1316.1172" style="stroke:#181818;stroke-width:1;" width="10" x="265.7886" y="166.0234"/></g><g><title>Plan</title><rect fill="#FFFFFF" height="117.6641" style="stroke:#181818;stroke-width:1;" width="10" x="449.4683" y="292.3594"/></g><g><title>Plan</title><rect fill="#FFFFFF" height="86.3984" style="stroke:#181818;stroke-width:1;" width="10" x="449.4683" y="660.3516"/></g><g><title>Plan</title><rect fill="#FFFFFF" height="71.2656" style="stroke:#181818;stroke-width:1;" width="10" x="449.4683" y="865.2813"/></g><g><title>Plan</title><rect fill="#FFFFFF" height="102.5313" style="stroke:#181818;stroke-width:1;" width="10" x="449.4683" y="1030.9453"/></g><g><title>Cache</title><rect fill="#FFFFFF" height="53.2656" style="stroke:#181818;stroke-width:1;" width="10" x="566.832" y="195.1563"/></g><g><title>Cache</title><rect fill="#FFFFFF" height="35.1328" style="stroke:#181818;stroke-width:1;" width="10" x="566.832" y="439.1563"/></g><g><title>Database</title><rect fill="#FFFFFF" height="29.1328" style="stroke:#181818;stroke-width:1;" width="10" x="796.3906" y="351.7578"/></g><g><title>Database</title><rect fill="#FFFFFF" height="29.1328" style="stroke:#181818;stroke-width:1;" width="10" x="796.3906" y="1075.2109"/></g><g><title>Database</title><rect fill="#FFFFFF" height="29.1328" style="stroke:#181818;stroke-width:1;" width="10" x="796.3906" y="1206.875"/></g><g><title>Session</title><rect fill="#FFFFFF" height="126.6641" style="stroke:#181818;stroke-width:1;" width="10" x="986.0815" y="1162.6094"/></g><g class="message" data-participant-1="User" data-participant-2="PlanCtrl"><polygon fill="#181818" points="253.7886,162.0234,263.7886,166.0234,253.7886,170.0234,257.7886,166.0234" style="stroke:#181818;stroke-width:1;"/><line style="stroke:#181818;stroke-width:1;" x1="50.6924" x2="259.7886" y1="166.0234" y2="166.0234"/><text fill="#000000" font-family="sans-serif" font-size="13" lengthAdjust="spacing" textLength="91.5269" x="112.4771" y="160.9575">browsePlans()</text></g><g class="message" data-participant-1="PlanCtrl" data-participant-2="Cache"><polygon fill="#181818" points="554.832,191.1563,564.832,195.1563,554.832,199.1563,558.832,195.1563" style="stroke:#181818;stroke-width:1;"/><line style="stroke:#181818;stroke-width:1;" x1="275.7886" x2="560.832" y1="195.1563" y2="195.1563"/><text fill="#000000" font-family="sans-serif" font-size="13" lengthAdjust="spacing" textLength="114.6006" x="364.01" y="190.0903">getCachedPlans()</text></g><path d="M219.2021,210.1563 L283.645,210.1563 L283.645,217.2891 L273.645,227.2891 L219.2021,227.2891 L219.2021,210.1563" fill="#EEEEEE" style="stroke:#000000;stroke-width:1.5;"/><rect fill="none" height="279.1328" style="stroke:#000000;stroke-width:1.5;" width="632.5889" x="219.2021" y="210.1563"/><text fill="#000000" font-family="sans-serif" font-size="13" font-weight="bold" lengthAdjust="spacing" textLength="19.4429" x="234.2021" y="223.2231">alt</text><text fill="#000000" font-family="sans-serif" font-size="11" font-weight="bold" lengthAdjust="spacing" textLength="69.4268" x="298.645" y="222.3667">[Cache Hit]</text><g class="message" data-participant-1="Cache" data-participant-2="PlanCtrl"><polygon fill="#181818" points="286.7886,244.4219,276.7886,248.4219,286.7886,252.4219,282.7886,248.4219" style="stroke:#181818;stroke-width:1;"/><line style="stroke:#181818;stroke-width:1;stroke-dasharray:2,2;" x1="280.7886" x2="570.832" y1="248.4219" y2="248.4219"/><text fill="#000000" font-family="sans-serif" font-size="13" lengthAdjust="spacing" textLength="81.1802" x="383.2202" y="243.356">cachedPlans</text></g><line style="stroke:#000000;stroke-width:1;stroke-dasharray:2,2;" x1="219.2021" x2="851.791" y1="257.4219" y2="257.4219"/><text fill="#000000" font-family="sans-serif" font-size="11" font-weight="bold" lengthAdjust="spacing" textLength="79.0034" x="224.2021" y="267.6323">[Cache Miss]</text><g class="message" data-participant-1="PlanCtrl" data-participant-2="PlanModel"><polygon fill="#181818" points="437.4683,288.3594,447.4683,292.3594,437.4683,296.3594,441.4683,292.3594" style="stroke:#181818;stroke-width:1;"/><line style="stroke:#181818;stroke-width:1;" x1="275.7886" x2="443.4683" y1="292.3594" y2="292.3594"/><text fill="#000000" font-family="sans-serif" font-size="13" lengthAdjust="spacing" textLength="122.478" x="301.3894" y="287.2935">getAllActivePlans()</text></g><g class="message" data-participant-1="PlanModel" data-participant-2="DB"><polygon fill="#181818" points="784.3906,347.7578,794.3906,351.7578,784.3906,355.7578,788.3906,351.7578" style="stroke:#181818;stroke-width:1;"/><line style="stroke:#181818;stroke-width:1;" x1="459.4683" x2="790.3906" y1="351.7578" y2="351.7578"/><text fill="#000000" font-family="sans-serif" font-size="13" lengthAdjust="spacing" textLength="140.6387" x="557.6101" y="316.4263">SELECT * FROM plans</text><text fill="#000000" font-family="sans-serif" font-size="13" lengthAdjust="spacing" textLength="157.9868" x="548.936" y="331.5591">WHERE status = 'active'</text><text fill="#000000" font-family="sans-serif" font-size="13" lengthAdjust="spacing" textLength="241.3125" x="507.2732" y="346.6919">ORDER BY creation_timestamp DESC</text></g><g class="message" data-participant-1="DB" data-participant-2="PlanModel"><polygon fill="#181818" points="470.4683,376.8906,460.4683,380.8906,470.4683,384.8906,466.4683,380.8906" style="stroke:#181818;stroke-width:1;"/><line style="stroke:#181818;stroke-width:1;stroke-dasharray:2,2;" x1="464.4683" x2="800.3906" y1="380.8906" y2="380.8906"/><text fill="#000000" font-family="sans-serif" font-size="13" lengthAdjust="spacing" textLength="80.5708" x="590.144" y="375.8247">planRecords</text></g><g class="message" data-participant-1="PlanModel" data-participant-2="PlanCtrl"><polygon fill="#181818" points="286.7886,406.0234,276.7886,410.0234,286.7886,414.0234,282.7886,410.0234" style="stroke:#181818;stroke-width:1;"/><line style="stroke:#181818;stroke-width:1;stroke-dasharray:2,2;" x1="280.7886" x2="453.4683" y1="410.0234" y2="410.0234"/><text fill="#000000" font-family="sans-serif" font-size="13" lengthAdjust="spacing" textLength="73.9438" x="328.1565" y="404.9575">activePlans</text></g><g class="message" data-participant-1="PlanCtrl" data-participant-2="Cache"><polygon fill="#181818" points="554.832,435.1563,564.832,439.1563,554.832,443.1563,558.832,439.1563" style="stroke:#181818;stroke-width:1;"/><line style="stroke:#181818;stroke-width:1;" x1="275.7886" x2="560.832" y1="439.1563" y2="439.1563"/><text fill="#000000" font-family="sans-serif" font-size="13" lengthAdjust="spacing" textLength="151.6836" x="345.4685" y="434.0903">storePlans(activePlans)</text></g><g class="message" data-participant-1="Cache" data-participant-2="Cache"><line style="stroke:#181818;stroke-width:1;" x1="576.832" x2="618.832" y1="473.2891" y2="473.2891"/><line style="stroke:#181818;stroke-width:1;" x1="618.832" x2="618.832" y1="473.2891" y2="486.2891"/><line style="stroke:#181818;stroke-width:1;" x1="571.832" x2="618.832" y1="486.2891" y2="486.2891"/><polygon fill="#181818" points="581.832,482.2891,571.832,486.2891,581.832,490.2891,577.832,486.2891" style="stroke:#181818;stroke-width:1;"/><text fill="#000000" font-family="sans-serif" font-size="13" lengthAdjust="spacing" textLength="195.5586" x="583.832" y="468.2231">set('plans', activePlans, 3600)</text></g><g class="message" data-participant-1="PlanCtrl" data-participant-2="User"><polygon fill="#181818" points="61.6924,528.5547,51.6924,532.5547,61.6924,536.5547,57.6924,532.5547" style="stroke:#181818;stroke-width:1;"/><line style="stroke:#181818;stroke-width:1;stroke-dasharray:2,2;" x1="55.6924" x2="264.7886" y1="532.5547" y2="532.5547"/><text fill="#000000" font-family="sans-serif" font-size="13" lengthAdjust="spacing" textLength="112.9438" x="101.7686" y="512.356">displayPlansGrid(</text><text fill="#000000" font-family="sans-serif" font-size="13" lengthAdjust="spacing" textLength="187.9604" x="64.2603" y="527.4888">thumbnails, titles, durations)</text></g><path d="M10,547.5547 L79.4512,547.5547 L79.4512,554.6875 L69.4512,564.6875 L10,564.6875 L10,547.5547" fill="#EEEEEE" style="stroke:#000000;stroke-width:1.5;"/><rect fill="none" height="236.3281" style="stroke:#000000;stroke-width:1.5;" width="561.832" x="10" y="547.5547"/><text fill="#000000" font-family="sans-serif" font-size="13" font-weight="bold" lengthAdjust="spacing" textLength="24.4512" x="25" y="560.6216">opt</text><text fill="#000000" font-family="sans-serif" font-size="11" font-weight="bold" lengthAdjust="spacing" textLength="88.8325" x="94.4512" y="559.7651">[Apply Filters]</text><g class="message" data-participant-1="User" data-participant-2="PlanCtrl"><polygon fill="#181818" points="253.7886,612.0859,263.7886,616.0859,253.7886,620.0859,257.7886,616.0859" style="stroke:#181818;stroke-width:1;"/><line style="stroke:#181818;stroke-width:1;" x1="50.6924" x2="259.7886" y1="616.0859" y2="616.0859"/><text fill="#000000" font-family="sans-serif" font-size="13" lengthAdjust="spacing" textLength="80.7612" x="117.8599" y="580.7544">applyFilters(</text><text fill="#000000" font-family="sans-serif" font-size="13" lengthAdjust="spacing" textLength="123.519" x="96.481" y="595.8872">duration, difficulty,</text><text fill="#000000" font-family="sans-serif" font-size="13" lengthAdjust="spacing" textLength="105.2061" x="105.6375" y="611.02">targetAudience)</text></g><g class="message" data-participant-1="PlanCtrl" data-participant-2="PlanModel"><polygon fill="#181818" points="437.4683,656.3516,447.4683,660.3516,437.4683,664.3516,441.4683,660.3516" style="stroke:#181818;stroke-width:1;"/><line style="stroke:#181818;stroke-width:1;" x1="275.7886" x2="443.4683" y1="660.3516" y2="660.3516"/><text fill="#000000" font-family="sans-serif" font-size="13" lengthAdjust="spacing" textLength="69.7417" x="327.7576" y="640.1528">filterPlans(</text><text fill="#000000" font-family="sans-serif" font-size="13" lengthAdjust="spacing" textLength="83.3638" x="320.9465" y="655.2856">filterCriteria)</text></g><g class="message" data-participant-1="PlanModel" data-participant-2="PlanModel"><line style="stroke:#181818;stroke-width:1;" x1="459.4683" x2="501.4683" y1="704.6172" y2="704.6172"/><line style="stroke:#181818;stroke-width:1;" x1="501.4683" x2="501.4683" y1="704.6172" y2="717.6172"/><line style="stroke:#181818;stroke-width:1;" x1="460.4683" x2="501.4683" y1="717.6172" y2="717.6172"/><polygon fill="#181818" points="470.4683,713.6172,460.4683,717.6172,470.4683,721.6172,466.4683,717.6172" style="stroke:#181818;stroke-width:1;"/><text fill="#000000" font-family="sans-serif" font-size="13" lengthAdjust="spacing" textLength="80.7612" x="467.7695" y="684.4185">applyFilters(</text><text fill="#000000" font-family="sans-serif" font-size="13" lengthAdjust="spacing" textLength="83.3638" x="466.4683" y="699.5513">filterCriteria)</text></g><g class="message" data-participant-1="PlanModel" data-participant-2="PlanCtrl"><polygon fill="#181818" points="286.7886,742.75,276.7886,746.75,286.7886,750.75,282.7886,746.75" style="stroke:#181818;stroke-width:1;"/><line style="stroke:#181818;stroke-width:1;stroke-dasharray:2,2;" x1="280.7886" x2="453.4683" y1="746.75" y2="746.75"/><text fill="#000000" font-family="sans-serif" font-size="13" lengthAdjust="spacing" textLength="80.9199" x="324.6685" y="741.6841">filteredPlans</text></g><g class="message" data-participant-1="PlanCtrl" data-participant-2="User"><polygon fill="#181818" points="61.6924,771.8828,51.6924,775.8828,61.6924,779.8828,57.6924,775.8828" style="stroke:#181818;stroke-width:1;"/><line style="stroke:#181818;stroke-width:1;stroke-dasharray:2,2;" x1="55.6924" x2="264.7886" y1="775.8828" y2="775.8828"/><text fill="#000000" font-family="sans-serif" font-size="13" lengthAdjust="spacing" textLength="140.1245" x="88.1782" y="770.8169">displayFilteredPlans()</text></g><path d="M10,797.8828 L79.4512,797.8828 L79.4512,805.0156 L69.4512,815.0156 L10,815.0156 L10,797.8828" fill="#EEEEEE" style="stroke:#000000;stroke-width:1.5;"/><rect fill="none" height="175.7969" style="stroke:#000000;stroke-width:1.5;" width="544.8203" x="10" y="797.8828"/><text fill="#000000" font-family="sans-serif" font-size="13" font-weight="bold" lengthAdjust="spacing" textLength="24.4512" x="25" y="810.9497">opt</text><text fill="#000000" font-family="sans-serif" font-size="11" font-weight="bold" lengthAdjust="spacing" textLength="94.7246" x="94.4512" y="810.0933">[Apply Sorting]</text><g class="message" data-participant-1="User" data-participant-2="PlanCtrl"><polygon fill="#181818" points="253.7886,832.1484,263.7886,836.1484,253.7886,840.1484,257.7886,836.1484" style="stroke:#181818;stroke-width:1;"/><line style="stroke:#181818;stroke-width:1;" x1="50.6924" x2="259.7886" y1="836.1484" y2="836.1484"/><text fill="#000000" font-family="sans-serif" font-size="13" lengthAdjust="spacing" textLength="177.6074" x="69.4368" y="831.0825">applySorting(sortBy, order)</text></g><g class="message" data-participant-1="PlanCtrl" data-participant-2="PlanModel"><polygon fill="#181818" points="437.4683,861.2813,447.4683,865.2813,437.4683,869.2813,441.4683,865.2813" style="stroke:#181818;stroke-width:1;"/><line style="stroke:#181818;stroke-width:1;" x1="275.7886" x2="443.4683" y1="865.2813" y2="865.2813"/><text fill="#000000" font-family="sans-serif" font-size="13" lengthAdjust="spacing" textLength="154.6797" x="285.2886" y="860.2153">sortPlans(sortBy, order)</text></g><g class="message" data-participant-1="PlanModel" data-participant-2="PlanModel"><line style="stroke:#181818;stroke-width:1;" x1="459.4683" x2="501.4683" y1="894.4141" y2="894.4141"/><line style="stroke:#181818;stroke-width:1;" x1="501.4683" x2="501.4683" y1="894.4141" y2="907.4141"/><line style="stroke:#181818;stroke-width:1;" x1="460.4683" x2="501.4683" y1="907.4141" y2="907.4141"/><polygon fill="#181818" points="470.4683,903.4141,460.4683,907.4141,470.4683,911.4141,466.4683,907.4141" style="stroke:#181818;stroke-width:1;"/><text fill="#000000" font-family="sans-serif" font-size="13" lengthAdjust="spacing" textLength="66.3521" x="466.4683" y="889.3481">sortData()</text></g><g class="message" data-participant-1="PlanModel" data-participant-2="PlanCtrl"><polygon fill="#181818" points="286.7886,932.5469,276.7886,936.5469,286.7886,940.5469,282.7886,936.5469" style="stroke:#181818;stroke-width:1;"/><line style="stroke:#181818;stroke-width:1;stroke-dasharray:2,2;" x1="280.7886" x2="453.4683" y1="936.5469" y2="936.5469"/><text fill="#000000" font-family="sans-serif" font-size="13" lengthAdjust="spacing" textLength="75.8481" x="327.2043" y="931.481">sortedPlans</text></g><g class="message" data-participant-1="PlanCtrl" data-participant-2="User"><polygon fill="#181818" points="61.6924,961.6797,51.6924,965.6797,61.6924,969.6797,57.6924,965.6797" style="stroke:#181818;stroke-width:1;"/><line style="stroke:#181818;stroke-width:1;stroke-dasharray:2,2;" x1="55.6924" x2="264.7886" y1="965.6797" y2="965.6797"/><text fill="#000000" font-family="sans-serif" font-size="13" lengthAdjust="spacing" textLength="133.6309" x="91.425" y="960.6138">displaySortedPlans()</text></g><g class="message" data-participant-1="User" data-participant-2="PlanCtrl"><polygon fill="#181818" points="253.7886,997.8125,263.7886,1001.8125,253.7886,1005.8125,257.7886,1001.8125" style="stroke:#181818;stroke-width:1;"/><line style="stroke:#181818;stroke-width:1;" x1="50.6924" x2="259.7886" y1="1001.8125" y2="1001.8125"/><text fill="#000000" font-family="sans-serif" font-size="13" lengthAdjust="spacing" textLength="116.5811" x="99.95" y="996.7466">selectPlan(planId)</text></g><g class="message" data-participant-1="PlanCtrl" data-participant-2="PlanModel"><polygon fill="#181818" points="437.4683,1026.9453,447.4683,1030.9453,437.4683,1034.9453,441.4683,1030.9453" style="stroke:#181818;stroke-width:1;"/><line style="stroke:#181818;stroke-width:1;" x1="275.7886" x2="443.4683" y1="1030.9453" y2="1030.9453"/><text fill="#000000" font-family="sans-serif" font-size="13" lengthAdjust="spacing" textLength="128.0005" x="298.6282" y="1025.8794">getPlanById(planId)</text></g><g class="message" data-participant-1="PlanModel" data-participant-2="DB"><polygon fill="#181818" points="784.3906,1071.2109,794.3906,1075.2109,784.3906,1079.2109,788.3906,1075.2109" style="stroke:#181818;stroke-width:1;"/><line style="stroke:#181818;stroke-width:1;" x1="459.4683" x2="790.3906" y1="1075.2109" y2="1075.2109"/><text fill="#000000" font-family="sans-serif" font-size="13" lengthAdjust="spacing" textLength="140.6387" x="557.6101" y="1055.0122">SELECT * FROM plans</text><text fill="#000000" font-family="sans-serif" font-size="13" lengthAdjust="spacing" textLength="90.1431" x="582.8579" y="1070.145">WHERE id = ?</text></g><g class="message" data-participant-1="DB" data-participant-2="PlanModel"><polygon fill="#181818" points="470.4683,1100.3438,460.4683,1104.3438,470.4683,1108.3438,466.4683,1104.3438" style="stroke:#181818;stroke-width:1;"/><line style="stroke:#181818;stroke-width:1;stroke-dasharray:2,2;" x1="464.4683" x2="800.3906" y1="1104.3438" y2="1104.3438"/><text fill="#000000" font-family="sans-serif" font-size="13" lengthAdjust="spacing" textLength="73.1377" x="593.8606" y="1099.2778">planDetails</text></g><g class="message" data-participant-1="PlanModel" data-participant-2="PlanCtrl"><polygon fill="#181818" points="286.7886,1129.4766,276.7886,1133.4766,286.7886,1137.4766,282.7886,1133.4766" style="stroke:#181818;stroke-width:1;"/><line style="stroke:#181818;stroke-width:1;stroke-dasharray:2,2;" x1="280.7886" x2="453.4683" y1="1133.4766" y2="1133.4766"/><text fill="#000000" font-family="sans-serif" font-size="13" lengthAdjust="spacing" textLength="92.7646" x="318.7461" y="1128.4106">fullPlanDetails</text></g><g class="message" data-participant-1="PlanCtrl" data-participant-2="Session"><polygon fill="#181818" points="974.0815,1158.6094,984.0815,1162.6094,974.0815,1166.6094,978.0815,1162.6094" style="stroke:#181818;stroke-width:1;"/><line style="stroke:#181818;stroke-width:1;" x1="275.7886" x2="980.0815" y1="1162.6094" y2="1162.6094"/><text fill="#000000" font-family="sans-serif" font-size="13" lengthAdjust="spacing" textLength="173.2656" x="544.3022" y="1157.5435">checkUserAuthentication()</text></g><g class="message" data-participant-1="Session" data-participant-2="DB"><polygon fill="#181818" points="817.3906,1202.875,807.3906,1206.875,817.3906,1210.875,813.3906,1206.875" style="stroke:#181818;stroke-width:1;"/><line style="stroke:#181818;stroke-width:1;" x1="811.3906" x2="985.0815" y1="1206.875" y2="1206.875"/><text fill="#000000" font-family="sans-serif" font-size="13" lengthAdjust="spacing" textLength="160.6909" x="815.8906" y="1186.6763">SELECT * FROM sessions</text><text fill="#000000" font-family="sans-serif" font-size="13" lengthAdjust="spacing" textLength="144.7646" x="823.8538" y="1201.8091">WHERE session_id = ?</text></g><g class="message" data-participant-1="DB" data-participant-2="Session"><polygon fill="#181818" points="974.0815,1232.0078,984.0815,1236.0078,974.0815,1240.0078,978.0815,1236.0078" style="stroke:#181818;stroke-width:1;"/><line style="stroke:#181818;stroke-width:1;stroke-dasharray:2,2;" x1="801.3906" x2="980.0815" y1="1236.0078" y2="1236.0078"/><text fill="#000000" font-family="sans-serif" font-size="13" lengthAdjust="spacing" textLength="79.1616" x="854.1553" y="1230.9419">sessionData</text></g><path d="M10,1251.0078 L74.4429,1251.0078 L74.4429,1258.1406 L64.4429,1268.1406 L10,1268.1406 L10,1251.0078" fill="#EEEEEE" style="stroke:#000000;stroke-width:1.5;"/><rect fill="none" height="224.1328" style="stroke:#000000;stroke-width:1.5;" width="1028.7646" x="10" y="1251.0078"/><text fill="#000000" font-family="sans-serif" font-size="13" font-weight="bold" lengthAdjust="spacing" textLength="19.4429" x="25" y="1264.0747">alt</text><text fill="#000000" font-family="sans-serif" font-size="11" font-weight="bold" lengthAdjust="spacing" textLength="130.5391" x="89.4429" y="1263.2183">[User Authenticated]</text><g class="message" data-participant-1="Session" data-participant-2="PlanCtrl"><polygon fill="#181818" points="286.7886,1285.2734,276.7886,1289.2734,286.7886,1293.2734,282.7886,1289.2734" style="stroke:#181818;stroke-width:1;"/><line style="stroke:#181818;stroke-width:1;stroke-dasharray:2,2;" x1="280.7886" x2="990.0815" y1="1289.2734" y2="1289.2734"/><text fill="#000000" font-family="sans-serif" font-size="13" lengthAdjust="spacing" textLength="139.6548" x="563.6077" y="1284.2075">authenticated, userId</text></g><g class="message" data-participant-1="PlanCtrl" data-participant-2="User"><polygon fill="#181818" points="61.6924,1344.6719,51.6924,1348.6719,61.6924,1352.6719,57.6924,1348.6719" style="stroke:#181818;stroke-width:1;"/><line style="stroke:#181818;stroke-width:1;stroke-dasharray:2,2;" x1="55.6924" x2="264.7886" y1="1348.6719" y2="1348.6719"/><text fill="#000000" font-family="sans-serif" font-size="13" lengthAdjust="spacing" textLength="123.957" x="96.262" y="1313.3403">displayPlanDetails(</text><text fill="#000000" font-family="sans-serif" font-size="13" lengthAdjust="spacing" textLength="161.3828" x="77.5491" y="1328.4731">fullDescription, itinerary,</text><text fill="#000000" font-family="sans-serif" font-size="13" lengthAdjust="spacing" textLength="191.0962" x="62.6924" y="1343.606">features, "Book Now" button)</text></g><line style="stroke:#000000;stroke-width:1;stroke-dasharray:2,2;" x1="10" x2="1038.7646" y1="1357.6719" y2="1357.6719"/><text fill="#000000" font-family="sans-serif" font-size="11" font-weight="bold" lengthAdjust="spacing" textLength="156.3901" x="15" y="1367.8823">[User Not Authenticated]</text><g class="message" data-participant-1="Session" data-participant-2="PlanCtrl"><polygon fill="#181818" points="286.7886,1388.6094,276.7886,1392.6094,286.7886,1396.6094,282.7886,1392.6094" style="stroke:#181818;stroke-width:1;"/><line style="stroke:#181818;stroke-width:1;stroke-dasharray:2,2;" x1="280.7886" x2="990.0815" y1="1392.6094" y2="1392.6094"/><text fill="#000000" font-family="sans-serif" font-size="13" lengthAdjust="spacing" textLength="113.166" x="576.8521" y="1387.5435">notAuthenticated</text></g><g class="message" data-participant-1="PlanCtrl" data-participant-2="User"><polygon fill="#181818" points="61.6924,1463.1406,51.6924,1467.1406,61.6924,1471.1406,57.6924,1467.1406" style="stroke:#181818;stroke-width:1;"/><line style="stroke:#181818;stroke-width:1;stroke-dasharray:2,2;" x1="55.6924" x2="264.7886" y1="1467.1406" y2="1467.1406"/><text fill="#000000" font-family="sans-serif" font-size="13" lengthAdjust="spacing" textLength="123.957" x="96.262" y="1416.6763">displayPlanDetails(</text><text fill="#000000" font-family="sans-serif" font-size="13" lengthAdjust="spacing" textLength="161.3828" x="77.5491" y="1431.8091">fullDescription, itinerary,</text><text fill="#000000" font-family="sans-serif" font-size="13" lengthAdjust="spacing" textLength="163.1855" x="76.6477" y="1446.9419">features, "Login to Book"</text><text fill="#000000" font-family="sans-serif" font-size="13" lengthAdjust="spacing" textLength="63.4956" x="126.4927" y="1462.0747">message)</text></g><!--SRC=[lLPjQzim4FxkNt7aIrv8eJ3OXy0suZXT2qrRagrZ42YAVKb45ScJv9Ny- -bano-94pe6ouTOaXyzT_VexcJpocNADDk1mLyPoXXdQ0pRu5ZmZOGOfKKTc1AbqQHAcWCgHA7UnbghDx0wmo2mt0g4mI1qImQ1oGIUERx1B3EOxU19C6a6Wo1WiLKQEjyDwgNiFNF3tRpV0MQ0rW9dpVAOfqnQwD2kfPmeQRKI0hM7qUB4Qj46dQa4HOdoioPimk8jUe0VDLz6pB8LC_dxA6o-NBZ0kI8RJ3e1Sb-AnI0Wt-7gS-dS25PU21zthqzXyz_COkLzS1ZHDk_C23Pe_IWvsPPx6p1Xyo7SSXk0- -MpguRfkEBmc0IFU52OOWWpRiw0QB7kOwceztCin9ZmPOG4RqIPgtzWyJEYYS8HBARtqyat6C3D_746AJ4ivO_RwNmAnZAR6VW4NK-6tQLyd4VJEOG_8TR8h9FxnV8TEk0kXMYwc3HDktEZUHIMeXHEavavnaed9m4NUsf-DlHaLQ37Evk1dcXMdAjnELu8LUCwqgnIlJZJQZlQNjUhr1tMdHd2Xu_Nr_qpPooJUeuvDihH4IJSEAgz9_YgUT9RIhlDTYl9k72ClexTCycqrzfv6QZKmZXDnHvkk71j8LVXDEKPOGg8eprGE3A-NlCu4tO_TDQOflp94avTftyfpzQUAnTkAVFPH7FtpzdxCwv6UEHX6-Ev9CYnPyhgr7gxwZTr4bSq_f0gUHVADHovkIHl0UaPzmptGt3fZFgYY8JCxRNi-KlzY86wPE-oLWJxHwKM5SL1frD530gCVN0zAe-xfDzigysMHRDmVvUKs1Qd_gPLySIrgIz1lOkqTvq8BHLNqEmuPnCj4-AfVLVbPoFCuXPoZN-ByIl9DCxirjtWFFO5MBz83ZTMyMmFq-GlgwQSpr_EHrowK40fIOxYzPUNFyEQTvZuF2YzQIPy7JS4zoMXxvBZX3e4T3cTQe9ItJk98pInvcdUeBYhATHCKtzQkqicqzG3Ew5Ih_2WtZgmognLif_Vd3w81sNV7OXKzXJwdsAuLnikmIgWO3fBkSi_u8gQEaekClm7]--></g></svg>