<svg xmlns="http://www.w3.org/2000/svg" xmlns:xlink="http://www.w3.org/1999/xlink" contentStyleType="text/css" data-diagram-type="SEQUENCE" height="1074px" preserveAspectRatio="none" style="width:1053px;height:1074px;background:#FFFFFF;" version="1.1" viewBox="0 0 1053 1074" width="1053px" zoomAndPan="magnify"><title>**Email Verification Process**</title><defs/><g><text fill="#000000" font-family="sans-serif" font-size="14" font-weight="bold" lengthAdjust="spacing" textLength="205.9326" x="425.0212" y="27.9951">Email Verification Process</text><g><title>Auth</title><rect fill="#FFFFFF" height="833.9922" style="stroke:#181818;stroke-width:1;" width="10" x="290.3813" y="149.7266"/></g><g><title>Token</title><rect fill="#FFFFFF" height="414.7344" style="stroke:#181818;stroke-width:1;" width="10" x="487.7085" y="178.8594"/></g><g><title>Token</title><rect fill="#FFFFFF" height="103.6641" style="stroke:#181818;stroke-width:1;" width="10" x="487.7085" y="784.6563"/></g><g><title>User</title><rect fill="#FFFFFF" height="132.7969" style="stroke:#181818;stroke-width:1;" width="10" x="755.8481" y="622.7266"/></g><g><title>Database</title><rect fill="#FFFFFF" height="29.1328" style="stroke:#181818;stroke-width:1;" width="10" x="981.5747" y="253.3906"/></g><g><title>Database</title><rect fill="#FFFFFF" height="29.1328" style="stroke:#181818;stroke-width:1;" width="10" x="981.5747" y="697.2578"/></g><g><title>Database</title><rect fill="#FFFFFF" height="29.1328" style="stroke:#181818;stroke-width:1;" width="10" x="981.5747" y="859.1875"/></g><rect fill="none" height="679.1953" style="stroke:#000000;stroke-width:1.5;" width="1036.9751" x="10" y="297.5234"/><rect fill="none" height="502.5938" style="stroke:#000000;stroke-width:1.5;" width="1016.9751" x="20" y="467.125"/><g><title>User</title><rect fill="#000000" fill-opacity="0.00000" height="875.125" width="8" x="44.9551" y="118.5938"/><line style="stroke:#181818;stroke-width:0.5;stroke-dasharray:5,5;" x1="48" x2="48" y1="118.5938" y2="993.7188"/></g><g><title>Auth</title><rect fill="#000000" fill-opacity="0.00000" height="875.125" width="8" x="291.3813" y="118.5938"/><line style="stroke:#181818;stroke-width:0.5;stroke-dasharray:5,5;" x1="294.7949" x2="294.7949" y1="118.5938" y2="993.7188"/></g><g><title>Token</title><rect fill="#000000" fill-opacity="0.00000" height="875.125" width="8" x="488.7085" y="118.5938"/><line style="stroke:#181818;stroke-width:0.5;stroke-dasharray:5,5;" x1="492.353" x2="492.353" y1="118.5938" y2="993.7188"/></g><g><title>User</title><rect fill="#000000" fill-opacity="0.00000" height="875.125" width="8" x="756.8481" y="118.5938"/><line style="stroke:#181818;stroke-width:0.5;stroke-dasharray:5,5;" x1="760.8311" x2="760.8311" y1="118.5938" y2="993.7188"/></g><g><title>Database</title><rect fill="#000000" fill-opacity="0.00000" height="875.125" width="8" x="982.5747" y="118.5938"/><line style="stroke:#181818;stroke-width:0.5;stroke-dasharray:5,5;" x1="986.1743" x2="986.1743" y1="118.5938" y2="993.7188"/></g><g class="participant participant-head" data-participant="User"><text fill="#000000" font-family="sans-serif" font-size="14" lengthAdjust="spacing" textLength="31.9102" x="30" y="115.292">User</text><ellipse cx="48.9551" cy="50.7969" fill="#E2E2F0" rx="8" ry="8" style="stroke:#181818;stroke-width:0.5;"/><path d="M48.9551,58.7969 L48.9551,85.7969 M35.9551,66.7969 L61.9551,66.7969 M48.9551,85.7969 L35.9551,100.7969 M48.9551,85.7969 L61.9551,100.7969" fill="none" style="stroke:#181818;stroke-width:0.5;"/></g><g class="participant participant-tail" data-participant="User"><text fill="#000000" font-family="sans-serif" font-size="14" lengthAdjust="spacing" textLength="31.9102" x="30" y="1005.7139">User</text><ellipse cx="48.9551" cy="1017.5156" fill="#E2E2F0" rx="8" ry="8" style="stroke:#181818;stroke-width:0.5;"/><path d="M48.9551,1025.5156 L48.9551,1052.5156 M35.9551,1033.5156 L61.9551,1033.5156 M48.9551,1052.5156 L35.9551,1067.5156 M48.9551,1052.5156 L61.9551,1067.5156" fill="none" style="stroke:#181818;stroke-width:0.5;"/></g><g class="participant participant-head" data-participant="AuthCtrl"><rect fill="#E2E2F0" height="46.5938" rx="2.5" ry="2.5" style="stroke:#181818;stroke-width:0.5;" width="83.1729" x="253.7949" y="71"/><text fill="#000000" font-family="sans-serif" font-size="14" lengthAdjust="spacing" textLength="32.8125" x="278.9751" y="90.9951">Auth</text><text fill="#000000" font-family="sans-serif" font-size="14" lengthAdjust="spacing" textLength="69.1729" x="260.7949" y="107.292">Controller</text></g><g class="participant participant-tail" data-participant="AuthCtrl"><rect fill="#E2E2F0" height="46.5938" rx="2.5" ry="2.5" style="stroke:#181818;stroke-width:0.5;" width="83.1729" x="253.7949" y="992.7188"/><text fill="#000000" font-family="sans-serif" font-size="14" lengthAdjust="spacing" textLength="32.8125" x="278.9751" y="1012.7139">Auth</text><text fill="#000000" font-family="sans-serif" font-size="14" lengthAdjust="spacing" textLength="69.1729" x="260.7949" y="1029.0107">Controller</text></g><g class="participant participant-head" data-participant="TokenModel"><rect fill="#E2E2F0" height="46.5938" rx="2.5" ry="2.5" style="stroke:#181818;stroke-width:0.5;" width="56.7109" x="464.353" y="71"/><text fill="#000000" font-family="sans-serif" font-size="14" lengthAdjust="spacing" textLength="42.7109" x="471.353" y="90.9951">Token</text><text fill="#000000" font-family="sans-serif" font-size="14" lengthAdjust="spacing" textLength="42.0342" x="471.6914" y="107.292">Model</text></g><g class="participant participant-tail" data-participant="TokenModel"><rect fill="#E2E2F0" height="46.5938" rx="2.5" ry="2.5" style="stroke:#181818;stroke-width:0.5;" width="56.7109" x="464.353" y="992.7188"/><text fill="#000000" font-family="sans-serif" font-size="14" lengthAdjust="spacing" textLength="42.7109" x="471.353" y="1012.7139">Token</text><text fill="#000000" font-family="sans-serif" font-size="14" lengthAdjust="spacing" textLength="42.0342" x="471.6914" y="1029.0107">Model</text></g><g class="participant participant-head" data-participant="UserModel"><rect fill="#E2E2F0" height="46.5938" rx="2.5" ry="2.5" style="stroke:#181818;stroke-width:0.5;" width="56.0342" x="732.8311" y="71"/><text fill="#000000" font-family="sans-serif" font-size="14" lengthAdjust="spacing" textLength="31.9102" x="744.8931" y="90.9951">User</text><text fill="#000000" font-family="sans-serif" font-size="14" lengthAdjust="spacing" textLength="42.0342" x="739.8311" y="107.292">Model</text></g><g class="participant participant-tail" data-participant="UserModel"><rect fill="#E2E2F0" height="46.5938" rx="2.5" ry="2.5" style="stroke:#181818;stroke-width:0.5;" width="56.0342" x="732.8311" y="992.7188"/><text fill="#000000" font-family="sans-serif" font-size="14" lengthAdjust="spacing" textLength="31.9102" x="744.8931" y="1012.7139">User</text><text fill="#000000" font-family="sans-serif" font-size="14" lengthAdjust="spacing" textLength="42.0342" x="739.8311" y="1029.0107">Model</text></g><g class="participant participant-head" data-participant="DB"><rect fill="#E2E2F0" height="30.2969" rx="2.5" ry="2.5" style="stroke:#181818;stroke-width:0.5;" width="80.8008" x="946.1743" y="87.2969"/><text fill="#000000" font-family="sans-serif" font-size="14" lengthAdjust="spacing" textLength="66.8008" x="953.1743" y="107.292">Database</text></g><g class="participant participant-tail" data-participant="DB"><rect fill="#E2E2F0" height="30.2969" rx="2.5" ry="2.5" style="stroke:#181818;stroke-width:0.5;" width="80.8008" x="946.1743" y="992.7188"/><text fill="#000000" font-family="sans-serif" font-size="14" lengthAdjust="spacing" textLength="66.8008" x="953.1743" y="1012.7139">Database</text></g><g><title>Auth</title><rect fill="#FFFFFF" height="833.9922" style="stroke:#181818;stroke-width:1;" width="10" x="290.3813" y="149.7266"/></g><g><title>Token</title><rect fill="#FFFFFF" height="414.7344" style="stroke:#181818;stroke-width:1;" width="10" x="487.7085" y="178.8594"/></g><g><title>Token</title><rect fill="#FFFFFF" height="103.6641" style="stroke:#181818;stroke-width:1;" width="10" x="487.7085" y="784.6563"/></g><g><title>User</title><rect fill="#FFFFFF" height="132.7969" style="stroke:#181818;stroke-width:1;" width="10" x="755.8481" y="622.7266"/></g><g><title>Database</title><rect fill="#FFFFFF" height="29.1328" style="stroke:#181818;stroke-width:1;" width="10" x="981.5747" y="253.3906"/></g><g><title>Database</title><rect fill="#FFFFFF" height="29.1328" style="stroke:#181818;stroke-width:1;" width="10" x="981.5747" y="697.2578"/></g><g><title>Database</title><rect fill="#FFFFFF" height="29.1328" style="stroke:#181818;stroke-width:1;" width="10" x="981.5747" y="859.1875"/></g><g class="message" data-participant-1="User" data-participant-2="AuthCtrl"><polygon fill="#181818" points="278.3813,145.7266,288.3813,149.7266,278.3813,153.7266,282.3813,149.7266" style="stroke:#181818;stroke-width:1;"/><line style="stroke:#181818;stroke-width:1;" x1="48.9551" x2="284.3813" y1="149.7266" y2="149.7266"/><text fill="#000000" font-family="sans-serif" font-size="13" lengthAdjust="spacing" textLength="176.6807" x="81.3279" y="144.6606">clickVerificationLink(token)</text></g><g class="message" data-participant-1="AuthCtrl" data-participant-2="TokenModel"><polygon fill="#181818" points="475.7085,174.8594,485.7085,178.8594,475.7085,182.8594,479.7085,178.8594" style="stroke:#181818;stroke-width:1;"/><line style="stroke:#181818;stroke-width:1;" x1="300.3813" x2="481.7085" y1="178.8594" y2="178.8594"/><text fill="#000000" font-family="sans-serif" font-size="13" lengthAdjust="spacing" textLength="138.8169" x="324.6365" y="173.7935">validateToken(token)</text></g><g class="message" data-participant-1="TokenModel" data-participant-2="DB"><polygon fill="#181818" points="969.5747,249.3906,979.5747,253.3906,969.5747,257.3906,973.5747,253.3906" style="stroke:#181818;stroke-width:1;"/><line style="stroke:#181818;stroke-width:1;" x1="497.7085" x2="975.5747" y1="253.3906" y2="253.3906"/><text fill="#000000" font-family="sans-serif" font-size="13" lengthAdjust="spacing" textLength="101.6641" x="688.8096" y="202.9263">SELECT * FROM</text><text fill="#000000" font-family="sans-serif" font-size="13" lengthAdjust="spacing" textLength="165.293" x="656.9951" y="218.0591">email_verification_tokens</text><text fill="#000000" font-family="sans-serif" font-size="13" lengthAdjust="spacing" textLength="115.0957" x="682.0938" y="233.1919">WHERE token = ?</text><text fill="#000000" font-family="sans-serif" font-size="13" lengthAdjust="spacing" textLength="130.9902" x="674.1465" y="248.3247">AND is_used = false</text></g><g class="message" data-participant-1="DB" data-participant-2="TokenModel"><polygon fill="#181818" points="508.7085,278.5234,498.7085,282.5234,508.7085,286.5234,504.7085,282.5234" style="stroke:#181818;stroke-width:1;"/><line style="stroke:#181818;stroke-width:1;stroke-dasharray:2,2;" x1="502.7085" x2="985.5747" y1="282.5234" y2="282.5234"/><text fill="#000000" font-family="sans-serif" font-size="13" lengthAdjust="spacing" textLength="82.5449" x="700.8691" y="277.4575">tokenRecord</text></g><path d="M10,297.5234 L74.4429,297.5234 L74.4429,304.6563 L64.4429,314.6563 L10,314.6563 L10,297.5234" fill="#EEEEEE" style="stroke:#000000;stroke-width:1.5;"/><rect fill="none" height="679.1953" style="stroke:#000000;stroke-width:1.5;" width="1036.9751" x="10" y="297.5234"/><text fill="#000000" font-family="sans-serif" font-size="13" font-weight="bold" lengthAdjust="spacing" textLength="19.4429" x="25" y="310.5903">alt</text><text fill="#000000" font-family="sans-serif" font-size="11" font-weight="bold" lengthAdjust="spacing" textLength="116.0103" x="89.4429" y="309.7339">[Token Not Found]</text><g class="message" data-participant-1="TokenModel" data-participant-2="AuthCtrl"><polygon fill="#181818" points="311.3813,331.7891,301.3813,335.7891,311.3813,339.7891,307.3813,335.7891" style="stroke:#181818;stroke-width:1;"/><line style="stroke:#181818;stroke-width:1;stroke-dasharray:2,2;" x1="305.3813" x2="486.7085" y1="335.7891" y2="335.7891"/><text fill="#000000" font-family="sans-serif" font-size="13" lengthAdjust="spacing" textLength="80.0249" x="354.0325" y="330.7231">tokenInvalid</text></g><g class="message" data-participant-1="AuthCtrl" data-participant-2="User"><polygon fill="#181818" points="59.9551,376.0547,49.9551,380.0547,59.9551,384.0547,55.9551,380.0547" style="stroke:#181818;stroke-width:1;"/><line style="stroke:#181818;stroke-width:1;stroke-dasharray:2,2;" x1="53.9551" x2="289.3813" y1="380.0547" y2="380.0547"/><text fill="#000000" font-family="sans-serif" font-size="13" lengthAdjust="spacing" textLength="83.4336" x="127.9514" y="359.856">displayError(</text><text fill="#000000" font-family="sans-serif" font-size="13" lengthAdjust="spacing" textLength="178.1724" x="80.582" y="374.9888">"Invalid verification token")</text></g><line style="stroke:#000000;stroke-width:1;stroke-dasharray:2,2;" x1="10" x2="1046.9751" y1="389.0547" y2="389.0547"/><text fill="#000000" font-family="sans-serif" font-size="11" font-weight="bold" lengthAdjust="spacing" textLength="90.1592" x="15" y="399.2651">[Token Found]</text><g class="message" data-participant-1="TokenModel" data-participant-2="TokenModel"><line style="stroke:#181818;stroke-width:1;" x1="497.7085" x2="539.7085" y1="439.125" y2="439.125"/><line style="stroke:#181818;stroke-width:1;" x1="539.7085" x2="539.7085" y1="439.125" y2="452.125"/><line style="stroke:#181818;stroke-width:1;" x1="498.7085" x2="539.7085" y1="452.125" y2="452.125"/><polygon fill="#181818" points="508.7085,448.125,498.7085,452.125,508.7085,456.125,504.7085,452.125" style="stroke:#181818;stroke-width:1;"/><text fill="#000000" font-family="sans-serif" font-size="13" lengthAdjust="spacing" textLength="109.1162" x="567.2202" y="418.9263">checkExpiration(</text><text fill="#000000" font-family="sans-serif" font-size="13" lengthAdjust="spacing" textLength="234.1396" x="504.7085" y="434.0591">tokenRecord.expiration_timestamp)</text></g><path d="M20,467.125 L84.4429,467.125 L84.4429,474.2578 L74.4429,484.2578 L20,484.2578 L20,467.125" fill="#EEEEEE" style="stroke:#000000;stroke-width:1.5;"/><rect fill="none" height="502.5938" style="stroke:#000000;stroke-width:1.5;" width="1016.9751" x="20" y="467.125"/><text fill="#000000" font-family="sans-serif" font-size="13" font-weight="bold" lengthAdjust="spacing" textLength="19.4429" x="35" y="480.1919">alt</text><text fill="#000000" font-family="sans-serif" font-size="11" font-weight="bold" lengthAdjust="spacing" textLength="98.5649" x="99.4429" y="479.3354">[Token Expired]</text><g class="message" data-participant-1="TokenModel" data-participant-2="AuthCtrl"><polygon fill="#181818" points="311.3813,501.3906,301.3813,505.3906,311.3813,509.3906,307.3813,505.3906" style="stroke:#181818;stroke-width:1;"/><line style="stroke:#181818;stroke-width:1;stroke-dasharray:2,2;" x1="305.3813" x2="486.7085" y1="505.3906" y2="505.3906"/><text fill="#000000" font-family="sans-serif" font-size="13" lengthAdjust="spacing" textLength="86.1821" x="350.9539" y="500.3247">tokenExpired</text></g><g class="message" data-participant-1="AuthCtrl" data-participant-2="User"><polygon fill="#181818" points="59.9551,545.6563,49.9551,549.6563,59.9551,553.6563,55.9551,549.6563" style="stroke:#181818;stroke-width:1;"/><line style="stroke:#181818;stroke-width:1;stroke-dasharray:2,2;" x1="53.9551" x2="289.3813" y1="549.6563" y2="549.6563"/><text fill="#000000" font-family="sans-serif" font-size="13" lengthAdjust="spacing" textLength="83.4336" x="127.9514" y="529.4575">displayError(</text><text fill="#000000" font-family="sans-serif" font-size="13" lengthAdjust="spacing" textLength="137.084" x="101.1262" y="544.5903">"Token has expired")</text></g><line style="stroke:#000000;stroke-width:1;stroke-dasharray:2,2;" x1="20" x2="1036.9751" y1="558.6563" y2="558.6563"/><text fill="#000000" font-family="sans-serif" font-size="11" font-weight="bold" lengthAdjust="spacing" textLength="82.9028" x="25" y="568.8667">[Token Valid]</text><g class="message" data-participant-1="TokenModel" data-participant-2="AuthCtrl"><polygon fill="#181818" points="311.3813,589.5938,301.3813,593.5938,311.3813,597.5938,307.3813,593.5938" style="stroke:#181818;stroke-width:1;"/><line style="stroke:#181818;stroke-width:1;stroke-dasharray:2,2;" x1="305.3813" x2="491.7085" y1="593.5938" y2="593.5938"/><text fill="#000000" font-family="sans-serif" font-size="13" lengthAdjust="spacing" textLength="117.8569" x="337.6165" y="588.5278">tokenValid, userId</text></g><g class="message" data-participant-1="AuthCtrl" data-participant-2="UserModel"><polygon fill="#181818" points="743.8481,618.7266,753.8481,622.7266,743.8481,626.7266,747.8481,622.7266" style="stroke:#181818;stroke-width:1;"/><line style="stroke:#181818;stroke-width:1;" x1="300.3813" x2="749.8481" y1="622.7266" y2="622.7266"/><text fill="#000000" font-family="sans-serif" font-size="13" lengthAdjust="spacing" textLength="185.5103" x="435.3596" y="617.6606">activateUserAccount(userId)</text></g><g class="message" data-participant-1="UserModel" data-participant-2="DB"><polygon fill="#181818" points="969.5747,693.2578,979.5747,697.2578,969.5747,701.2578,973.5747,697.2578" style="stroke:#181818;stroke-width:1;"/><line style="stroke:#181818;stroke-width:1;" x1="765.8481" x2="975.5747" y1="697.2578" y2="697.2578"/><text fill="#000000" font-family="sans-serif" font-size="13" lengthAdjust="spacing" textLength="91.6729" x="827.875" y="646.7935">UPDATE users</text><text fill="#000000" font-family="sans-serif" font-size="13" lengthAdjust="spacing" textLength="196.7266" x="775.3481" y="661.9263">SET account_status = 'active',</text><text fill="#000000" font-family="sans-serif" font-size="13" lengthAdjust="spacing" textLength="137.2744" x="805.0742" y="677.0591">email_verified = true</text><text fill="#000000" font-family="sans-serif" font-size="13" lengthAdjust="spacing" textLength="90.1431" x="828.6399" y="692.1919">WHERE id = ?</text></g><g class="message" data-participant-1="DB" data-participant-2="UserModel"><polygon fill="#181818" points="776.8481,722.3906,766.8481,726.3906,776.8481,730.3906,772.8481,726.3906" style="stroke:#181818;stroke-width:1;"/><line style="stroke:#181818;stroke-width:1;stroke-dasharray:2,2;" x1="770.8481" x2="985.5747" y1="726.3906" y2="726.3906"/><text fill="#000000" font-family="sans-serif" font-size="13" lengthAdjust="spacing" textLength="50.8511" x="850.7859" y="721.3247">success</text></g><g class="message" data-participant-1="UserModel" data-participant-2="AuthCtrl"><polygon fill="#181818" points="311.3813,751.5234,301.3813,755.5234,311.3813,759.5234,307.3813,755.5234" style="stroke:#181818;stroke-width:1;"/><line style="stroke:#181818;stroke-width:1;stroke-dasharray:2,2;" x1="305.3813" x2="759.8481" y1="755.5234" y2="755.5234"/><text fill="#000000" font-family="sans-serif" font-size="13" lengthAdjust="spacing" textLength="113.5469" x="473.8413" y="750.4575">accountActivated</text></g><g class="message" data-participant-1="AuthCtrl" data-participant-2="TokenModel"><polygon fill="#181818" points="475.7085,780.6563,485.7085,784.6563,475.7085,788.6563,479.7085,784.6563" style="stroke:#181818;stroke-width:1;"/><line style="stroke:#181818;stroke-width:1;" x1="300.3813" x2="481.7085" y1="784.6563" y2="784.6563"/><text fill="#000000" font-family="sans-serif" font-size="13" lengthAdjust="spacing" textLength="168.3271" x="309.8813" y="779.5903">markTokenAsUsed(token)</text></g><g class="message" data-participant-1="TokenModel" data-participant-2="DB"><polygon fill="#181818" points="969.5747,855.1875,979.5747,859.1875,969.5747,863.1875,973.5747,859.1875" style="stroke:#181818;stroke-width:1;"/><line style="stroke:#181818;stroke-width:1;" x1="497.7085" x2="975.5747" y1="859.1875" y2="859.1875"/><text fill="#000000" font-family="sans-serif" font-size="13" lengthAdjust="spacing" textLength="52.4126" x="713.4353" y="808.7231">UPDATE</text><text fill="#000000" font-family="sans-serif" font-size="13" lengthAdjust="spacing" textLength="165.293" x="656.9951" y="823.856">email_verification_tokens</text><text fill="#000000" font-family="sans-serif" font-size="13" lengthAdjust="spacing" textLength="122.5225" x="678.3804" y="838.9888">SET is_used = true</text><text fill="#000000" font-family="sans-serif" font-size="13" lengthAdjust="spacing" textLength="115.0957" x="682.0938" y="854.1216">WHERE token = ?</text></g><g class="message" data-participant-1="DB" data-participant-2="TokenModel"><polygon fill="#181818" points="503.7085,884.3203,493.7085,888.3203,503.7085,892.3203,499.7085,888.3203" style="stroke:#181818;stroke-width:1;"/><line style="stroke:#181818;stroke-width:1;stroke-dasharray:2,2;" x1="497.7085" x2="985.5747" y1="888.3203" y2="888.3203"/><text fill="#000000" font-family="sans-serif" font-size="13" lengthAdjust="spacing" textLength="50.8511" x="714.2161" y="883.2544">success</text></g><g class="message" data-participant-1="AuthCtrl" data-participant-2="User"><polygon fill="#181818" points="59.9551,928.5859,49.9551,932.5859,59.9551,936.5859,55.9551,932.5859" style="stroke:#181818;stroke-width:1;"/><line style="stroke:#181818;stroke-width:1;stroke-dasharray:2,2;" x1="53.9551" x2="289.3813" y1="932.5859" y2="932.5859"/><text fill="#000000" font-family="sans-serif" font-size="13" lengthAdjust="spacing" textLength="103.562" x="117.8872" y="912.3872">displaySuccess(</text><text fill="#000000" font-family="sans-serif" font-size="13" lengthAdjust="spacing" textLength="217.4263" x="60.9551" y="927.52">"Account activated successfully")</text></g><g class="message" data-participant-1="AuthCtrl" data-participant-2="User"><polygon fill="#181818" points="59.9551,957.7188,49.9551,961.7188,59.9551,965.7188,55.9551,961.7188" style="stroke:#181818;stroke-width:1;"/><line style="stroke:#181818;stroke-width:1;stroke-dasharray:2,2;" x1="53.9551" x2="289.3813" y1="961.7188" y2="961.7188"/><text fill="#000000" font-family="sans-serif" font-size="13" lengthAdjust="spacing" textLength="112.1313" x="113.6025" y="956.6528">redirectToLogin()</text></g><!--SRC=[bLJRJkCm47ttLupoGbl1Va2b1QKaQ94eYw2mBvKghpCjLboxQpjb-VkrdPlRHi0Y5SMJCpFdd8p7b5pkgAPRCFYdGibmZiRG3QQ2RoGmb1OrCHrAezafQLhK38LwIxLMRs1rXOHORWN2P99lAHVmWfglEQEMAmaFMZ6NDPaGGfbL6f9dWpe1Qi0_4DV0SiPtL5f8qig-BkMrabOh8HgO3rvRBGwX2rMYNCgvAb04M0Y4uo7GTubn_Zm0owYblwd1WCbcX7WSN5nsxQV016TbBEwEot9aVT-n5yVtr69FbxHFlahFRWfxAdZXe25saX_fw1zzYMmsXQVyBhzUm0Hk7d_EbnAztwjzH6aLofcb_FKZVymXdE0xN2rbUfy1DwlAOE42QoeCzasTu6m65qT4G_OZCgKBKc0C9bJO6WhtoiADgcH1mFt5b0_C2xLkPT0UaBqx3kVDdaB1pKxGzznDbXujPTB08HPO5qh619s0Xi9m-qCjx1LPcV_TSHtAkFAHkc_OlLXPlaLZwNOt3XN3lrvjg81riy_r7gE_eBbky-g64ElafEOHoNtfFFoSGS2UW_lg-hRFYJvcD6xjsm6wb_srcKARwqCfOyvyEweRZBlKhdv_tTfNNQGTwkU7B5taWQCRtATyuR93rPNx3hOoRbpFGZqyEp-S-J3AVWMryyvzuEgKXHlPDjRCUQJ7LColg25teho8ze7D3TUqIHaq-TI4GO_ZUTrINOPpQbnsqQw94sK3t-zqRTGEVxWllEtzUeWzxNR8LsoD9NpDr_-UnUEhyrItyPUdcSQEOD5oM5T2l2VZZwgvg-Qk6xCBTQSsN8wQQ-SMY_z5BDlSVm00]--></g></svg>