<svg xmlns="http://www.w3.org/2000/svg" xmlns:xlink="http://www.w3.org/1999/xlink" contentStyleType="text/css" data-diagram-type="SEQUENCE" height="2011px" preserveAspectRatio="none" style="width:1264px;height:2011px;background:#FFFFFF;" version="1.1" viewBox="0 0 1264 2011" width="1264px" zoomAndPan="magnify"><title>**User Login Process**</title><defs/><g><text fill="#000000" font-family="sans-serif" font-size="14" font-weight="bold" lengthAdjust="spacing" textLength="150.418" x="557.9375" y="27.9951">User Login Process</text><g><title>Auth</title><rect fill="#FFFFFF" height="1770.5078" style="stroke:#181818;stroke-width:1;" width="10" x="284.0977" y="149.7266"/></g><g><title>Rate</title><rect fill="#FFFFFF" height="216.3281" style="stroke:#181818;stroke-width:1;" width="10" x="499.6216" y="193.9922"/></g><g><title>User</title><rect fill="#FFFFFF" height="318.2656" style="stroke:#181818;stroke-width:1;" width="10" x="569.1763" y="454.2578"/></g><g><title>User</title><rect fill="#FFFFFF" height="109.1875" style="stroke:#181818;stroke-width:1;" width="10" x="569.1763" y="1583.1172"/></g><g><title>Security</title><rect fill="#FFFFFF" height="71.2656" style="stroke:#181818;stroke-width:1;" width="10" x="642.9385" y="972.3906"/></g><g><title>Session</title><rect fill="#FFFFFF" height="205.1953" style="stroke:#181818;stroke-width:1;" width="10" x="792.4468" y="1348.7891"/></g><g><title>Database</title><rect fill="#FFFFFF" height="29.1328" style="stroke:#181818;stroke-width:1;" width="10" x="968.9092" y="268.5234"/></g><g><title>Database</title><rect fill="#FFFFFF" height="29.1328" style="stroke:#181818;stroke-width:1;" width="10" x="968.9092" y="498.5234"/></g><g><title>Database</title><rect fill="#FFFFFF" height="30" style="stroke:#181818;stroke-width:1;" width="10" x="968.9092" y="654.3203"/></g><g><title>Database</title><rect fill="#FFFFFF" height="30" style="stroke:#181818;stroke-width:1;" width="10" x="968.9092" y="1112.0547"/></g><g><title>Database</title><rect fill="#FFFFFF" height="30" style="stroke:#181818;stroke-width:1;" width="10" x="968.9092" y="1215.4531"/></g><g><title>Database</title><rect fill="#FFFFFF" height="29.1328" style="stroke:#181818;stroke-width:1;" width="10" x="968.9092" y="1495.7188"/></g><g><title>Database</title><rect fill="#FFFFFF" height="30" style="stroke:#181818;stroke-width:1;" width="10" x="968.9092" y="1662.3047"/></g><g><title>Database</title><rect fill="#FFFFFF" height="30" style="stroke:#181818;stroke-width:1;" width="10" x="968.9092" y="1795.9688"/></g><g><title>Audit</title><rect fill="#FFFFFF" height="59.1328" style="stroke:#181818;stroke-width:1;" width="10" x="1181.0391" y="625.1875"/></g><g><title>Audit</title><rect fill="#FFFFFF" height="59.1328" style="stroke:#181818;stroke-width:1;" width="10" x="1181.0391" y="1186.3203"/></g><g><title>Audit</title><rect fill="#FFFFFF" height="89.3984" style="stroke:#181818;stroke-width:1;" width="10" x="1181.0391" y="1736.5703"/></g><rect fill="none" height="1600.5781" style="stroke:#000000;stroke-width:1.5;" width="1247.293" x="10" y="312.6563"/><rect fill="none" height="1363.5781" style="stroke:#000000;stroke-width:1.5;" width="1227.293" x="20" y="542.6563"/><rect fill="none" height="1054.4453" style="stroke:#000000;stroke-width:1.5;" width="1207.293" x="30" y="844.7891"/><rect fill="none" height="833.5781" style="stroke:#000000;stroke-width:1.5;" width="1187.293" x="40" y="1058.6563"/><g><title>User</title><rect fill="#000000" fill-opacity="0.00000" height="1811.6406" width="8" x="64.9551" y="118.5938"/><line style="stroke:#181818;stroke-width:0.5;stroke-dasharray:5,5;" x1="68" x2="68" y1="118.5938" y2="1930.2344"/></g><g><title>Auth</title><rect fill="#000000" fill-opacity="0.00000" height="1811.6406" width="8" x="285.0977" y="118.5938"/><line style="stroke:#181818;stroke-width:0.5;stroke-dasharray:5,5;" x1="288.5112" x2="288.5112" y1="118.5938" y2="1930.2344"/></g><g><title>Rate</title><rect fill="#000000" fill-opacity="0.00000" height="1811.6406" width="8" x="500.6216" y="118.5938"/><line style="stroke:#181818;stroke-width:0.5;stroke-dasharray:5,5;" x1="504.084" x2="504.084" y1="118.5938" y2="1930.2344"/></g><g><title>User</title><rect fill="#000000" fill-opacity="0.00000" height="1811.6406" width="8" x="570.1763" y="118.5938"/><line style="stroke:#181818;stroke-width:0.5;stroke-dasharray:5,5;" x1="574.1592" x2="574.1592" y1="118.5938" y2="1930.2344"/></g><g><title>Security</title><rect fill="#000000" fill-opacity="0.00000" height="1811.6406" width="8" x="643.9385" y="118.5938"/><line style="stroke:#181818;stroke-width:0.5;stroke-dasharray:5,5;" x1="647.1934" x2="647.1934" y1="118.5938" y2="1930.2344"/></g><g><title>Session</title><rect fill="#000000" fill-opacity="0.00000" height="1811.6406" width="8" x="793.4468" y="118.5938"/><line style="stroke:#181818;stroke-width:0.5;stroke-dasharray:5,5;" x1="796.7637" x2="796.7637" y1="118.5938" y2="1930.2344"/></g><g><title>Database</title><rect fill="#000000" fill-opacity="0.00000" height="1811.6406" width="8" x="969.9092" y="118.5938"/><line style="stroke:#181818;stroke-width:0.5;stroke-dasharray:5,5;" x1="973.5088" x2="973.5088" y1="118.5938" y2="1930.2344"/></g><g><title>Audit</title><rect fill="#000000" fill-opacity="0.00000" height="1811.6406" width="8" x="1182.0391" y="118.5938"/><line style="stroke:#181818;stroke-width:0.5;stroke-dasharray:5,5;" x1="1185.7852" x2="1185.7852" y1="118.5938" y2="1930.2344"/></g><g class="participant participant-head" data-participant="User"><text fill="#000000" font-family="sans-serif" font-size="14" lengthAdjust="spacing" textLength="31.9102" x="50" y="115.292">User</text><ellipse cx="68.9551" cy="50.7969" fill="#E2E2F0" rx="8" ry="8" style="stroke:#181818;stroke-width:0.5;"/><path d="M68.9551,58.7969 L68.9551,85.7969 M55.9551,66.7969 L81.9551,66.7969 M68.9551,85.7969 L55.9551,100.7969 M68.9551,85.7969 L81.9551,100.7969" fill="none" style="stroke:#181818;stroke-width:0.5;"/></g><g class="participant participant-tail" data-participant="User"><text fill="#000000" font-family="sans-serif" font-size="14" lengthAdjust="spacing" textLength="31.9102" x="50" y="1942.2295">User</text><ellipse cx="68.9551" cy="1954.0313" fill="#E2E2F0" rx="8" ry="8" style="stroke:#181818;stroke-width:0.5;"/><path d="M68.9551,1962.0313 L68.9551,1989.0313 M55.9551,1970.0313 L81.9551,1970.0313 M68.9551,1989.0313 L55.9551,2004.0313 M68.9551,1989.0313 L81.9551,2004.0313" fill="none" style="stroke:#181818;stroke-width:0.5;"/></g><g class="participant participant-head" data-participant="AuthCtrl"><rect fill="#E2E2F0" height="46.5938" rx="2.5" ry="2.5" style="stroke:#181818;stroke-width:0.5;" width="83.1729" x="247.5112" y="71"/><text fill="#000000" font-family="sans-serif" font-size="14" lengthAdjust="spacing" textLength="32.8125" x="272.6914" y="90.9951">Auth</text><text fill="#000000" font-family="sans-serif" font-size="14" lengthAdjust="spacing" textLength="69.1729" x="254.5112" y="107.292">Controller</text></g><g class="participant participant-tail" data-participant="AuthCtrl"><rect fill="#E2E2F0" height="46.5938" rx="2.5" ry="2.5" style="stroke:#181818;stroke-width:0.5;" width="83.1729" x="247.5112" y="1929.2344"/><text fill="#000000" font-family="sans-serif" font-size="14" lengthAdjust="spacing" textLength="32.8125" x="272.6914" y="1949.2295">Auth</text><text fill="#000000" font-family="sans-serif" font-size="14" lengthAdjust="spacing" textLength="69.1729" x="254.5112" y="1965.5264">Controller</text></g><g class="participant participant-head" data-participant="RateLimit"><rect fill="#E2E2F0" height="46.5938" rx="2.5" ry="2.5" style="stroke:#181818;stroke-width:0.5;" width="63.0752" x="473.084" y="71"/><text fill="#000000" font-family="sans-serif" font-size="14" lengthAdjust="spacing" textLength="32.4092" x="488.417" y="90.9951">Rate</text><text fill="#000000" font-family="sans-serif" font-size="14" lengthAdjust="spacing" textLength="49.0752" x="480.084" y="107.292">Limiter</text></g><g class="participant participant-tail" data-participant="RateLimit"><rect fill="#E2E2F0" height="46.5938" rx="2.5" ry="2.5" style="stroke:#181818;stroke-width:0.5;" width="63.0752" x="473.084" y="1929.2344"/><text fill="#000000" font-family="sans-serif" font-size="14" lengthAdjust="spacing" textLength="32.4092" x="488.417" y="1949.2295">Rate</text><text fill="#000000" font-family="sans-serif" font-size="14" lengthAdjust="spacing" textLength="49.0752" x="480.084" y="1965.5264">Limiter</text></g><g class="participant participant-head" data-participant="UserModel"><rect fill="#E2E2F0" height="46.5938" rx="2.5" ry="2.5" style="stroke:#181818;stroke-width:0.5;" width="56.0342" x="546.1592" y="71"/><text fill="#000000" font-family="sans-serif" font-size="14" lengthAdjust="spacing" textLength="31.9102" x="558.2212" y="90.9951">User</text><text fill="#000000" font-family="sans-serif" font-size="14" lengthAdjust="spacing" textLength="42.0342" x="553.1592" y="107.292">Model</text></g><g class="participant participant-tail" data-participant="UserModel"><rect fill="#E2E2F0" height="46.5938" rx="2.5" ry="2.5" style="stroke:#181818;stroke-width:0.5;" width="56.0342" x="546.1592" y="1929.2344"/><text fill="#000000" font-family="sans-serif" font-size="14" lengthAdjust="spacing" textLength="31.9102" x="558.2212" y="1949.2295">User</text><text fill="#000000" font-family="sans-serif" font-size="14" lengthAdjust="spacing" textLength="42.0342" x="553.1592" y="1965.5264">Model</text></g><g class="participant participant-head" data-participant="Sec"><rect fill="#E2E2F0" height="30.2969" rx="2.5" ry="2.5" style="stroke:#181818;stroke-width:0.5;" width="71.4902" x="612.1934" y="87.2969"/><text fill="#000000" font-family="sans-serif" font-size="14" lengthAdjust="spacing" textLength="57.4902" x="619.1934" y="107.292">Security</text></g><g class="participant participant-tail" data-participant="Sec"><rect fill="#E2E2F0" height="30.2969" rx="2.5" ry="2.5" style="stroke:#181818;stroke-width:0.5;" width="71.4902" x="612.1934" y="1929.2344"/><text fill="#000000" font-family="sans-serif" font-size="14" lengthAdjust="spacing" textLength="57.4902" x="619.1934" y="1949.2295">Security</text></g><g class="participant participant-head" data-participant="Session"><rect fill="#E2E2F0" height="46.5938" rx="2.5" ry="2.5" style="stroke:#181818;stroke-width:0.5;" width="75.3662" x="759.7637" y="71"/><text fill="#000000" font-family="sans-serif" font-size="14" lengthAdjust="spacing" textLength="53.416" x="770.7388" y="90.9951">Session</text><text fill="#000000" font-family="sans-serif" font-size="14" lengthAdjust="spacing" textLength="61.3662" x="766.7637" y="107.292">Manager</text></g><g class="participant participant-tail" data-participant="Session"><rect fill="#E2E2F0" height="46.5938" rx="2.5" ry="2.5" style="stroke:#181818;stroke-width:0.5;" width="75.3662" x="759.7637" y="1929.2344"/><text fill="#000000" font-family="sans-serif" font-size="14" lengthAdjust="spacing" textLength="53.416" x="770.7388" y="1949.2295">Session</text><text fill="#000000" font-family="sans-serif" font-size="14" lengthAdjust="spacing" textLength="61.3662" x="766.7637" y="1965.5264">Manager</text></g><g class="participant participant-head" data-participant="DB"><rect fill="#E2E2F0" height="30.2969" rx="2.5" ry="2.5" style="stroke:#181818;stroke-width:0.5;" width="80.8008" x="933.5088" y="87.2969"/><text fill="#000000" font-family="sans-serif" font-size="14" lengthAdjust="spacing" textLength="66.8008" x="940.5088" y="107.292">Database</text></g><g class="participant participant-tail" data-participant="DB"><rect fill="#E2E2F0" height="30.2969" rx="2.5" ry="2.5" style="stroke:#181818;stroke-width:0.5;" width="80.8008" x="933.5088" y="1929.2344"/><text fill="#000000" font-family="sans-serif" font-size="14" lengthAdjust="spacing" textLength="66.8008" x="940.5088" y="1949.2295">Database</text></g><g class="participant participant-head" data-participant="Logger"><rect fill="#E2E2F0" height="46.5938" rx="2.5" ry="2.5" style="stroke:#181818;stroke-width:0.5;" width="62.5078" x="1154.7852" y="71"/><text fill="#000000" font-family="sans-serif" font-size="14" lengthAdjust="spacing" textLength="36.7158" x="1167.6812" y="90.9951">Audit</text><text fill="#000000" font-family="sans-serif" font-size="14" lengthAdjust="spacing" textLength="48.5078" x="1161.7852" y="107.292">Logger</text></g><g class="participant participant-tail" data-participant="Logger"><rect fill="#E2E2F0" height="46.5938" rx="2.5" ry="2.5" style="stroke:#181818;stroke-width:0.5;" width="62.5078" x="1154.7852" y="1929.2344"/><text fill="#000000" font-family="sans-serif" font-size="14" lengthAdjust="spacing" textLength="36.7158" x="1167.6812" y="1949.2295">Audit</text><text fill="#000000" font-family="sans-serif" font-size="14" lengthAdjust="spacing" textLength="48.5078" x="1161.7852" y="1965.5264">Logger</text></g><g><title>Auth</title><rect fill="#FFFFFF" height="1770.5078" style="stroke:#181818;stroke-width:1;" width="10" x="284.0977" y="149.7266"/></g><g><title>Rate</title><rect fill="#FFFFFF" height="216.3281" style="stroke:#181818;stroke-width:1;" width="10" x="499.6216" y="193.9922"/></g><g><title>User</title><rect fill="#FFFFFF" height="318.2656" style="stroke:#181818;stroke-width:1;" width="10" x="569.1763" y="454.2578"/></g><g><title>User</title><rect fill="#FFFFFF" height="109.1875" style="stroke:#181818;stroke-width:1;" width="10" x="569.1763" y="1583.1172"/></g><g><title>Security</title><rect fill="#FFFFFF" height="71.2656" style="stroke:#181818;stroke-width:1;" width="10" x="642.9385" y="972.3906"/></g><g><title>Session</title><rect fill="#FFFFFF" height="205.1953" style="stroke:#181818;stroke-width:1;" width="10" x="792.4468" y="1348.7891"/></g><g><title>Database</title><rect fill="#FFFFFF" height="29.1328" style="stroke:#181818;stroke-width:1;" width="10" x="968.9092" y="268.5234"/></g><g><title>Database</title><rect fill="#FFFFFF" height="29.1328" style="stroke:#181818;stroke-width:1;" width="10" x="968.9092" y="498.5234"/></g><g><title>Database</title><rect fill="#FFFFFF" height="30" style="stroke:#181818;stroke-width:1;" width="10" x="968.9092" y="654.3203"/></g><g><title>Database</title><rect fill="#FFFFFF" height="30" style="stroke:#181818;stroke-width:1;" width="10" x="968.9092" y="1112.0547"/></g><g><title>Database</title><rect fill="#FFFFFF" height="30" style="stroke:#181818;stroke-width:1;" width="10" x="968.9092" y="1215.4531"/></g><g><title>Database</title><rect fill="#FFFFFF" height="29.1328" style="stroke:#181818;stroke-width:1;" width="10" x="968.9092" y="1495.7188"/></g><g><title>Database</title><rect fill="#FFFFFF" height="30" style="stroke:#181818;stroke-width:1;" width="10" x="968.9092" y="1662.3047"/></g><g><title>Database</title><rect fill="#FFFFFF" height="30" style="stroke:#181818;stroke-width:1;" width="10" x="968.9092" y="1795.9688"/></g><g><title>Audit</title><rect fill="#FFFFFF" height="59.1328" style="stroke:#181818;stroke-width:1;" width="10" x="1181.0391" y="625.1875"/></g><g><title>Audit</title><rect fill="#FFFFFF" height="59.1328" style="stroke:#181818;stroke-width:1;" width="10" x="1181.0391" y="1186.3203"/></g><g><title>Audit</title><rect fill="#FFFFFF" height="89.3984" style="stroke:#181818;stroke-width:1;" width="10" x="1181.0391" y="1736.5703"/></g><g class="message" data-participant-1="User" data-participant-2="AuthCtrl"><polygon fill="#181818" points="272.0977,145.7266,282.0977,149.7266,272.0977,153.7266,276.0977,149.7266" style="stroke:#181818;stroke-width:1;"/><line style="stroke:#181818;stroke-width:1;" x1="68.9551" x2="278.0977" y1="149.7266" y2="149.7266"/><text fill="#000000" font-family="sans-serif" font-size="13" lengthAdjust="spacing" textLength="196.1426" x="78.4551" y="144.6606">submitLogin(email, password)</text></g><g class="message" data-participant-1="AuthCtrl" data-participant-2="RateLimit"><polygon fill="#181818" points="487.6216,189.9922,497.6216,193.9922,487.6216,197.9922,491.6216,193.9922" style="stroke:#181818;stroke-width:1;"/><line style="stroke:#181818;stroke-width:1;" x1="294.0977" x2="493.6216" y1="193.9922" y2="193.9922"/><text fill="#000000" font-family="sans-serif" font-size="13" lengthAdjust="spacing" textLength="138.3027" x="327.7083" y="173.7935">checkLoginAttempts(</text><text fill="#000000" font-family="sans-serif" font-size="13" lengthAdjust="spacing" textLength="74.7944" x="359.4624" y="188.9263">ip_address)</text></g><g class="message" data-participant-1="RateLimit" data-participant-2="DB"><polygon fill="#181818" points="956.9092,264.5234,966.9092,268.5234,956.9092,272.5234,960.9092,268.5234" style="stroke:#181818;stroke-width:1;"/><line style="stroke:#181818;stroke-width:1;" x1="509.6216" x2="962.9092" y1="268.5234" y2="268.5234"/><text fill="#000000" font-family="sans-serif" font-size="13" lengthAdjust="spacing" textLength="116.2065" x="681.1621" y="218.0591">SELECT COUNT(*)</text><text fill="#000000" font-family="sans-serif" font-size="13" lengthAdjust="spacing" textLength="181.7207" x="648.405" y="233.1919">FROM failed_login_attempts</text><text fill="#000000" font-family="sans-serif" font-size="13" lengthAdjust="spacing" textLength="148.002" x="665.2644" y="248.3247">WHERE ip_address = ?</text><text fill="#000000" font-family="sans-serif" font-size="13" lengthAdjust="spacing" textLength="257.3213" x="610.6047" y="263.4575">AND timestamp &gt; NOW() - 15 MINUTES</text></g><g class="message" data-participant-1="DB" data-participant-2="RateLimit"><polygon fill="#181818" points="520.6216,293.6563,510.6216,297.6563,520.6216,301.6563,516.6216,297.6563" style="stroke:#181818;stroke-width:1;"/><line style="stroke:#181818;stroke-width:1;stroke-dasharray:2,2;" x1="514.6216" x2="972.9092" y1="297.6563" y2="297.6563"/><text fill="#000000" font-family="sans-serif" font-size="13" lengthAdjust="spacing" textLength="90.7778" x="696.3765" y="292.5903">attemptCount</text></g><path d="M10,312.6563 L74.4429,312.6563 L74.4429,319.7891 L64.4429,329.7891 L10,329.7891 L10,312.6563" fill="#EEEEEE" style="stroke:#000000;stroke-width:1.5;"/><rect fill="none" height="1600.5781" style="stroke:#000000;stroke-width:1.5;" width="1247.293" x="10" y="312.6563"/><text fill="#000000" font-family="sans-serif" font-size="13" font-weight="bold" lengthAdjust="spacing" textLength="19.4429" x="25" y="325.7231">alt</text><text fill="#000000" font-family="sans-serif" font-size="11" font-weight="bold" lengthAdjust="spacing" textLength="131.334" x="89.4429" y="324.8667">[Too Many Attempts]</text><g class="message" data-participant-1="RateLimit" data-participant-2="AuthCtrl"><polygon fill="#181818" points="305.0977,346.9219,295.0977,350.9219,305.0977,354.9219,301.0977,350.9219" style="stroke:#181818;stroke-width:1;"/><line style="stroke:#181818;stroke-width:1;stroke-dasharray:2,2;" x1="299.0977" x2="498.6216" y1="350.9219" y2="350.9219"/><text fill="#000000" font-family="sans-serif" font-size="13" lengthAdjust="spacing" textLength="122.186" x="335.7666" y="345.856">rateLimitExceeded</text></g><g class="message" data-participant-1="AuthCtrl" data-participant-2="User"><polygon fill="#181818" points="79.9551,406.3203,69.9551,410.3203,79.9551,414.3203,75.9551,410.3203" style="stroke:#181818;stroke-width:1;"/><line style="stroke:#181818;stroke-width:1;stroke-dasharray:2,2;" x1="73.9551" x2="283.0977" y1="410.3203" y2="410.3203"/><text fill="#000000" font-family="sans-serif" font-size="13" lengthAdjust="spacing" textLength="83.4336" x="134.8096" y="374.9888">displayError(</text><text fill="#000000" font-family="sans-serif" font-size="13" lengthAdjust="spacing" textLength="168.9111" x="92.0708" y="390.1216">"Maximum login attempts</text><text fill="#000000" font-family="sans-serif" font-size="13" lengthAdjust="spacing" textLength="74.3882" x="139.3323" y="405.2544">exceeded")</text></g><line style="stroke:#000000;stroke-width:1;stroke-dasharray:2,2;" x1="10" x2="1257.293" y1="419.3203" y2="419.3203"/><text fill="#000000" font-family="sans-serif" font-size="11" font-weight="bold" lengthAdjust="spacing" textLength="85.7495" x="15" y="429.5308">[Within Limit]</text><g class="message" data-participant-1="AuthCtrl" data-participant-2="UserModel"><polygon fill="#181818" points="557.1763,450.2578,567.1763,454.2578,557.1763,458.2578,561.1763,454.2578" style="stroke:#181818;stroke-width:1;"/><line style="stroke:#181818;stroke-width:1;" x1="294.0977" x2="563.1763" y1="454.2578" y2="454.2578"/><text fill="#000000" font-family="sans-serif" font-size="13" lengthAdjust="spacing" textLength="152.9849" x="355.1445" y="449.1919">findUserByEmail(email)</text></g><g class="message" data-participant-1="UserModel" data-participant-2="DB"><polygon fill="#181818" points="956.9092,494.5234,966.9092,498.5234,956.9092,502.5234,960.9092,498.5234" style="stroke:#181818;stroke-width:1;"/><line style="stroke:#181818;stroke-width:1;" x1="579.1763" x2="962.9092" y1="498.5234" y2="498.5234"/><text fill="#000000" font-family="sans-serif" font-size="13" lengthAdjust="spacing" textLength="140.9243" x="703.5806" y="478.3247">SELECT * FROM users</text><text fill="#000000" font-family="sans-serif" font-size="13" lengthAdjust="spacing" textLength="114.1309" x="716.9773" y="493.4575">WHERE email = ?</text></g><g class="message" data-participant-1="DB" data-participant-2="UserModel"><polygon fill="#181818" points="590.1763,523.6563,580.1763,527.6563,590.1763,531.6563,586.1763,527.6563" style="stroke:#181818;stroke-width:1;"/><line style="stroke:#181818;stroke-width:1;stroke-dasharray:2,2;" x1="584.1763" x2="972.9092" y1="527.6563" y2="527.6563"/><text fill="#000000" font-family="sans-serif" font-size="13" lengthAdjust="spacing" textLength="74.0835" x="739.501" y="522.5903">userRecord</text></g><path d="M20,542.6563 L84.4429,542.6563 L84.4429,549.7891 L74.4429,559.7891 L20,559.7891 L20,542.6563" fill="#EEEEEE" style="stroke:#000000;stroke-width:1.5;"/><rect fill="none" height="1363.5781" style="stroke:#000000;stroke-width:1.5;" width="1227.293" x="20" y="542.6563"/><text fill="#000000" font-family="sans-serif" font-size="13" font-weight="bold" lengthAdjust="spacing" textLength="19.4429" x="35" y="555.7231">alt</text><text fill="#000000" font-family="sans-serif" font-size="11" font-weight="bold" lengthAdjust="spacing" textLength="106.7075" x="99.4429" y="554.8667">[User Not Found]</text><g class="message" data-participant-1="UserModel" data-participant-2="AuthCtrl"><polygon fill="#181818" points="305.0977,576.9219,295.0977,580.9219,305.0977,584.9219,301.0977,580.9219" style="stroke:#181818;stroke-width:1;"/><line style="stroke:#181818;stroke-width:1;stroke-dasharray:2,2;" x1="299.0977" x2="568.1763" y1="580.9219" y2="580.9219"/><text fill="#000000" font-family="sans-serif" font-size="13" lengthAdjust="spacing" textLength="91.292" x="385.991" y="575.856">userNotFound</text></g><g class="message" data-participant-1="AuthCtrl" data-participant-2="Logger"><polygon fill="#181818" points="1169.0391,621.1875,1179.0391,625.1875,1169.0391,629.1875,1173.0391,625.1875" style="stroke:#181818;stroke-width:1;"/><line style="stroke:#181818;stroke-width:1;" x1="294.0977" x2="1175.0391" y1="625.1875" y2="625.1875"/><text fill="#000000" font-family="sans-serif" font-size="13" lengthAdjust="spacing" textLength="116.9048" x="679.116" y="604.9888">logFailedAttempt(</text><text fill="#000000" font-family="sans-serif" font-size="13" lengthAdjust="spacing" textLength="118.9106" x="678.113" y="620.1216">email, ip_address)</text></g><g class="message" data-participant-1="Logger" data-participant-2="DB"><polygon fill="#181818" points="989.9092,650.3203,979.9092,654.3203,989.9092,658.3203,985.9092,654.3203" style="stroke:#181818;stroke-width:1;"/><line style="stroke:#181818;stroke-width:1;" x1="983.9092" x2="1180.0391" y1="654.3203" y2="654.3203"/><text fill="#000000" font-family="sans-serif" font-size="13" lengthAdjust="spacing" textLength="153.2515" x="1003.3484" y="649.2544">INSERT INTO audit_logs</text></g><g class="message" data-participant-1="AuthCtrl" data-participant-2="User"><polygon fill="#181818" points="79.9551,724.5859,69.9551,728.5859,79.9551,732.5859,75.9551,728.5859" style="stroke:#181818;stroke-width:1;"/><line style="stroke:#181818;stroke-width:1;stroke-dasharray:2,2;" x1="73.9551" x2="283.0977" y1="728.5859" y2="728.5859"/><text fill="#000000" font-family="sans-serif" font-size="13" lengthAdjust="spacing" textLength="83.4336" x="134.8096" y="708.3872">displayError(</text><text fill="#000000" font-family="sans-serif" font-size="13" lengthAdjust="spacing" textLength="172.2119" x="90.4204" y="723.52">"Invalid login credentials")</text></g><line style="stroke:#000000;stroke-width:1;stroke-dasharray:2,2;" x1="20" x2="1247.293" y1="737.5859" y2="737.5859"/><text fill="#000000" font-family="sans-serif" font-size="11" font-weight="bold" lengthAdjust="spacing" textLength="80.8564" x="25" y="747.7964">[User Found]</text><g class="message" data-participant-1="UserModel" data-participant-2="AuthCtrl"><polygon fill="#181818" points="305.0977,768.5234,295.0977,772.5234,305.0977,776.5234,301.0977,772.5234" style="stroke:#181818;stroke-width:1;"/><line style="stroke:#181818;stroke-width:1;stroke-dasharray:2,2;" x1="299.0977" x2="573.1763" y1="772.5234" y2="772.5234"/><text fill="#000000" font-family="sans-serif" font-size="13" lengthAdjust="spacing" textLength="74.0835" x="397.0952" y="767.4575">userRecord</text></g><g class="message" data-participant-1="AuthCtrl" data-participant-2="AuthCtrl"><line style="stroke:#181818;stroke-width:1;" x1="294.0977" x2="336.0977" y1="816.7891" y2="816.7891"/><line style="stroke:#181818;stroke-width:1;" x1="336.0977" x2="336.0977" y1="816.7891" y2="829.7891"/><line style="stroke:#181818;stroke-width:1;" x1="295.0977" x2="336.0977" y1="829.7891" y2="829.7891"/><polygon fill="#181818" points="305.0977,825.7891,295.0977,829.7891,305.0977,833.7891,301.0977,829.7891" style="stroke:#181818;stroke-width:1;"/><text fill="#000000" font-family="sans-serif" font-size="13" lengthAdjust="spacing" textLength="137.2744" x="323.2224" y="796.5903">checkAccountStatus(</text><text fill="#000000" font-family="sans-serif" font-size="13" lengthAdjust="spacing" textLength="181.5239" x="301.0977" y="811.7231">userRecord.account_status)</text></g><path d="M30,844.7891 L94.4429,844.7891 L94.4429,851.9219 L84.4429,861.9219 L30,861.9219 L30,844.7891" fill="#EEEEEE" style="stroke:#000000;stroke-width:1.5;"/><rect fill="none" height="1054.4453" style="stroke:#000000;stroke-width:1.5;" width="1207.293" x="30" y="844.7891"/><text fill="#000000" font-family="sans-serif" font-size="13" font-weight="bold" lengthAdjust="spacing" textLength="19.4429" x="45" y="857.856">alt</text><text fill="#000000" font-family="sans-serif" font-size="11" font-weight="bold" lengthAdjust="spacing" textLength="113.4429" x="109.4429" y="856.9995">[Account Inactive]</text><g class="message" data-participant-1="AuthCtrl" data-participant-2="User"><polygon fill="#181818" points="79.9551,894.1875,69.9551,898.1875,79.9551,902.1875,75.9551,898.1875" style="stroke:#181818;stroke-width:1;"/><line style="stroke:#181818;stroke-width:1;stroke-dasharray:2,2;" x1="73.9551" x2="283.0977" y1="898.1875" y2="898.1875"/><text fill="#000000" font-family="sans-serif" font-size="13" lengthAdjust="spacing" textLength="83.4336" x="134.8096" y="877.9888">displayError(</text><text fill="#000000" font-family="sans-serif" font-size="13" lengthAdjust="spacing" textLength="139.7627" x="106.645" y="893.1216">"Account is inactive")</text></g><line style="stroke:#000000;stroke-width:1;stroke-dasharray:2,2;" x1="30" x2="1237.293" y1="907.1875" y2="907.1875"/><text fill="#000000" font-family="sans-serif" font-size="11" font-weight="bold" lengthAdjust="spacing" textLength="102.6094" x="35" y="917.3979">[Account Active]</text><g class="message" data-participant-1="AuthCtrl" data-participant-2="Sec"><polygon fill="#181818" points="630.9385,968.3906,640.9385,972.3906,630.9385,976.3906,634.9385,972.3906" style="stroke:#181818;stroke-width:1;"/><line style="stroke:#181818;stroke-width:1;" x1="294.0977" x2="636.9385" y1="972.3906" y2="972.3906"/><text fill="#000000" font-family="sans-serif" font-size="13" lengthAdjust="spacing" textLength="103.5239" x="416.7561" y="937.0591">verifyPassword(</text><text fill="#000000" font-family="sans-serif" font-size="13" lengthAdjust="spacing" textLength="66.0791" x="435.4785" y="952.1919">password,</text><text fill="#000000" font-family="sans-serif" font-size="13" lengthAdjust="spacing" textLength="182.9521" x="377.042" y="967.3247">userRecord.password_hash)</text></g><g class="message" data-participant-1="Sec" data-participant-2="Sec"><line style="stroke:#181818;stroke-width:1;" x1="652.9385" x2="694.9385" y1="1001.5234" y2="1001.5234"/><line style="stroke:#181818;stroke-width:1;" x1="694.9385" x2="694.9385" y1="1001.5234" y2="1014.5234"/><line style="stroke:#181818;stroke-width:1;" x1="653.9385" x2="694.9385" y1="1014.5234" y2="1014.5234"/><polygon fill="#181818" points="663.9385,1010.5234,653.9385,1014.5234,663.9385,1018.5234,659.9385,1014.5234" style="stroke:#181818;stroke-width:1;"/><text fill="#000000" font-family="sans-serif" font-size="13" lengthAdjust="spacing" textLength="115.5083" x="659.9385" y="996.4575">password_verify()</text></g><g class="message" data-participant-1="Sec" data-participant-2="AuthCtrl"><polygon fill="#181818" points="305.0977,1039.6563,295.0977,1043.6563,305.0977,1047.6563,301.0977,1043.6563" style="stroke:#181818;stroke-width:1;"/><line style="stroke:#181818;stroke-width:1;stroke-dasharray:2,2;" x1="299.0977" x2="646.9385" y1="1043.6563" y2="1043.6563"/><text fill="#000000" font-family="sans-serif" font-size="13" lengthAdjust="spacing" textLength="94.2817" x="423.8772" y="1038.5903">passwordValid</text></g><path d="M40,1058.6563 L104.4429,1058.6563 L104.4429,1065.7891 L94.4429,1075.7891 L40,1075.7891 L40,1058.6563" fill="#EEEEEE" style="stroke:#000000;stroke-width:1.5;"/><rect fill="none" height="833.5781" style="stroke:#000000;stroke-width:1.5;" width="1187.293" x="40" y="1058.6563"/><text fill="#000000" font-family="sans-serif" font-size="13" font-weight="bold" lengthAdjust="spacing" textLength="19.4429" x="55" y="1071.7231">alt</text><text fill="#000000" font-family="sans-serif" font-size="11" font-weight="bold" lengthAdjust="spacing" textLength="115.4141" x="119.4429" y="1070.8667">[Password Invalid]</text><g class="message" data-participant-1="AuthCtrl" data-participant-2="DB"><polygon fill="#181818" points="956.9092,1108.0547,966.9092,1112.0547,956.9092,1116.0547,960.9092,1112.0547" style="stroke:#181818;stroke-width:1;"/><line style="stroke:#181818;stroke-width:1;" x1="294.0977" x2="962.9092" y1="1112.0547" y2="1112.0547"/><text fill="#000000" font-family="sans-serif" font-size="13" lengthAdjust="spacing" textLength="82.8623" x="590.0723" y="1091.856">INSERT INTO</text><text fill="#000000" font-family="sans-serif" font-size="13" lengthAdjust="spacing" textLength="139.6294" x="561.6887" y="1106.9888">failed_login_attempts</text></g><g class="message" data-participant-1="AuthCtrl" data-participant-2="Logger"><polygon fill="#181818" points="1169.0391,1182.3203,1179.0391,1186.3203,1169.0391,1190.3203,1173.0391,1186.3203" style="stroke:#181818;stroke-width:1;"/><line style="stroke:#181818;stroke-width:1;" x1="294.0977" x2="1175.0391" y1="1186.3203" y2="1186.3203"/><text fill="#000000" font-family="sans-serif" font-size="13" lengthAdjust="spacing" textLength="116.9048" x="679.116" y="1166.1216">logFailedAttempt(</text><text fill="#000000" font-family="sans-serif" font-size="13" lengthAdjust="spacing" textLength="118.9106" x="678.113" y="1181.2544">email, ip_address)</text></g><g class="message" data-participant-1="Logger" data-participant-2="DB"><polygon fill="#181818" points="989.9092,1211.4531,979.9092,1215.4531,989.9092,1219.4531,985.9092,1215.4531" style="stroke:#181818;stroke-width:1;"/><line style="stroke:#181818;stroke-width:1;" x1="983.9092" x2="1180.0391" y1="1215.4531" y2="1215.4531"/><text fill="#000000" font-family="sans-serif" font-size="13" lengthAdjust="spacing" textLength="153.2515" x="1003.3484" y="1210.3872">INSERT INTO audit_logs</text></g><g class="message" data-participant-1="AuthCtrl" data-participant-2="User"><polygon fill="#181818" points="79.9551,1285.7188,69.9551,1289.7188,79.9551,1293.7188,75.9551,1289.7188" style="stroke:#181818;stroke-width:1;"/><line style="stroke:#181818;stroke-width:1;stroke-dasharray:2,2;" x1="73.9551" x2="283.0977" y1="1289.7188" y2="1289.7188"/><text fill="#000000" font-family="sans-serif" font-size="13" lengthAdjust="spacing" textLength="83.4336" x="134.8096" y="1269.52">displayError(</text><text fill="#000000" font-family="sans-serif" font-size="13" lengthAdjust="spacing" textLength="172.2119" x="90.4204" y="1284.6528">"Invalid login credentials")</text></g><line style="stroke:#000000;stroke-width:1;stroke-dasharray:2,2;" x1="40" x2="1227.293" y1="1298.7188" y2="1298.7188"/><text fill="#000000" font-family="sans-serif" font-size="11" font-weight="bold" lengthAdjust="spacing" textLength="104.833" x="45" y="1308.9292">[Password Valid]</text><g class="message" data-participant-1="AuthCtrl" data-participant-2="Session"><polygon fill="#181818" points="780.4468,1344.7891,790.4468,1348.7891,780.4468,1352.7891,784.4468,1348.7891" style="stroke:#181818;stroke-width:1;"/><line style="stroke:#181818;stroke-width:1;" x1="294.0977" x2="786.4468" y1="1348.7891" y2="1348.7891"/><text fill="#000000" font-family="sans-serif" font-size="13" lengthAdjust="spacing" textLength="96.2241" x="495.1602" y="1328.5903">createSession(</text><text fill="#000000" font-family="sans-serif" font-size="13" lengthAdjust="spacing" textLength="95.1514" x="495.6965" y="1343.7231">userRecord.id)</text></g><g class="message" data-participant-1="Session" data-participant-2="Session"><line style="stroke:#181818;stroke-width:1;" x1="802.4468" x2="844.4468" y1="1377.9219" y2="1377.9219"/><line style="stroke:#181818;stroke-width:1;" x1="844.4468" x2="844.4468" y1="1377.9219" y2="1390.9219"/><line style="stroke:#181818;stroke-width:1;" x1="803.4468" x2="844.4468" y1="1390.9219" y2="1390.9219"/><polygon fill="#181818" points="813.4468,1386.9219,803.4468,1390.9219,813.4468,1394.9219,809.4468,1390.9219" style="stroke:#181818;stroke-width:1;"/><text fill="#000000" font-family="sans-serif" font-size="13" lengthAdjust="spacing" textLength="130.7236" x="809.4468" y="1372.856">generateSessionId()</text></g><g class="message" data-participant-1="Session" data-participant-2="DB"><polygon fill="#181818" points="956.9092,1491.7188,966.9092,1495.7188,956.9092,1499.7188,960.9092,1495.7188" style="stroke:#181818;stroke-width:1;"/><line style="stroke:#181818;stroke-width:1;" x1="802.4468" x2="962.9092" y1="1495.7188" y2="1495.7188"/><text fill="#000000" font-family="sans-serif" font-size="13" lengthAdjust="spacing" textLength="141.8892" x="814.7334" y="1414.9888">INSERT INTO sessions</text><text fill="#000000" font-family="sans-serif" font-size="13" lengthAdjust="spacing" textLength="130.6729" x="820.3416" y="1430.1216">(session_id, user_id,</text><text fill="#000000" font-family="sans-serif" font-size="13" lengthAdjust="spacing" textLength="134.1133" x="818.6213" y="1445.2544">creation_timestamp,</text><text fill="#000000" font-family="sans-serif" font-size="13" lengthAdjust="spacing" textLength="147.4624" x="811.9468" y="1460.3872">expiration_timestamp)</text><text fill="#000000" font-family="sans-serif" font-size="13" lengthAdjust="spacing" textLength="137.6299" x="816.863" y="1475.52">VALUES (?, ?, NOW(),</text><text fill="#000000" font-family="sans-serif" font-size="13" lengthAdjust="spacing" textLength="134.6655" x="818.3452" y="1490.6528">NOW() + 24 HOURS)</text></g><g class="message" data-participant-1="DB" data-participant-2="Session"><polygon fill="#181818" points="813.4468,1520.8516,803.4468,1524.8516,813.4468,1528.8516,809.4468,1524.8516" style="stroke:#181818;stroke-width:1;"/><line style="stroke:#181818;stroke-width:1;stroke-dasharray:2,2;" x1="807.4468" x2="972.9092" y1="1524.8516" y2="1524.8516"/><text fill="#000000" font-family="sans-serif" font-size="13" lengthAdjust="spacing" textLength="50.8511" x="862.7524" y="1519.7856">success</text></g><g class="message" data-participant-1="Session" data-participant-2="AuthCtrl"><polygon fill="#181818" points="305.0977,1549.9844,295.0977,1553.9844,305.0977,1557.9844,301.0977,1553.9844" style="stroke:#181818;stroke-width:1;"/><line style="stroke:#181818;stroke-width:1;stroke-dasharray:2,2;" x1="299.0977" x2="796.4468" y1="1553.9844" y2="1553.9844"/><text fill="#000000" font-family="sans-serif" font-size="13" lengthAdjust="spacing" textLength="60.2075" x="515.6685" y="1548.9185">sessionId</text></g><g class="message" data-participant-1="AuthCtrl" data-participant-2="UserModel"><polygon fill="#181818" points="557.1763,1579.1172,567.1763,1583.1172,557.1763,1587.1172,561.1763,1583.1172" style="stroke:#181818;stroke-width:1;"/><line style="stroke:#181818;stroke-width:1;" x1="294.0977" x2="563.1763" y1="1583.1172" y2="1583.1172"/><text fill="#000000" font-family="sans-serif" font-size="13" lengthAdjust="spacing" textLength="158.7676" x="352.2532" y="1578.0513">updateLastLogin(userId)</text></g><g class="message" data-participant-1="UserModel" data-participant-2="DB"><polygon fill="#181818" points="956.9092,1658.3047,966.9092,1662.3047,956.9092,1666.3047,960.9092,1662.3047" style="stroke:#181818;stroke-width:1;"/><line style="stroke:#181818;stroke-width:1;" x1="579.1763" x2="962.9092" y1="1662.3047" y2="1662.3047"/><text fill="#000000" font-family="sans-serif" font-size="13" lengthAdjust="spacing" textLength="91.6729" x="728.2063" y="1607.1841">UPDATE users</text><text fill="#000000" font-family="sans-serif" font-size="13" lengthAdjust="spacing" textLength="166.7783" x="690.6536" y="1622.3169">SET last_login_timestamp</text><text fill="#000000" font-family="sans-serif" font-size="17" font-weight="bold" lengthAdjust="spacing" textLength="62.9697" x="742.5579" y="1641.1626">NOW()</text><text fill="#000000" font-family="sans-serif" font-size="13" lengthAdjust="spacing" textLength="90.1431" x="728.9712" y="1657.2388">WHERE id = ?</text></g><g class="message" data-participant-1="AuthCtrl" data-participant-2="Logger"><polygon fill="#181818" points="1169.0391,1732.5703,1179.0391,1736.5703,1169.0391,1740.5703,1173.0391,1736.5703" style="stroke:#181818;stroke-width:1;"/><line style="stroke:#181818;stroke-width:1;" x1="294.0977" x2="1175.0391" y1="1736.5703" y2="1736.5703"/><text fill="#000000" font-family="sans-serif" font-size="13" lengthAdjust="spacing" textLength="128.9463" x="673.0952" y="1716.3716">logSuccessfulLogin(</text><text fill="#000000" font-family="sans-serif" font-size="13" lengthAdjust="spacing" textLength="123.5" x="675.8184" y="1731.5044">userId, ip_address)</text></g><g class="message" data-participant-1="Logger" data-participant-2="DB"><polygon fill="#181818" points="989.9092,1791.9688,979.9092,1795.9688,989.9092,1799.9688,985.9092,1795.9688" style="stroke:#181818;stroke-width:1;"/><line style="stroke:#181818;stroke-width:1;" x1="983.9092" x2="1180.0391" y1="1795.9688" y2="1795.9688"/><text fill="#000000" font-family="sans-serif" font-size="13" lengthAdjust="spacing" textLength="153.2515" x="1003.3484" y="1760.6372">INSERT INTO audit_logs</text><text fill="#000000" font-family="sans-serif" font-size="13" lengthAdjust="spacing" textLength="183.1299" x="988.4092" y="1775.77">(user_id, action, ip_address)</text><text fill="#000000" font-family="sans-serif" font-size="13" lengthAdjust="spacing" textLength="134.4307" x="1012.7588" y="1790.9028">VALUES (?, 'login', ?)</text></g><g class="message" data-participant-1="AuthCtrl" data-participant-2="User"><polygon fill="#181818" points="79.9551,1851.1016,69.9551,1855.1016,79.9551,1859.1016,75.9551,1855.1016" style="stroke:#181818;stroke-width:1;"/><line style="stroke:#181818;stroke-width:1;stroke-dasharray:2,2;" x1="73.9551" x2="283.0977" y1="1855.1016" y2="1855.1016"/><text fill="#000000" font-family="sans-serif" font-size="13" lengthAdjust="spacing" textLength="183.9424" x="84.5552" y="1850.0356">setSessionCookie(sessionId)</text></g><g class="message" data-participant-1="AuthCtrl" data-participant-2="User"><polygon fill="#181818" points="79.9551,1880.2344,69.9551,1884.2344,79.9551,1888.2344,75.9551,1884.2344" style="stroke:#181818;stroke-width:1;"/><line style="stroke:#181818;stroke-width:1;stroke-dasharray:2,2;" x1="73.9551" x2="283.0977" y1="1884.2344" y2="1884.2344"/><text fill="#000000" font-family="sans-serif" font-size="13" lengthAdjust="spacing" textLength="147.5894" x="102.7317" y="1879.1685">redirectToDashboard()</text></g><!--SRC=[lLRRRkCs47tNLmpyifRh56ZHlXZOB7nHi0PYE_0bUH5WC19Z4v59bQIIzT-Nf2XAb1ElTpTja20YEPpBcJF34S-4veYZ0mZyJu5fWcTO2BJ3mupiA2IOIim3uQGu5ZcZef8QuOoz3Zbdho1vWOD04fbXwFKs0dEuPJj2uOwpH4dtUa604iauTFHX1v00_H4enP8a94TKGcTOo7rCnunAphBCYkdDiUIPBxf44iVqbXo8j79wnwnzGMqbfZEMuinPDIjVR8MJWXDvD39gqJuLWZ2gz22g0kTMocpwaXCaqICIs4XCHktuKYALrsnNwIW_Wy0WTdNjWXs0A1vLB0R4BZuWalKXHqAyCfw66ahoekAjmGcgBwt5GJ60P8-JPwDbA2K-v59qOqhoBKfJbKtHK5NZvxwqhibe0AleDXglORpOpDVTNXZJc-LY1a_AAPnkCwryYwpsc3vyZPOHr2RWCto9wN0-0KaEM4XqoE4Qvek7RWXNyCVVC9lED-jeLNkYO9kCuCeFn1eOiuBA8CLDuG1b4jQCWShE4Qeu0r0_ZL0yT7cr7trBC4vnQgHh39MmJia0KYBo31qZnNAkaElCq3ToA0vWeeOwQcprT4AZgU5WZIlE18O78lVgPhdphgW-QBbqNLDt04-4fdevEaQQ6oL3IjDEMyrqlUrMhQJsm2IpKCSkUKQRpfklK46jrpOt3M_qvILE53NR4TahfHwL9SFpEPDme_9OIhUSyzAa5IjfNxW9ILa_0vsE6qD7ctsLAbiqJQvN6fnxjlog_N9P0JIThwBbMlrRBm3fojLK5wTAR8nlHzxQRHcyW71J-e8oabh29LoHZ4g2Cc6PPaXbOBqSqaQkMlxvd76fQyDUgpFzPPWakYnN4ib2zvVQnk-eFDeASnQUgjMiiFTXIeqZs1rUY55rdmWWLaMdDcKGgaI6vmnSwyu_W1VCoTFnpdPRPQ1gl7qlj6ftkqTY7teg7Pxw9MaUgBKpu-wNzhhXgQG7TIL_h_dWoJOIs3RekwMmhi82IonFe0r7gmnY-cRFFr7nLX6SBv6Fg-tlrVXFrVgl1_P-3_Z0Nk0ntYNw_hjfjfFCGAjK7jgbNyWaFODnDGgr1Uo-PsE7AUQrbMdQ3S_TQsT7b4VghUhQpor9-wQjwO-OcXZqjXit-lfvpWblRQivvdvukubMqFtI1_LhPX8bNCucly6VVy7NnMQv2d-81_PvTF6A8j4Jy0_onI7W3uKLPkUqlPUCinHelkPvgkSG9EpqgQ6Tdil-wQFnnYDKPd9pDnckeshQM4Lho9GTsqzSPcBwkKo6coPJDuryU3c-x_sbtMbLPlYfo4h0ohgPflzzWuhBx9WAqFeOzMnw1FzaGFwac1x-httjaaOdiBIi7JFsJ73N4JsyvBfgX8JZHAxPH3t5ZmpnTbF1ZSce-jR_zLyZX4htlm00]--></g></svg>